<svg width="383" height="400" viewBox="0 0 383 400" fill="none" xmlns="http://www.w3.org/2000/svg">
<path opacity="0.7" d="M28.9494 121.398C28.9494 121.398 4.43955 184.694 38.8835 248.431C73.3275 312.167 144.273 345.837 201.055 374.629C257.837 403.42 316.8 389.398 344.818 342.242C372.835 295.086 334.409 261.424 334.356 194.18C334.303 126.936 344.422 109.134 307.982 52.3253C271.543 -4.48349 182.215 -17.0637 114.664 25.0725C47.1121 67.2088 28.9494 121.398 28.9494 121.398Z" fill="#DBDBDB"/>
<path d="M85.2747 350.391C106.022 372.299 156.958 364.273 179.024 350.391C250.673 305.336 376.193 230.33 381.881 121.67C384.299 75.4901 343.569 51.2352 326.558 44.1231C285.714 27.033 240.879 21.9077 196.615 19.9297C150.4 17.8637 100.791 19.4725 59.2 42.022C43.4286 50.5582 28.5538 61.5385 18.3736 76.4835C8.03516 91.6747 2.08352 109.767 0.501096 128.026C-2.03956 157.477 5.88132 187.007 17.8637 214.031C29.8462 241.055 45.8198 266.075 60.4835 291.745C70.0571 308.475 67.833 331.938 85.2747 350.391Z" fill="#92E3A9"/>
<path opacity="0.7" d="M85.2747 350.391C106.022 372.299 156.958 364.273 179.024 350.391C250.673 305.336 376.193 230.33 381.881 121.67C384.299 75.4901 343.569 51.2352 326.558 44.1231C285.714 27.033 240.879 21.9077 196.615 19.9297C150.4 17.8637 100.791 19.4725 59.2 42.022C43.4286 50.5582 28.5538 61.5385 18.3736 76.4835C8.03516 91.6747 2.08352 109.767 0.501096 128.026C-2.03956 157.477 5.88132 187.007 17.8637 214.031C29.8462 241.055 45.8198 266.075 60.4835 291.745C70.0571 308.475 67.833 331.938 85.2747 350.391Z" fill="white"/>
<path opacity="0.2" d="M198.514 262.69C198.514 262.69 191.736 297.09 150.163 304.888C150.163 304.888 139.306 313.547 135.692 318.673C132.079 323.798 112.835 332.51 93.2308 359.692C73.6264 386.875 44.4396 300.554 44.4396 300.554L108.949 216.774L198.514 262.69Z" fill="black" fill-opacity="0.7"/>
<path d="M235.464 101.169C235.464 101.169 257.881 90.2066 262.813 92.0967C267.745 93.9868 272.483 105.327 253.626 116.185C234.769 127.042 240.396 147.27 240.396 147.27H253.846C253.846 147.27 261.916 150.558 265.055 154.787C268.193 159.015 270.435 173.433 272.229 178.321C274.022 183.209 273.108 188.105 268.193 189.697C268.193 189.697 265.055 203.376 265.952 209.442C266.848 215.508 266.4 219.411 260.571 220.149C259.105 220.302 257.623 220.134 256.228 219.658C254.832 219.181 253.557 218.406 252.491 217.387C251.425 216.369 250.593 215.131 250.053 213.759C249.512 212.387 249.277 210.913 249.363 209.442L244.879 225.688L248.018 231.93C252.451 233.646 256.549 236.127 260.123 239.262C266.4 244.642 272.677 246.11 270.883 252.105C269.09 258.101 265.503 264.563 246.673 257.073C227.842 249.582 212.149 220.149 212.149 220.149L200.835 117.521L235.464 101.169Z" fill="#C1886F"/>
<path opacity="0.4" d="M259.059 160.123C248.897 173.978 260.141 189.934 260.141 189.934C260.141 189.934 253.108 193.855 252.905 203.859C252.826 208.018 253.873 213.829 255.121 219.209C253.293 218.345 251.768 216.952 250.743 215.211C249.717 213.469 249.24 211.458 249.371 209.442L244.879 225.688L248.018 231.921C251.32 233.185 254.432 234.898 257.266 237.011C254.479 243.411 253.626 251.323 253.873 259.481C251.424 258.832 249.019 258.026 246.673 257.073C227.842 249.574 212.149 220.149 212.149 220.149L200.835 117.512L235.464 101.169C235.464 101.169 247.71 95.1824 256.097 92.8176C255.446 100.659 256.976 108.774 258.084 113.292C256.653 114.339 255.165 115.305 253.626 116.185C234.796 127.042 240.396 147.27 240.396 147.27H253.855C253.855 147.27 261.521 150.4 264.809 154.47C262.56 155.984 260.611 157.901 259.059 160.123Z" fill="#AD7A62"/>
<path d="M200.44 246.154C200.44 246.154 176.053 293.969 132.097 304.818C132.097 304.818 130.418 314.277 122.98 318.338C119.007 320.501 102.971 344.527 88.8967 366.462L10.9363 318.637C15.7363 313.89 21.2044 308.422 26.7605 302.716C43.0242 286.136 60.378 267.552 65.6879 258.356C70.4352 250.18 76.4396 235.991 81.6703 222.655C88.3692 205.6 93.8198 189.934 93.8198 189.934L119.807 161.046L160.659 115.622L162.418 121.433L200.44 246.154Z" fill="#C2886F"/>
<path opacity="0.4" d="M160.694 115.622L200.44 246.154C200.44 246.154 176.053 293.969 132.097 304.818C132.097 304.818 130.418 314.277 122.98 318.338C119.411 320.281 106.127 339.842 93.2747 359.657C98.0396 343.305 111.833 317.24 111.833 317.24C102.98 306.752 105.565 295.701 109.108 298.848C112.651 301.996 121.556 310.84 122.119 311.393C118.207 306.787 117.301 299.569 117.301 299.569C117.301 299.569 128.273 306.866 129.16 295.174C130.048 283.481 122.585 254.91 122.585 254.91L102.989 179.78L160.694 115.622Z" fill="#A47A68"/>
<path d="M200.835 117.521L235.464 101.169C235.464 101.169 257.881 90.2066 262.813 92.0967C267.745 93.9868 272.483 105.327 253.626 116.185C234.769 127.042 240.396 147.27 240.396 147.27H253.846C253.846 147.27 261.916 150.558 265.055 154.787C268.193 159.015 270.435 173.433 272.229 178.321C274.022 183.209 273.108 188.105 268.193 189.697C268.193 189.697 265.055 203.376 265.952 209.442C266.848 215.508 266.4 219.411 260.571 220.149C259.105 220.302 257.623 220.134 256.228 219.658C254.832 219.181 253.557 218.406 252.491 217.387C251.425 216.369 250.593 215.131 250.053 213.759C249.512 212.387 249.277 210.913 249.363 209.442L244.879 225.688L248.018 231.93C252.451 233.646 256.549 236.127 260.123 239.262C266.4 244.642 272.677 246.11 270.883 252.105C269.09 258.101 265.503 264.563 246.673 257.073C227.842 249.582 212.149 220.149 212.149 220.149" stroke="#37474F" stroke-linecap="round" stroke-linejoin="round"/>
<path d="M268.193 189.697C261.468 191.516 253.626 190.171 250.708 178.268C247.789 166.365 253.626 153.653 257.433 152.484" stroke="#37474F" stroke-linecap="round" stroke-linejoin="round"/>
<path d="M249.363 209.442C249.363 209.442 248.914 194.136 254.523 190.356" stroke="#37474F" stroke-linecap="round" stroke-linejoin="round"/>
<path opacity="0.4" d="M85.8198 285.459C85.8198 285.459 69.389 283.411 65.7231 276.062C62.6901 269.978 46.2505 292.765 26.7956 302.717C43.0593 286.136 60.4132 267.552 65.7231 258.356C70.4703 250.18 76.4747 235.991 81.7055 222.655C81.4417 233.714 75.5516 250.646 77.2308 259.464C75.4312 259.939 73.8919 261.105 72.9459 262.708C72 264.31 71.7231 266.222 72.1758 268.026C73.433 275.033 85.8198 285.459 85.8198 285.459Z" fill="#A47A68"/>
<path d="M200.44 246.154C200.44 246.154 176.053 293.969 132.088 304.818C132.088 304.818 130.418 314.277 122.98 318.338C119.007 320.501 102.98 344.527 88.8879 366.462" stroke="#37474F" stroke-linecap="round" stroke-linejoin="round"/>
<path d="M10.9363 318.637C29.7143 300.079 58.5758 270.655 65.7231 258.356C76.5363 239.745 93.855 189.925 93.855 189.925L160.668 115.622" stroke="#37474F" stroke-linecap="round" stroke-linejoin="round"/>
<path d="M122.541 172.369C122.541 172.369 132.809 181.565 135.727 189.952" stroke="#37474F" stroke-linecap="round" stroke-linejoin="round"/>
<path d="M243.745 38.4352H133.266C129.998 38.4352 127.349 41.0841 127.349 44.3517V279.543C127.349 282.811 129.998 285.459 133.266 285.459H243.745C247.013 285.459 249.661 282.811 249.661 279.543V44.3517C249.661 41.0841 247.013 38.4352 243.745 38.4352Z" fill="#37474F"/>
<path d="M212.747 45.1604L210.409 49.4418C210.162 49.9064 209.793 50.2955 209.342 50.5678C208.892 50.8402 208.377 50.9858 207.851 50.989H169.169C168.644 50.9862 168.128 50.8429 167.677 50.5739C167.226 50.305 166.855 49.9201 166.602 49.4593L164.273 45.178C164.022 44.7154 163.652 44.329 163.2 44.0598C162.748 43.7905 162.231 43.6483 161.706 43.6483H134.673C134.287 43.6495 133.906 43.7267 133.551 43.8753C133.196 44.0241 132.873 44.2415 132.602 44.5151C132.331 44.7887 132.116 45.1131 131.971 45.4697C131.825 45.8264 131.751 46.2083 131.754 46.5934V277.802C131.754 278.577 132.061 279.32 132.608 279.869C133.155 280.418 133.898 280.727 134.673 280.73H242.33C242.716 280.732 243.098 280.658 243.455 280.512C243.813 280.366 244.137 280.15 244.411 279.879C244.685 279.606 244.902 279.283 245.051 278.927C245.198 278.571 245.275 278.188 245.275 277.802V46.5934C245.275 45.817 244.966 45.0723 244.418 44.5233C243.868 43.9743 243.124 43.6659 242.347 43.6659H215.323C214.799 43.6608 214.283 43.797 213.83 44.0599C213.377 44.3229 213.003 44.703 212.747 45.1604Z" fill="#FF742B" stroke="#37474F" stroke-linecap="round" stroke-linejoin="round"/>
<path d="M180.114 47.2352C180.984 47.2352 181.688 46.5306 181.688 45.6615C181.688 44.7924 180.984 44.0879 180.114 44.0879C179.245 44.0879 178.541 44.7924 178.541 45.6615C178.541 46.5306 179.245 47.2352 180.114 47.2352Z" stroke="white" stroke-miterlimit="10"/>
<path d="M198.462 45.6615C198.46 45.8541 198.401 46.0419 198.293 46.2012C198.185 46.3606 198.032 46.4843 197.853 46.5568C197.675 46.6293 197.479 46.6474 197.29 46.6087C197.102 46.5701 196.928 46.4765 196.793 46.3397C196.657 46.2028 196.565 46.0289 196.528 45.8399C196.491 45.6509 196.511 45.4551 196.585 45.2773C196.659 45.0995 196.784 44.9476 196.944 44.8408C197.105 44.734 197.293 44.6769 197.486 44.6769C197.615 44.6769 197.742 44.7024 197.861 44.752C197.98 44.8017 198.088 44.8743 198.178 44.9658C198.27 45.0574 198.341 45.166 198.389 45.2854C198.439 45.4048 198.462 45.5326 198.462 45.6615Z" stroke="white" stroke-miterlimit="10"/>
<path d="M194.084 45.0461H184.519C184.439 45.0461 184.359 45.0621 184.285 45.0932C184.21 45.1242 184.143 45.1697 184.087 45.2269C184.03 45.2841 183.986 45.3521 183.956 45.4267C183.926 45.5013 183.911 45.5811 183.912 45.6615C183.912 45.8224 183.976 45.9767 184.09 46.0904C184.203 46.2042 184.358 46.2681 184.519 46.2681H194.084C194.244 46.2681 194.398 46.2042 194.513 46.0904C194.626 45.9767 194.69 45.8224 194.69 45.6615C194.691 45.5811 194.676 45.5013 194.646 45.4267C194.616 45.3521 194.572 45.2841 194.515 45.2269C194.459 45.1697 194.392 45.1242 194.317 45.0932C194.244 45.0621 194.164 45.0461 194.084 45.0461Z" fill="white"/>
<path d="M151.771 49.5121H141.459V53.8901H151.771V49.5121Z" stroke="white" stroke-linecap="round" stroke-linejoin="round"/>
<path d="M153.363 50.2505H151.763V53.1604H153.363V50.2505Z" stroke="white" stroke-linecap="round" stroke-linejoin="round"/>
<path d="M224.844 52.3077H223.015V53.8989H224.844V52.3077Z" stroke="white" stroke-linecap="round" stroke-linejoin="round"/>
<path d="M228.413 50.7077H226.585V53.8989H228.413V50.7077Z" stroke="white" stroke-linecap="round" stroke-linejoin="round"/>
<path d="M231.982 49.1077H230.154V53.8901H231.982V49.1077Z" stroke="white" stroke-linecap="round" stroke-linejoin="round"/>
<path d="M235.543 47.5077H233.714V53.8901H235.543V47.5077Z" stroke="white" stroke-linecap="round" stroke-linejoin="round"/>
<path d="M244.519 94.7341H132.484V201.591H244.519V94.7341Z" fill="#EBEBEB"/>
<path d="M235.543 168.343H141.459V182.4H235.543V168.343Z" fill="white" stroke="white" stroke-linecap="round" stroke-linejoin="round"/>
<path d="M210.11 226.048H167.033C167.033 224.29 167.036 219.958 167.033 217.697C167.033 215.435 167.033 211.543 167.033 209.231H210.11V217.697C210.11 219.959 210.11 223.851 210.11 226.048Z" fill="white"/>
<path d="M133.354 232.299C134.673 252.563 125.284 275.13 125.284 275.13L74.567 260.853L65.7231 258.356C74.5143 246.145 78.6989 222.092 76.4044 202.629C76.2286 201.16 76.1231 199.78 76.044 198.462C75.1648 182.409 81.8374 177.714 87.4725 170.62C93.6264 162.936 107.323 133.925 107.323 127.059C107.323 120.193 124.51 103.385 120.686 84.3077C120.686 84.3077 125.881 81.0813 131.103 83.7275C133.477 84.9231 135.842 87.3231 137.749 91.7715C142.224 102.224 135.938 131.771 130.593 139.015L120.299 181.635C120.299 181.635 123.771 187.622 127.182 198.488C130.573 209.473 132.644 220.824 133.354 232.299Z" fill="#C1886F"/>
<path opacity="0.4" d="M76.044 198.462C78.9187 206.33 81.9692 211.648 81.7055 222.673C81.4418 233.697 75.5516 250.664 77.2308 259.481C76.2716 259.764 75.3758 260.23 74.5934 260.853L65.7495 258.356C74.5407 246.145 78.7253 222.092 76.4308 202.629C76.2286 201.16 76.1231 199.78 76.044 198.462Z" fill="#A47A68"/>
<path opacity="0.4" d="M130.593 139.015L120.299 181.635C120.299 181.635 123.771 187.622 127.182 198.488C120.211 187.253 114.286 183.895 114.286 183.895C118.927 178.33 122.505 137.626 122.505 137.626C122.505 137.626 137.055 120.527 135.692 102.637C135.255 96.1178 133.703 89.7222 131.103 83.7275C133.477 84.9231 135.842 87.3231 137.749 91.7714C142.224 102.224 135.938 131.771 130.593 139.015Z" fill="#A47A68"/>
<path d="M65.7231 258.356C74.5143 246.145 78.6989 222.092 76.4132 202.629C74.1275 183.165 81.3714 178.295 87.4813 170.611C93.5912 162.927 107.323 133.925 107.323 127.051C107.323 120.176 124.501 103.393 120.686 84.3077C120.686 84.3077 131.648 77.5121 137.749 91.7714C142.224 102.233 135.938 131.771 130.593 139.024L120.308 181.635C120.308 181.635 131.288 200.58 133.354 232.299C134.673 252.563 125.284 275.138 125.284 275.138" stroke="#37474F" stroke-linecap="round" stroke-linejoin="round"/>
<path d="M99.6219 291.349C99.6219 291.349 111.165 298.453 117.899 309.688" stroke="#37474F" stroke-linecap="round" stroke-linejoin="round"/>
<path d="M132.044 304.791C132.044 304.791 122.101 306.207 113.116 295.455C107.358 288.571 89.8725 285.459 85.8637 267.455" stroke="#37474F" stroke-linecap="round" stroke-linejoin="round"/>
<path d="M183.244 219.78V216.583H183.632V219.436H185.117V219.78H183.244ZM186.641 219.83C186.425 219.83 186.235 219.778 186.071 219.676C185.909 219.573 185.782 219.429 185.691 219.243C185.6 219.058 185.554 218.841 185.554 218.593C185.554 218.344 185.6 218.126 185.691 217.939C185.782 217.754 185.909 217.609 186.071 217.506C186.235 217.403 186.425 217.351 186.641 217.351C186.857 217.351 187.047 217.403 187.209 217.506C187.372 217.609 187.5 217.754 187.59 217.939C187.682 218.126 187.727 218.344 187.727 218.593C187.727 218.841 187.682 219.058 187.59 219.243C187.5 219.429 187.372 219.573 187.209 219.676C187.047 219.778 186.857 219.83 186.641 219.83ZM186.641 219.499C186.805 219.499 186.941 219.457 187.047 219.372C187.153 219.288 187.232 219.177 187.283 219.04C187.334 218.903 187.359 218.754 187.359 218.593C187.359 218.433 187.334 218.284 187.283 218.146C187.232 218.007 187.153 217.895 187.047 217.81C186.941 217.725 186.805 217.682 186.641 217.682C186.476 217.682 186.341 217.725 186.235 217.81C186.129 217.895 186.05 218.007 185.999 218.146C185.948 218.284 185.923 218.433 185.923 218.593C185.923 218.754 185.948 218.903 185.999 219.04C186.05 219.177 186.129 219.288 186.235 219.372C186.341 219.457 186.476 219.499 186.641 219.499ZM189.257 220.729C189.08 220.729 188.927 220.706 188.798 220.66C188.671 220.615 188.564 220.556 188.478 220.483C188.394 220.41 188.327 220.331 188.277 220.248L188.571 220.042C188.604 220.086 188.646 220.136 188.697 220.193C188.748 220.25 188.818 220.299 188.906 220.34C188.996 220.383 189.113 220.404 189.257 220.404C189.451 220.404 189.611 220.358 189.736 220.264C189.863 220.171 189.925 220.024 189.925 219.824V219.337H189.895C189.867 219.38 189.829 219.435 189.778 219.499C189.73 219.562 189.659 219.619 189.567 219.669C189.475 219.718 189.351 219.742 189.195 219.742C189.001 219.742 188.827 219.697 188.673 219.605C188.52 219.514 188.399 219.38 188.31 219.205C188.222 219.031 188.178 218.818 188.178 218.569C188.178 218.324 188.221 218.109 188.307 217.927C188.393 217.744 188.513 217.603 188.667 217.502C188.821 217.401 189 217.351 189.201 217.351C189.357 217.351 189.481 217.378 189.573 217.429C189.665 217.48 189.736 217.538 189.785 217.604C189.835 217.669 189.873 217.721 189.901 217.764H189.938V217.383H190.294V219.849C190.294 220.055 190.247 220.222 190.153 220.352C190.061 220.482 189.936 220.577 189.778 220.637C189.623 220.698 189.449 220.729 189.257 220.729ZM189.245 219.412C189.393 219.412 189.517 219.378 189.619 219.31C189.721 219.242 189.799 219.145 189.852 219.018C189.905 218.891 189.931 218.739 189.931 218.563C189.931 218.389 189.906 218.237 189.854 218.105C189.801 217.973 189.725 217.869 189.623 217.794C189.521 217.72 189.395 217.682 189.245 217.682C189.089 217.682 188.959 217.721 188.855 217.8C188.752 217.88 188.674 217.986 188.622 218.12C188.571 218.252 188.546 218.4 188.546 218.563C188.546 218.729 188.571 218.876 188.623 219.004C188.677 219.131 188.755 219.231 188.858 219.304C188.962 219.376 189.091 219.412 189.245 219.412ZM190.968 219.78V217.383H191.336V219.78H190.968ZM191.155 216.983C191.084 216.983 191.022 216.958 190.97 216.91C190.919 216.861 190.893 216.802 190.893 216.733C190.893 216.665 190.919 216.606 190.97 216.556C191.022 216.508 191.084 216.484 191.155 216.484C191.227 216.484 191.289 216.508 191.34 216.556C191.392 216.606 191.418 216.665 191.418 216.733C191.418 216.802 191.392 216.861 191.34 216.91C191.289 216.958 191.227 216.983 191.155 216.983ZM192.38 218.338V219.78H192.011V217.383H192.367V217.757H192.398C192.455 217.635 192.54 217.538 192.654 217.464C192.769 217.389 192.917 217.351 193.098 217.351C193.26 217.351 193.402 217.385 193.524 217.451C193.646 217.516 193.741 217.617 193.807 217.751C193.875 217.884 193.909 218.053 193.909 218.257V219.78H193.541V218.281C193.541 218.093 193.492 217.946 193.394 217.842C193.297 217.735 193.162 217.682 192.992 217.682C192.874 217.682 192.769 217.707 192.676 217.758C192.585 217.809 192.513 217.884 192.459 217.982C192.406 218.08 192.38 218.199 192.38 218.338Z" fill="#FF742B"/>
<path opacity="0.2" d="M276.554 390.558C251.103 378.382 266.514 368.624 231.499 353.512C196.484 338.4 196.132 325.486 200.352 295.789C204.571 266.092 201.231 234.506 211.411 231.824C221.591 229.143 203.446 188.185 215.314 173.706L273.723 287.323L276.554 390.558Z" fill="black" fill-opacity="0.7"/>
<path d="M371.385 389.371C370.189 385.952 368.976 382.215 368.035 378.822C366.822 374.426 365.873 370.91 363.64 366.822C363.288 366.171 362.91 365.486 362.488 364.747C360.106 360.501 356.844 354.69 354.936 347.552C353.653 342.743 354.936 330.901 356.132 319.42C357.011 311.174 357.811 303.393 357.574 298.98L357.503 297.415C356.906 285.873 355.657 261.855 353.108 255.218C350.602 248.818 348.264 247.859 344 246.154C343.56 245.96 343.121 245.785 342.611 245.574C341.011 244.906 338.286 243.499 335.147 241.873C328.07 238.207 319.262 233.644 314.787 233.081C310.6 232.611 306.367 232.807 302.242 233.662C296.73 229.433 287.349 223.991 284.554 223.877C282.268 223.763 277.275 225.196 274.884 225.943L273.679 226.33C272.165 225.155 270.56 224.103 268.879 223.182C268.765 223.121 268.651 223.077 268.554 223.033C265.451 221.758 260.765 221.714 258.207 221.785C257.433 221.785 256.826 221.864 256.554 221.89C251.728 214.462 246.98 207.068 244.914 203.824C240.607 197.002 227.27 168.932 227.139 168.659C227.123 168.623 227.099 168.592 227.068 168.567C227.037 168.542 227.001 168.526 226.963 168.519C226.921 168.513 226.88 168.513 226.84 168.519C225.802 168.22 218.163 166.277 215.095 173.679C211.736 181.741 216.528 199.437 221.204 205.864C223.455 208.958 229.6 221.582 235.833 234.646C234.233 236.132 221.433 247.956 215.218 250.163C210.128 251.965 211.323 278.057 212.281 299.007C212.642 306.743 212.941 313.398 212.853 317.398C212.677 325.134 226.752 335.789 240.396 346.092C252.703 355.429 265.468 365.073 266.963 372.079C267.376 374.048 268.554 375.648 269.96 377.451C272.308 380.44 275.332 383.965 276.615 390.637C276.993 392.642 280.211 395.262 282.769 399.543H375.112C374.339 397.459 372.879 393.662 371.385 389.371ZM243.323 250.382C247.798 259.754 250.567 265.327 251.235 265.952C251.903 266.576 251.859 269.547 251.842 272.44C251.745 274.971 251.833 277.507 252.106 280.026C251.015 280.985 244.132 287.253 242.743 292.334L236.897 285.451L235.42 263.851C236.299 262.919 242.312 256.563 243.323 250.382Z" fill="#C1886F"/>
<path opacity="0.4" d="M344.888 310.602C347.059 330.866 347.086 341.855 349.521 347.719C353.635 357.618 359.692 359.622 359.692 359.622C357.678 355.785 356.077 351.745 354.919 347.569C353.644 342.76 354.919 330.919 356.114 319.437C356.993 311.191 357.802 303.402 357.574 298.989L357.494 297.424C356.897 285.89 355.648 261.873 353.099 255.226C350.602 248.826 348.255 247.868 343.991 246.154C343.552 245.969 343.112 245.793 342.602 245.582C341.002 244.914 338.286 243.508 335.138 241.881C328.061 238.215 319.253 233.653 314.778 233.09C310.592 232.614 306.357 232.811 302.233 233.67C296.721 229.442 287.341 224 284.545 223.886C282.259 223.771 276.062 225.574 273.653 226.338C284.202 234.945 299.393 245.679 299.393 245.679C311.411 248.07 309.872 253.283 314.734 256.229C319.13 258.866 323.332 251.147 327.042 250.47C331.894 249.591 337.407 254.708 337.16 260.914C336.404 278.013 343.024 293.204 344.888 310.602Z" fill="#B5836C"/>
<path opacity="0.4" d="M284.141 247.807C284.141 247.807 274.62 239.895 270.075 237.257C265.53 234.62 264.8 225.53 268.387 223.323C268.523 223.241 268.677 223.193 268.835 223.182L268.51 223.033C265.407 221.758 260.721 221.706 258.163 221.785C263.437 231.604 267.648 239.138 268.782 240.791C272.607 246.312 284.141 247.807 284.141 247.807Z" fill="#B5836C"/>
<path opacity="0.4" d="M269.697 370.848C270.101 368.747 266.637 362.593 265.117 360.097C261.662 354.4 221.547 318.954 227.358 309.494C233.169 300.035 238.479 307.033 242.154 307.648C244.791 308.088 252.035 303.771 252 303.411C251.174 296.123 257.899 291.385 257.899 291.385C257.899 291.385 257.284 262.374 255.736 262.866C254.189 263.358 235.675 219.305 235.675 219.305C235.675 219.305 216.106 193.284 217.213 181.143C218.321 169.002 226.813 168.791 226.813 168.791V168.466C225.776 168.167 218.136 166.224 215.068 173.626C211.71 181.688 216.501 199.385 221.178 205.811C223.429 208.905 229.574 221.53 235.807 234.593C234.207 236.079 221.407 247.903 215.191 250.11C210.101 251.912 211.297 278.004 212.255 298.954C212.615 306.69 212.914 313.345 212.826 317.345C212.651 325.081 226.725 335.736 240.369 346.04C252.677 355.376 265.442 365.02 266.936 372.026C267.35 373.996 268.528 375.596 269.934 377.398C269.654 375.226 269.575 373.034 269.697 370.848ZM243.323 250.409C247.798 259.78 250.567 265.354 251.235 265.978C251.903 266.602 251.859 269.574 251.842 272.466C251.745 274.998 251.833 277.533 252.106 280.053C251.015 281.011 244.132 287.279 242.743 292.36L236.897 285.477L235.42 263.877C236.299 262.919 242.312 256.563 243.323 250.382V250.409Z" fill="#B5836C"/>
<path d="M278.681 247.692C274.753 246.456 271.301 244.037 268.8 240.765C264.782 235.385 249.002 210.875 244.633 203.965C240.264 197.055 226.813 168.791 226.813 168.791C226.813 168.791 218.549 166.022 215.332 173.741C212.114 181.459 216.519 198.901 221.415 205.618C226.312 212.334 249.582 264.053 251.429 265.723C253.275 267.393 250.506 281.196 254.207 284.536" stroke="#263238" stroke-linecap="round" stroke-linejoin="round"/>
<path d="M252.431 280.149C252.431 280.149 243.903 287.578 242.901 293.002L236.571 285.556L235.077 263.736C235.077 263.736 242.716 256.088 243.138 249.284" stroke="#263238" stroke-linecap="round" stroke-linejoin="round"/>
<path d="M236.158 234.62C236.158 234.62 221.996 247.982 215.261 250.365C208.527 252.747 213.442 302.813 213.108 317.31C212.774 331.807 264.053 357.064 267.2 371.903C268.448 377.811 273.618 379.015 276.774 390.365" stroke="#263238" stroke-linecap="round" stroke-linejoin="round"/>
<path d="M256.316 222.18C256.316 222.18 264.026 221.486 268.369 223.297C272.712 225.108 290.347 240.255 294.602 243.147C298.857 246.04 305.257 247.138 306.47 250.259" stroke="#263238" stroke-linecap="round" stroke-linejoin="round"/>
<path d="M273.556 226.646C273.556 226.646 281.468 224.009 284.492 224.158C287.516 224.308 298.892 231.015 303.991 235.499C307.898 238.965 312.398 241.699 317.275 243.569" stroke="#263238" stroke-linecap="round" stroke-linejoin="round"/>
<path d="M302.136 233.978C306.265 233.089 310.513 232.884 314.708 233.371C321.143 234.251 337.301 243.745 342.453 245.89C347.604 248.035 350.066 248.431 352.774 255.358C355.481 262.286 356.721 288.624 357.266 299.033C357.811 309.442 352.387 339.253 354.629 347.64C356.87 356.026 360.914 362.497 363.367 366.98" stroke="#263238" stroke-linecap="round" stroke-linejoin="round"/>
<path d="M235.077 263.736C235.077 263.736 233.846 258.593 232.088 257.934" stroke="#263238" stroke-linecap="round" stroke-linejoin="round"/>
<path d="M236.571 285.556C237.164 288.554 237.967 291.506 238.971 294.391C240.237 297.512 238.268 302.031 238.268 302.031" stroke="#263238" stroke-linecap="round" stroke-linejoin="round"/>
<path d="M242.901 293.002C242.699 297.996 247.666 303.833 248.87 303.007" stroke="#263238" stroke-linecap="round" stroke-linejoin="round"/>
<path d="M268.193 263.736C268.193 263.736 273.53 255.103 278.646 254.681C283.763 254.259 289.67 261.521 292.826 260.835C295.982 260.149 299.956 255.508 305.266 254.681C310.576 253.855 313.064 256.387 317.275 256.598C321.486 256.809 321.916 251.182 326.945 250.444C331.974 249.705 333.688 252.202 337.064 252.853C340.44 253.503 341.283 250.84 344.018 249.336" stroke="#263238" stroke-linecap="round" stroke-linejoin="round"/>
<path d="M143.085 87.033V79.3609H146.112C146.694 79.3609 147.189 79.4716 147.598 79.6941C148.008 79.9138 148.32 80.2198 148.535 80.6119C148.753 81.0013 148.862 81.4514 148.862 81.9604C148.862 82.4703 148.752 82.9195 148.532 83.309C148.312 83.6984 147.993 84.0026 147.576 84.2198C147.161 84.4369 146.659 84.545 146.07 84.545H144.141V83.2457H145.808C146.12 83.2457 146.377 83.1921 146.579 83.0848C146.784 82.9749 146.937 82.8237 147.036 82.6312C147.139 82.436 147.19 82.2127 147.19 81.9604C147.19 81.7055 147.139 81.4831 147.036 81.2941C146.937 81.1015 146.784 80.953 146.579 80.8475C146.375 80.7402 146.115 80.6866 145.8 80.6866H144.707V87.033H143.085ZM149.915 87.033V79.3609H151.537V82.5266H154.83V79.3609H156.448V87.033H154.83V83.8637H151.537V87.033H149.915ZM164.836 83.1965C164.836 84.0334 164.678 84.7455 164.36 85.3319C164.046 85.9191 163.616 86.3675 163.072 86.6769C162.529 86.9846 161.92 87.1376 161.243 87.1376C160.562 87.1376 159.95 86.9828 159.407 86.6734C158.866 86.3639 158.438 85.9156 158.123 85.3283C157.808 84.7411 157.651 84.0308 157.651 83.1965C157.651 82.3604 157.808 81.6483 158.123 81.0611C158.438 80.4747 158.866 80.0272 159.407 79.7204C159.95 79.411 160.562 79.2554 161.243 79.2554C161.92 79.2554 162.529 79.411 163.072 79.7204C163.616 80.0272 164.046 80.4747 164.36 81.0611C164.678 81.6483 164.836 82.3604 164.836 83.1965ZM163.191 83.1965C163.191 82.6549 163.11 82.1978 162.948 81.8259C162.789 81.4532 162.562 81.171 162.27 80.9793C161.978 80.7868 161.635 80.691 161.243 80.691C160.851 80.691 160.509 80.7868 160.217 80.9793C159.924 81.171 159.698 81.4532 159.535 81.8259C159.375 82.1978 159.296 82.6549 159.296 83.1965C159.296 83.7389 159.375 84.196 159.535 84.5679C159.698 84.9398 159.924 85.222 160.217 85.4145C160.509 85.607 160.851 85.7028 161.243 85.7028C161.635 85.7028 161.978 85.607 162.27 85.4145C162.562 85.222 162.789 84.9398 162.948 84.5679C163.11 84.196 163.191 83.7389 163.191 83.1965ZM172.455 79.3609V87.033H171.054L167.716 82.2039H167.66V87.033H166.038V79.3609H167.461L170.773 84.1855H170.84V79.3609H172.455ZM173.795 87.033V79.3609H178.965V80.698H175.417V82.5266H178.699V83.8637H175.417V85.6958H178.98V87.033H173.795ZM189.114 79.3609V87.033H187.713L184.375 82.2039H184.318V87.033H182.696V79.3609H184.12L187.431 84.1855H187.499V79.3609H189.114ZM195.193 79.3609H196.815V84.3428C196.815 84.9028 196.681 85.3925 196.414 85.8119C196.149 86.2312 195.778 86.5582 195.302 86.793C194.825 87.025 194.269 87.142 193.634 87.142C192.998 87.142 192.44 87.025 191.964 86.793C191.487 86.5582 191.116 86.2312 190.851 85.8119C190.586 85.3925 190.454 84.9028 190.454 84.3428V79.3609H192.076V84.2048C192.076 84.4967 192.14 84.7569 192.267 84.9837C192.397 85.2114 192.579 85.3899 192.814 85.5191C193.049 85.6492 193.322 85.7143 193.634 85.7143C193.949 85.7143 194.222 85.6492 194.455 85.5191C194.69 85.3899 194.87 85.2114 194.998 84.9837C195.128 84.7569 195.193 84.4967 195.193 84.2048V79.3609ZM198.149 79.3609H200.15L202.263 84.5152H202.353L204.466 79.3609H206.466V87.033H204.893V82.0395H204.829L202.844 86.9952H201.772L199.786 82.0202H199.723V87.033H198.149V79.3609ZM214.22 79.3609V87.033H212.819L209.481 82.2039H209.425V87.033H207.803V79.3609H209.226L212.538 84.1855H212.606V79.3609H214.22ZM215.56 87.033V79.3609H218.632C219.196 79.3609 219.668 79.4444 220.045 79.6114C220.422 79.7793 220.705 80.0114 220.895 80.3086C221.085 80.6031 221.18 80.9424 221.18 81.3275C221.18 81.6272 221.12 81.891 221 82.1178C220.88 82.3428 220.716 82.5275 220.505 82.6725C220.298 82.8149 220.061 82.916 219.793 82.9758V83.0505C220.086 83.0628 220.36 83.1455 220.615 83.2976C220.871 83.4505 221.08 83.6642 221.24 83.9385C221.4 84.211 221.48 84.5354 221.48 84.9125C221.48 85.3195 221.378 85.6826 221.176 86.0026C220.976 86.32 220.68 86.5705 220.288 86.756C219.896 86.9406 219.413 87.033 218.839 87.033H215.56ZM217.182 85.7064H218.505C218.957 85.7064 219.287 85.6202 219.494 85.4479C219.701 85.2738 219.805 85.0409 219.805 84.7516C219.805 84.5389 219.754 84.3516 219.651 84.1899C219.549 84.0272 219.403 83.8998 219.213 83.8075C219.026 83.7152 218.802 83.6686 218.542 83.6686H217.182V85.7064ZM217.182 82.5714H218.385C218.607 82.5714 218.804 82.5327 218.977 82.4554C219.152 82.3754 219.289 82.2628 219.389 82.1178C219.492 81.9727 219.543 81.7995 219.543 81.5974C219.543 81.3195 219.444 81.0963 219.247 80.9266C219.052 80.7569 218.775 80.6716 218.415 80.6716H217.182V82.5714ZM222.535 87.033V79.3609H227.705V80.698H224.157V82.5266H227.439V83.8637H224.157V85.6958H227.72V87.033H222.535ZM228.994 87.033V79.3609H232.021C232.6 79.3609 233.095 79.4646 233.505 79.6712C233.917 79.876 234.23 80.167 234.445 80.5442C234.663 80.9187 234.771 81.36 234.771 81.8672C234.771 82.3763 234.661 82.8149 234.441 83.1815C234.222 83.5464 233.903 83.8259 233.487 84.0211C233.072 84.2154 232.57 84.313 231.98 84.313H229.953V83.0092H231.718C232.027 83.0092 232.285 82.967 232.49 82.8817C232.695 82.7973 232.847 82.6699 232.947 82.5002C233.049 82.3305 233.101 82.1195 233.101 81.8672C233.101 81.6123 233.049 81.3969 232.947 81.2228C232.847 81.0479 232.694 80.9152 232.486 80.8255C232.281 80.7332 232.023 80.6866 231.711 80.6866H230.616V87.033H228.994ZM233.138 83.5411L235.044 87.033H233.254L231.388 83.5411H233.138Z" fill="black"/>
<path d="M143.684 165.275V162.078H144.764C145.015 162.078 145.22 162.123 145.379 162.214C145.539 162.303 145.658 162.425 145.735 162.578C145.812 162.731 145.851 162.901 145.851 163.089C145.851 163.277 145.812 163.449 145.735 163.603C145.659 163.757 145.541 163.88 145.382 163.971C145.223 164.062 145.019 164.107 144.77 164.107H143.996V163.764H144.758C144.929 163.764 145.067 163.735 145.171 163.675C145.276 163.616 145.351 163.535 145.398 163.435C145.445 163.333 145.47 163.218 145.47 163.089C145.47 162.962 145.445 162.847 145.398 162.746C145.351 162.645 145.275 162.566 145.17 162.509C145.065 162.45 144.926 162.421 144.752 162.421H144.071V165.275H143.684ZM146.792 163.832V165.275H146.424V162.078H146.792V163.252H146.824C146.88 163.128 146.964 163.029 147.077 162.956C147.19 162.883 147.341 162.846 147.529 162.846C147.692 162.846 147.836 162.879 147.959 162.944C148.081 163.008 148.177 163.109 148.244 163.242C148.313 163.376 148.347 163.545 148.347 163.751V165.275H147.979V163.776C147.979 163.586 147.93 163.438 147.83 163.335C147.733 163.229 147.596 163.177 147.423 163.177C147.302 163.177 147.194 163.203 147.098 163.254C147.004 163.305 146.928 163.378 146.874 163.477C146.819 163.575 146.792 163.693 146.792 163.832ZM149.995 165.325C149.778 165.325 149.589 165.273 149.425 165.17C149.263 165.067 149.136 164.923 149.044 164.738C148.954 164.553 148.909 164.336 148.909 164.089C148.909 163.838 148.954 163.62 149.044 163.435C149.136 163.248 149.263 163.103 149.425 163C149.589 162.898 149.778 162.846 149.995 162.846C150.212 162.846 150.401 162.898 150.564 163C150.727 163.103 150.854 163.248 150.944 163.435C151.036 163.62 151.081 163.838 151.081 164.089C151.081 164.336 151.036 164.553 150.944 164.738C150.854 164.923 150.727 165.067 150.564 165.17C150.401 165.273 150.212 165.325 149.995 165.325ZM149.995 164.993C150.159 164.993 150.295 164.951 150.401 164.868C150.507 164.783 150.586 164.673 150.636 164.535C150.687 164.397 150.713 164.249 150.713 164.089C150.713 163.928 150.687 163.778 150.636 163.64C150.586 163.502 150.507 163.39 150.401 163.305C150.295 163.219 150.159 163.177 149.995 163.177C149.83 163.177 149.695 163.219 149.589 163.305C149.483 163.39 149.405 163.502 149.354 163.64C149.303 163.778 149.277 163.928 149.277 164.089C149.277 164.249 149.303 164.397 149.354 164.535C149.405 164.673 149.483 164.783 149.589 164.868C149.695 164.951 149.83 164.993 149.995 164.993ZM152.012 163.832V165.275H151.644V162.877H152V163.252H152.031C152.087 163.13 152.172 163.032 152.287 162.958C152.402 162.884 152.549 162.846 152.731 162.846C152.892 162.846 153.035 162.879 153.156 162.946C153.278 163.011 153.373 163.111 153.441 163.246C153.508 163.378 153.542 163.547 153.542 163.751V165.275H153.174V163.776C153.174 163.588 153.124 163.441 153.027 163.336C152.929 163.23 152.795 163.177 152.624 163.177C152.506 163.177 152.402 163.203 152.309 163.254C152.217 163.305 152.145 163.378 152.091 163.477C152.039 163.575 152.012 163.693 152.012 163.832ZM155.22 165.325C154.989 165.325 154.79 165.274 154.622 165.172C154.456 165.069 154.327 164.925 154.237 164.741C154.148 164.556 154.103 164.34 154.103 164.095C154.103 163.849 154.148 163.633 154.237 163.445C154.327 163.257 154.454 163.11 154.615 163.005C154.777 162.899 154.966 162.846 155.183 162.846C155.308 162.846 155.431 162.867 155.553 162.908C155.675 162.95 155.786 163.018 155.886 163.111C155.985 163.204 156.065 163.327 156.124 163.48C156.184 163.633 156.213 163.821 156.213 164.045V164.2H154.365V163.882H155.838C155.838 163.747 155.811 163.626 155.757 163.52C155.705 163.415 155.628 163.33 155.53 163.269C155.431 163.208 155.316 163.177 155.183 163.177C155.036 163.177 154.909 163.213 154.802 163.286C154.696 163.358 154.615 163.451 154.557 163.567C154.499 163.683 154.471 163.807 154.471 163.938V164.151C154.471 164.332 154.502 164.485 154.564 164.611C154.629 164.736 154.717 164.832 154.828 164.897C154.941 164.962 155.072 164.993 155.22 164.993C155.317 164.993 155.405 164.98 155.482 164.953C155.561 164.925 155.63 164.884 155.687 164.828C155.744 164.772 155.788 164.702 155.82 164.619L156.176 164.719C156.138 164.84 156.076 164.946 155.987 165.037C155.898 165.128 155.789 165.199 155.659 165.25C155.529 165.299 155.383 165.325 155.22 165.325ZM158.378 163.832V165.275H158.01V162.877H158.366V163.252H158.396C158.453 163.13 158.538 163.032 158.653 162.958C158.767 162.884 158.915 162.846 159.096 162.846C159.259 162.846 159.4 162.879 159.523 162.946C159.644 163.011 159.739 163.111 159.807 163.246C159.874 163.378 159.908 163.547 159.908 163.751V165.275H159.539V163.776C159.539 163.588 159.49 163.441 159.393 163.336C159.295 163.23 159.16 163.177 158.99 163.177C158.872 163.177 158.767 163.203 158.674 163.254C158.583 163.305 158.511 163.378 158.458 163.477C158.404 163.575 158.378 163.693 158.378 163.832ZM162.092 164.295V162.877H162.461V165.275H162.092V164.869H162.067C162.011 164.991 161.924 165.095 161.805 165.18C161.686 165.264 161.537 165.306 161.356 165.306C161.205 165.306 161.073 165.273 160.956 165.208C160.839 165.141 160.747 165.041 160.681 164.908C160.615 164.774 160.581 164.605 160.581 164.401V162.877H160.949V164.375C160.949 164.55 160.999 164.69 161.096 164.794C161.195 164.898 161.32 164.95 161.473 164.95C161.566 164.95 161.659 164.927 161.753 164.88C161.849 164.833 161.929 164.761 161.994 164.665C162.059 164.568 162.092 164.444 162.092 164.295ZM163.135 165.275V162.877H163.491V163.252H163.522C163.572 163.124 163.653 163.024 163.764 162.954C163.875 162.882 164.009 162.846 164.165 162.846C164.324 162.846 164.455 162.882 164.56 162.954C164.666 163.024 164.749 163.124 164.809 163.252H164.833C164.895 163.128 164.987 163.029 165.109 162.956C165.233 162.883 165.379 162.846 165.552 162.846C165.766 162.846 165.941 162.913 166.077 163.047C166.214 163.181 166.282 163.388 166.282 163.67V165.275H165.914V163.67C165.914 163.493 165.866 163.367 165.769 163.291C165.671 163.215 165.558 163.177 165.427 163.177C165.258 163.177 165.127 163.228 165.035 163.33C164.942 163.43 164.896 163.559 164.896 163.713V165.275H164.521V163.633C164.521 163.496 164.477 163.386 164.389 163.303C164.3 163.219 164.186 163.177 164.047 163.177C163.951 163.177 163.861 163.203 163.778 163.254C163.696 163.305 163.629 163.375 163.578 163.466C163.529 163.555 163.503 163.659 163.503 163.776V165.275H163.135ZM167.006 165.275V162.078H167.374V163.258H167.405C167.432 163.217 167.47 163.163 167.517 163.099C167.567 163.033 167.636 162.975 167.727 162.924C167.818 162.872 167.942 162.846 168.098 162.846C168.3 162.846 168.478 162.897 168.632 162.997C168.786 163.098 168.906 163.241 168.993 163.427C169.079 163.611 169.122 163.83 169.122 164.082C169.122 164.336 169.079 164.556 168.993 164.743C168.906 164.927 168.787 165.072 168.634 165.174C168.481 165.274 168.304 165.325 168.105 165.325C167.95 165.325 167.827 165.299 167.735 165.248C167.642 165.196 167.57 165.138 167.521 165.072C167.471 165.005 167.432 164.95 167.405 164.906H167.361V165.275H167.006ZM167.368 164.076C167.368 164.257 167.394 164.417 167.447 164.555C167.501 164.693 167.578 164.8 167.68 164.878C167.782 164.956 167.907 164.993 168.055 164.993C168.208 164.993 168.337 164.953 168.44 164.872C168.544 164.789 168.622 164.68 168.674 164.541C168.727 164.402 168.753 164.246 168.753 164.076C168.753 163.908 168.728 163.756 168.676 163.62C168.625 163.484 168.547 163.376 168.443 163.297C168.34 163.217 168.21 163.177 168.055 163.177C167.904 163.177 167.778 163.215 167.676 163.291C167.575 163.365 167.498 163.471 167.445 163.606C167.393 163.741 167.368 163.897 167.368 164.076ZM170.691 165.325C170.46 165.325 170.26 165.274 170.093 165.172C169.926 165.069 169.798 164.925 169.707 164.741C169.618 164.556 169.573 164.34 169.573 164.095C169.573 163.849 169.618 163.633 169.707 163.445C169.798 163.257 169.924 163.11 170.085 163.005C170.248 162.899 170.437 162.846 170.653 162.846C170.778 162.846 170.901 162.867 171.023 162.908C171.145 162.95 171.256 163.018 171.356 163.111C171.456 163.204 171.535 163.327 171.595 163.48C171.654 163.633 171.684 163.821 171.684 164.045V164.2H169.836V163.882H171.309C171.309 163.747 171.282 163.626 171.228 163.52C171.175 163.415 171.099 163.33 171 163.269C170.902 163.208 170.787 163.177 170.653 163.177C170.506 163.177 170.38 163.213 170.273 163.286C170.166 163.358 170.084 163.451 170.027 163.567C169.97 163.683 169.942 163.807 169.942 163.938V164.151C169.942 164.332 169.973 164.485 170.035 164.611C170.098 164.736 170.186 164.832 170.299 164.897C170.411 164.962 170.542 164.993 170.691 164.993C170.788 164.993 170.875 164.98 170.953 164.953C171.032 164.925 171.101 164.884 171.158 164.828C171.215 164.772 171.259 164.702 171.291 164.619L171.646 164.719C171.609 164.84 171.546 164.946 171.458 165.037C171.369 165.128 171.26 165.199 171.13 165.25C171 165.299 170.853 165.325 170.691 165.325ZM172.244 165.275V162.877H172.6V163.24H172.625C172.668 163.121 172.747 163.024 172.862 162.95C172.977 162.876 173.106 162.84 173.249 162.84C173.276 162.84 173.31 162.84 173.35 162.841C173.392 162.842 173.422 162.844 173.443 162.846V163.22C173.43 163.218 173.401 163.212 173.356 163.206C173.313 163.199 173.267 163.196 173.218 163.196C173.102 163.196 172.997 163.22 172.906 163.269C172.815 163.317 172.744 163.384 172.69 163.469C172.638 163.553 172.613 163.649 172.613 163.757V165.275H172.244Z" fill="black"/>
</svg>
