<svg width="15" height="19" viewBox="0 0 15 19" fill="none" xmlns="http://www.w3.org/2000/svg">
<path d="M9.50202 7.50202C9.50202 7.89758 9.38472 8.28426 9.16496 8.61316C8.9452 8.94206 8.63284 9.1984 8.26739 9.34978C7.90193 9.50115 7.4998 9.54076 7.11184 9.46359C6.72388 9.38642 6.36751 9.19594 6.08781 8.91623C5.8081 8.63653 5.61762 8.28016 5.54045 7.8922C5.46328 7.50424 5.50288 7.1021 5.65426 6.73665C5.80563 6.3712 6.06198 6.05884 6.39088 5.83908C6.71978 5.61932 7.10646 5.50202 7.50202 5.50202C8.03197 5.5036 8.53975 5.71482 8.91448 6.08955C9.28921 6.46428 9.50044 6.97207 9.50202 7.50202ZM15.002 7.50202C15.002 13.582 10.332 17.392 8.33202 18.742C8.08976 18.9142 7.7992 19.0052 7.50202 19.002C7.20194 19.0038 6.90862 18.913 6.66202 18.742C4.66202 17.392 0.00201887 13.592 0.00201887 7.50202C-0.0212506 6.51074 0.156839 5.52505 0.525513 4.60459C0.894186 3.68413 1.44578 2.84804 2.14691 2.14691C2.84804 1.44578 3.68413 0.894186 4.60459 0.525513C5.52505 0.15684 6.51074 -0.0212506 7.50202 0.00201887C8.49307 -0.0203956 9.47838 0.15828 10.3985 0.527255C11.3185 0.896231 12.1543 1.44785 12.8552 2.14881C13.5562 2.84976 14.1078 3.68551 14.4768 4.60559C14.8458 5.52566 15.0244 6.51097 15.002 7.50202ZM11.502 7.50202C11.502 6.71089 11.2674 5.93753 10.8279 5.27974C10.3884 4.62194 9.76366 4.10925 9.03275 3.8065C8.30185 3.50375 7.49758 3.42454 6.72166 3.57888C5.94573 3.73322 5.233 4.11418 4.67359 4.67359C4.11418 5.233 3.73322 5.94573 3.57888 6.72166C3.42454 7.49758 3.50375 8.30185 3.8065 9.03275C4.10925 9.76366 4.62194 10.3884 5.27974 10.8279C5.93754 11.2674 6.71089 11.502 7.50202 11.502C8.56288 11.502 9.5803 11.0806 10.3304 10.3304C11.0806 9.5803 11.502 8.56288 11.502 7.50202Z" fill="#8383B6"/>
</svg>
