<svg width="18" height="18" viewBox="0 0 18 18" fill="none" xmlns="http://www.w3.org/2000/svg">
<g clip-path="url(#clip0_160_37)">
<path d="M5.23685 6.36914H6.89997C6.94483 6.36914 6.98787 6.38698 7.0196 6.41871C7.05133 6.45044 7.06917 6.49348 7.06917 6.53834V7.6492C7.06917 7.69408 7.05133 7.73712 7.0196 7.76885C6.98787 7.80058 6.94485 7.8184 6.89997 7.8184H5.23683C5.19195 7.8184 5.14892 7.80058 5.1172 7.76885C5.08547 7.73712 5.06763 7.69408 5.06763 7.6492V6.53836C5.06763 6.51613 5.07202 6.49413 5.0805 6.4736C5.08901 6.45307 5.10147 6.43442 5.1172 6.41871C5.1329 6.40299 5.15155 6.39052 5.17209 6.38202C5.19262 6.37353 5.21461 6.36914 5.23685 6.36914Z" fill="white"/>
<path d="M8.34767 6.36914H10.0108C10.0557 6.36914 10.0987 6.38698 10.1304 6.41871C10.1622 6.45044 10.18 6.49348 10.18 6.53834V7.6492C10.18 7.69408 10.1622 7.73712 10.1304 7.76885C10.0987 7.80058 10.0557 7.8184 10.0108 7.8184H8.34767C8.32545 7.81842 8.30344 7.81403 8.28293 7.80554C8.26239 7.79704 8.24374 7.78457 8.22802 7.76885C8.21231 7.75314 8.19985 7.73449 8.19134 7.71396C8.18284 7.69343 8.17847 7.67143 8.17847 7.64922V6.53836C8.17847 6.51613 8.18284 6.49413 8.19134 6.4736C8.19985 6.45307 8.21231 6.43442 8.22802 6.41871C8.24374 6.40299 8.26239 6.39052 8.28291 6.38202C8.30344 6.37351 8.32545 6.36914 8.34767 6.36914Z" fill="white"/>
<path d="M11.4588 6.36914H13.1219C13.1668 6.36914 13.2098 6.38696 13.2415 6.41871C13.2732 6.45044 13.2911 6.49346 13.2911 6.53834V7.6492C13.2911 7.69406 13.2732 7.7371 13.2415 7.76883C13.2098 7.80058 13.1668 7.8184 13.1219 7.8184H11.4588C11.4139 7.8184 11.3708 7.80058 11.3391 7.76883C11.3074 7.7371 11.2896 7.69406 11.2896 7.6492V6.53834C11.2896 6.51611 11.2939 6.49411 11.3024 6.47358C11.3109 6.45307 11.3234 6.43442 11.3391 6.41869C11.3548 6.40299 11.3735 6.39052 11.394 6.38202C11.4145 6.37351 11.4365 6.36914 11.4588 6.36914Z" fill="white"/>
<path d="M2.12574 9.08008H3.78886C3.83373 9.08008 3.87677 9.09792 3.90849 9.12965C3.94022 9.16137 3.95806 9.20442 3.95806 9.2493V10.3602C3.95806 10.405 3.94022 10.4481 3.90849 10.4798C3.87677 10.5115 3.83373 10.5294 3.78886 10.5294H2.12574C2.08086 10.5294 2.03782 10.5115 2.00609 10.4798C1.97437 10.4481 1.95654 10.405 1.95654 10.3602V9.24928C1.95654 9.22706 1.96092 9.20507 1.96942 9.18454C1.97792 9.16401 1.99039 9.14535 2.00609 9.12965C2.02182 9.11392 2.04045 9.10146 2.06098 9.09297C2.08151 9.08447 2.10351 9.08008 2.12574 9.08008Z" fill="white"/>
<path d="M5.23683 9.08008H6.89995C6.94483 9.08008 6.98785 9.09792 7.0196 9.12965C7.05133 9.16137 7.06915 9.20442 7.06915 9.2493V10.3602C7.06915 10.405 7.05133 10.4481 7.0196 10.4798C6.98785 10.5115 6.94483 10.5294 6.89995 10.5294H5.23683C5.19195 10.5294 5.14892 10.5115 5.1172 10.4798C5.08547 10.4481 5.06763 10.405 5.06763 10.3602V9.24928C5.06763 9.22706 5.07202 9.20507 5.0805 9.18454C5.08901 9.16401 5.10147 9.14535 5.1172 9.12965C5.1329 9.11392 5.15155 9.10146 5.17209 9.09297C5.1926 9.08447 5.21461 9.08008 5.23683 9.08008Z" fill="white"/>
<path d="M2.12574 11.7891H3.78886C3.83373 11.7891 3.87677 11.8069 3.90849 11.8386C3.94022 11.8703 3.95806 11.9134 3.95806 11.9583V13.0691C3.95806 13.0913 3.95367 13.1133 3.94517 13.1339C3.93668 13.1544 3.92422 13.173 3.90849 13.1888C3.89279 13.2045 3.87414 13.2169 3.8536 13.2254C3.83307 13.2339 3.81108 13.2383 3.78886 13.2383H2.12574C2.08086 13.2383 2.03782 13.2205 2.00609 13.1888C1.97437 13.157 1.95654 13.114 1.95654 13.0691V11.9583C1.95654 11.936 1.96092 11.9141 1.96942 11.8935C1.97792 11.873 1.99039 11.8543 2.00609 11.8386C2.0218 11.8229 2.04045 11.8104 2.06098 11.8019C2.08151 11.7934 2.10351 11.7891 2.12574 11.7891Z" fill="white"/>
<path d="M5.23683 11.7891H6.89995C6.94483 11.7891 6.98785 11.8069 7.0196 11.8386C7.05133 11.8703 7.06915 11.9134 7.06915 11.9583V13.0691C7.06915 13.0913 7.06478 13.1133 7.05627 13.1339C7.04777 13.1544 7.0353 13.173 7.0196 13.1888C7.00387 13.2045 6.98522 13.2169 6.96469 13.2254C6.94418 13.2339 6.92216 13.2383 6.89995 13.2383H5.23683C5.19195 13.2383 5.14892 13.2205 5.1172 13.1888C5.08547 13.157 5.06763 13.114 5.06763 13.0691V11.9583C5.06763 11.936 5.07202 11.9141 5.0805 11.8935C5.08901 11.873 5.10147 11.8543 5.11718 11.8386C5.1329 11.8229 5.15155 11.8104 5.17207 11.8019C5.1926 11.7934 5.21461 11.7891 5.23683 11.7891Z" fill="white"/>
<path d="M9.70801 9.08008H8.34765C8.32543 9.08008 8.30344 9.08447 8.28291 9.09295C8.26237 9.10146 8.24372 9.11392 8.22802 9.12965C8.21231 9.14535 8.19985 9.16401 8.19134 9.18454C8.18284 9.20505 8.17847 9.22706 8.17847 9.24928V10.3601C8.17847 10.3823 8.18284 10.4043 8.19134 10.4249C8.19983 10.4454 8.21229 10.4641 8.22802 10.4798C8.24372 10.4955 8.26237 10.508 8.28291 10.5164C8.30342 10.5249 8.32543 10.5293 8.34765 10.5293H8.47681C8.79943 9.97804 9.21614 9.48755 9.70801 9.08008Z" fill="white"/>
<path d="M1.6225 15.3472H8.15123C8.03712 15.0728 7.94593 14.7894 7.8786 14.5H1.6225C1.41691 14.4997 1.21981 14.4179 1.07444 14.2725C0.929073 14.1271 0.847311 13.93 0.847094 13.7244V5.11016H14.4005V7.97882C14.6899 8.04615 14.9733 8.13734 15.2476 8.25141V3.20611C15.2476 2.77577 15.0767 2.36304 14.7724 2.05872C14.4682 1.7544 14.0554 1.58341 13.6251 1.58337H12.2828V0.692575C12.2828 0.53531 12.2203 0.384488 12.1091 0.273286C11.9979 0.162082 11.8471 0.0996094 11.6898 0.0996094C11.5326 0.0996094 11.3817 0.162082 11.2706 0.273286C11.1593 0.384488 11.0969 0.53531 11.0969 0.692575V1.58337H4.15074V0.692575C4.15074 0.53531 4.08827 0.384488 3.97707 0.273286C3.86587 0.162082 3.71504 0.0996094 3.55777 0.0996094C3.40052 0.0996094 3.24969 0.162082 3.13849 0.273286C3.02728 0.384488 2.96482 0.53531 2.96482 0.692575V1.58337H1.6225C1.19216 1.58341 0.779449 1.75439 0.475172 2.05872C0.170895 2.36304 -2.9372e-05 2.77577 6.96478e-09 3.20611V13.7244C-1.97354e-05 13.9375 0.0419321 14.1485 0.12346 14.3454C0.204988 14.5423 0.324495 14.7212 0.475158 14.8719C0.625822 15.0226 0.804691 15.1421 1.00155 15.2236C1.19841 15.3052 1.40941 15.3472 1.6225 15.3472ZM11.0969 2.43136V2.65244C11.0969 2.8097 11.1593 2.96052 11.2706 3.07173C11.3817 3.18293 11.5326 3.2454 11.6898 3.2454C11.8471 3.2454 11.9979 3.18293 12.1091 3.07173C12.2203 2.96052 12.2828 2.8097 12.2828 2.65244V2.43136C12.4575 2.55687 12.588 2.73457 12.6553 2.9389C12.7226 3.14323 12.7234 3.36366 12.6574 3.56847C12.5915 3.77325 12.4623 3.95185 12.2884 4.07854C12.1146 4.20525 11.905 4.27351 11.6898 4.27351C11.4747 4.27351 11.2651 4.20525 11.0912 4.07854C10.9173 3.95185 10.7881 3.77325 10.7222 3.56847C10.6563 3.36366 10.657 3.14323 10.7244 2.9389C10.7917 2.73457 10.9221 2.55687 11.0969 2.43136ZM2.96482 2.43136V2.65244C2.96482 2.8097 3.02728 2.96052 3.13849 3.07173C3.24969 3.18293 3.40052 3.2454 3.55777 3.2454C3.71504 3.2454 3.86587 3.18293 3.97707 3.07173C4.08827 2.96052 4.15074 2.8097 4.15074 2.65244V2.43136C4.32548 2.55687 4.45591 2.73457 4.52322 2.9389C4.59055 3.14323 4.59131 3.36366 4.5254 3.56847C4.45947 3.77325 4.33027 3.95185 4.1564 4.07854C3.98251 4.20525 3.77292 4.27351 3.55777 4.27351C3.34264 4.27351 3.13305 4.20525 2.95916 4.07854C2.78529 3.95185 2.65609 3.77325 2.59016 3.56847C2.52425 3.36366 2.525 3.14323 2.59232 2.9389C2.65965 2.73457 2.79006 2.55687 2.96482 2.43136Z" fill="white"/>
<path d="M14.6075 8.95058C10.9514 7.69165 7.38403 11.4676 8.83835 15.0504C10.7511 19.753 17.6947 18.5008 17.7823 13.3595C17.7814 12.3839 17.4744 11.4332 16.9046 10.642C16.3349 9.85082 15.5313 9.25909 14.6075 8.95058ZM15.2449 11.7999C15.2428 11.9071 15.1989 12.0092 15.1225 12.0842C15.0461 12.1593 14.9433 12.2013 14.8363 12.2013C14.7293 12.2013 14.6266 12.1593 14.5502 12.0842C14.4738 12.0091 14.4298 11.907 14.4277 11.7998V11.5174H12.4543L14.0028 13.0689C14.0407 13.1068 14.0708 13.1518 14.0913 13.2013C14.1118 13.2508 14.1223 13.3039 14.1223 13.3576C14.1223 13.4112 14.1118 13.4643 14.0913 13.5138C14.0708 13.5633 14.0407 13.6083 14.0028 13.6462L12.4543 15.2018H14.4277V14.7638C14.4294 14.6562 14.4731 14.5537 14.5495 14.4782C14.626 14.4027 14.729 14.3604 14.8364 14.3604C14.9437 14.3604 15.0467 14.4027 15.1231 14.4782C15.1996 14.5537 15.2433 14.6562 15.2449 14.7638V15.6112C15.2446 15.7197 15.2015 15.8236 15.1249 15.9003C15.0484 15.977 14.9446 16.0202 14.8364 16.0206H11.4655C11.3855 16.0186 11.3077 15.9934 11.2416 15.948C11.1756 15.9027 11.1241 15.8391 11.0934 15.765C11.0627 15.6909 11.0541 15.6095 11.0687 15.5306C11.0832 15.4517 11.1203 15.3787 11.1754 15.3205L13.1366 13.3596L11.1754 11.3946C11.1201 11.3368 11.0829 11.264 11.0682 11.1853C11.0536 11.1066 11.0622 11.0253 11.093 10.9514C11.1238 10.8775 11.1754 10.8143 11.2416 10.7694C11.3078 10.7245 11.3856 10.6999 11.4655 10.6986H14.8364C14.8901 10.6984 14.9433 10.7089 14.9929 10.7294C15.0426 10.7499 15.0877 10.7801 15.1257 10.8181C15.1637 10.8562 15.1937 10.9014 15.2142 10.9511C15.2347 11.0009 15.2451 11.0542 15.2449 11.108V11.7999Z" fill="white"/>
</g>
<defs>
<clipPath id="clip0_160_37">
<rect width="17.8022" height="18" fill="white"/>
</clipPath>
</defs>
</svg>
