<svg xmlns="http://www.w3.org/2000/svg" viewBox="0 0 87.37 32.59">
    <g id="Layer_2">
        <g id="Layer_1-2">
            <path style="fill:#fff;"
                d="M0,18.88V0H4V7c.4-1.19,2-2,4.06-2A6.28,6.28,0,0,1,12.92,7a7,7,0,0,1,1.95,5,7.11,7.11,0,0,1-1.95,5,6.37,6.37,0,0,1-4.82,2c-2.06,0-3.66-.84-4.06-2v1.78ZM9.84,14.5a3.34,3.34,0,0,0,1-2.44,3.23,3.23,0,0,0-1-2.41,3.33,3.33,0,0,0-2.47-1,3.53,3.53,0,0,0-2.55,1,3.26,3.26,0,0,0-1,2.41,3.37,3.37,0,0,0,1,2.44,3.62,3.62,0,0,0,2.55,1A3.42,3.42,0,0,0,9.84,14.5Z" />
            <path style="fill:#fff;"
                d="M16.36,12a6.82,6.82,0,0,1,2-5.15,7.22,7.22,0,0,1,5.21-2,6.61,6.61,0,0,1,5,2,6.78,6.78,0,0,1,1.93,4.9,9.37,9.37,0,0,1-.09,1.33h-10c.08,1.63,1.46,2.66,3.6,2.66a8.28,8.28,0,0,0,4.85-1.33V18a9.16,9.16,0,0,1-5.06,1.25,7.63,7.63,0,0,1-5.4-1.93,6.79,6.79,0,0,1-2-5.14Zm10.08-1.52A2.59,2.59,0,0,0,23.6,8.26a3.8,3.8,0,0,0-2.2.65,2,2,0,0,0-1,1.6Z" />
            <path style="fill:#fff;" d="M38,19.7,30.18,5.23h4.23L38,12.11l3.63-6.88h4.2Z" />
            <path style="fill:#fff;"
                d="M47,5.23H51V13a2.49,2.49,0,1,0,5,0V5.23h4.1v8.15a5.26,5.26,0,0,1-1.9,4.37,7.29,7.29,0,0,1-4.69,1.51,7.38,7.38,0,0,1-4.71-1.51A5.29,5.29,0,0,1,47,13.38Z" />
            <path style="fill:#fff;"
                d="M62.69,18.88V5.23h4V7.1a4.09,4.09,0,0,1,4-2.17A10,10,0,0,1,71.74,5v3.8a6.38,6.38,0,0,0-1.36-.14c-2.3,0-3.66,1.3-3.66,3.55v6.66Z" />
            <path style="fill:#fff;"
                d="M83.33,7V5.23h4V18.88h-4V17.1c-.4,1.19-2,2-4.06,2a6.47,6.47,0,0,1-4.85-2,7.18,7.18,0,0,1-1.93-5,7.07,7.07,0,0,1,1.93-5,6.38,6.38,0,0,1,4.85-2C81.33,5,82.93,5.83,83.33,7Zm-.81,7.48a3.29,3.29,0,0,0,1.06-2.44,3.18,3.18,0,0,0-1.06-2.41,3.41,3.41,0,0,0-2.52-1,3.33,3.33,0,0,0-2.47,1,3.23,3.23,0,0,0-1,2.41,3.34,3.34,0,0,0,1,2.44,3.42,3.42,0,0,0,2.47,1A3.5,3.5,0,0,0,82.52,14.5Z" />
            <path style="fill:#db5843;"
                d="M24.84,22.83a11.73,11.73,0,0,1-20.79,0H.25a15.2,15.2,0,0,0,28.39,0Z" />
        </g>
    </g>
</svg>