<svg width="816" height="363" viewBox="0 0 816 363" fill="none" xmlns="http://www.w3.org/2000/svg">
<g clip-path="url(#clip0_110_184)">
<path d="M77.9001 164.5C91.0001 171.5 105.8 174.9 120.7 174.4C145.7 174.4 165.8 167.9 180.8 154.8C195.8 141.7 206 122.6 211.2 97.4004L230.2 0.400391H182.9L164 94.2004C162.7 102.3 160.1 110.2 156.3 117.5C153.5 122.9 149.2 127.4 143.9 130.4C138.5 133.2 132.5 134.6 126.5 134.4C121.6 134.5 116.8 133.7 112.2 132C108.4 130.5 105.1 127.9 102.7 124.6C100.2 120.9 98.7001 116.6 98.4001 112.2C98.0001 106.2 98.5001 100.2 99.9001 94.3004L118.4 0.400391H70.2001L51.2001 95.0004C47.8001 108.9 48.6001 123.4 53.5001 136.8C58.2001 148.5 66.8001 158.3 77.9001 164.5Z" fill="white"/>
<path d="M262.9 170.901L281.5 77.5008L338 170.901H377.7L411.8 0.300781H364.6L346.1 93.8008L289.5 0.300781H249.7L215.6 170.901H262.9Z" fill="white"/>
<path d="M457.4 128.901L479.3 109.301L518.5 170.901H572.6L515.2 78.4008L602.9 0.300781H546.1L469.2 70.0008L483.2 0.300781H435.4L401.3 170.901H449L457.4 128.901Z" fill="white"/>
<path d="M635.7 170.901L655.4 137.501H727.8L734.7 170.901H783L741.6 0.300781H694L584.5 170.901H635.7ZM709.1 46.8008L720.5 102.201H676.3L709.1 46.8008Z" fill="white"/>
<path d="M201.4 332.301C211.6 337.101 222.7 339.401 233.9 339.101C244.5 339.201 255 337.401 264.9 333.701C274 330.301 282.3 325.101 289.3 318.301C296.1 311.701 301.5 303.801 305.1 295.001C308.9 285.601 310.7 275.601 310.6 265.401C310.8 255.501 308.2 245.801 303.2 237.301C298.2 229.001 290.8 222.401 282.1 218.201C271.9 213.401 260.8 211.101 249.6 211.401C239 211.301 228.5 213.101 218.5 216.801C209.5 220.201 201.2 225.401 194.3 232.201C187.5 238.801 182.1 246.801 178.5 255.501C174.7 264.901 172.8 274.901 172.9 285.101C172.7 295.001 175.3 304.801 180.4 313.301C185.4 321.401 192.7 328.001 201.4 332.301ZM210.6 266.501C212.3 261.501 214.9 256.801 218.3 252.701C221.6 248.801 225.8 245.601 230.5 243.401C235.5 241.101 241 240.001 246.6 240.101C252 239.901 257.4 241.101 262.2 243.501C266.4 245.701 269.8 249.001 272.1 253.201C274.4 257.601 275.6 262.501 275.5 267.501C275.5 273.101 274.7 278.601 273 283.901C271.4 288.901 268.8 293.601 265.4 297.701C262.1 301.601 257.9 304.801 253.2 307.001C248.1 309.301 242.6 310.401 237 310.301C231.6 310.501 226.2 309.301 221.3 306.901C217.1 304.701 213.7 301.401 211.5 297.201C209.2 292.801 208 287.901 208.1 282.901C208 277.401 208.9 271.801 210.6 266.501Z" fill="white"/>
<path d="M69 332.199C79.2 336.999 90.4 339.299 101.7 338.999C110.6 338.999 119.5 337.699 128 335.099C135.9 332.699 143.4 328.999 150.1 324.199L162.2 265.999H105.5L98.5 290.199H126L122.6 307.099C122.3 307.199 122.1 307.299 121.8 307.399C116.8 309.199 111.5 310.099 106.2 310.099C100.3 310.299 94.5 309.099 89.2 306.699C84.7 304.599 81 301.299 78.5 296.999C76 292.599 74.7 287.599 74.8 282.499C74.7 276.699 75.7 270.999 77.7 265.599C79.5 260.599 82.4 255.899 86 251.999C89.7 248.099 94.1 245.099 99.1 243.099C104.5 240.899 110.4 239.899 116.2 239.899C122 239.799 127.7 240.799 133 242.899C138.3 245.199 142.8 248.899 146.2 253.599L171.3 233.799C165.6 226.399 158.1 220.599 149.5 216.999C139.4 212.899 128.6 210.899 117.7 211.199C106.8 211.099 96.1 212.899 85.9 216.599C76.7 219.999 68.3 225.199 61.2 231.999C54.3 238.599 48.9 246.599 45.3 255.399C41.5 264.799 39.6 274.799 39.7 284.899C39.2 305.199 50.7 323.799 69 332.199Z" fill="white"/>
<path d="M221.2 306.9C226.1 309.3 231.5 310.5 236.9 310.3C242.5 310.4 248 309.3 253.1 307C257.8 304.8 261.9 301.6 265.3 297.7C268.7 293.7 271.3 289 272.9 283.9C274.6 278.6 275.5 273.1 275.4 267.5C275.5 262.5 274.3 257.6 272 253.2C269.7 249.1 266.3 245.7 262.1 243.5C257.3 241.1 251.9 239.9 246.5 240.1C241 240 235.5 241.1 230.4 243.4C225.7 245.6 221.6 248.8 218.2 252.7C214.8 256.8 212.1 261.4 210.5 266.5C208.7 271.8 207.8 277.3 207.9 282.9C207.8 287.9 209 292.8 211.3 297.2C213.7 301.4 217.1 304.7 221.2 306.9Z" fill="#FF742B"/>
<path d="M333.7 193.5H28.3001L0.300049 363H305.7L389.1 278.3L333.7 193.5ZM78.5001 297.3C81.0001 301.5 84.7001 304.9 89.2001 306.9C94.5001 309.3 100.4 310.5 106.2 310.3C111.5 310.3 116.8 309.4 121.8 307.6C122.1 307.5 122.3 307.4 122.6 307.3L126 290.4H98.6001L105.6 266.2H162.3L150.2 324.4C143.5 329.2 136 332.9 128.1 335.3C119.6 337.9 110.7 339.2 101.8 339.2C90.5001 339.5 79.3001 337.1 69.1001 332.4C50.8001 323.9 39.3001 305.4 39.9001 285.2C39.8001 275.1 41.7001 265.1 45.5001 255.7C49.1001 246.9 54.5001 238.9 61.4001 232.3C68.5001 225.5 76.9001 220.3 86.1001 216.9C96.3001 213.2 107.1 211.3 117.9 211.5C128.8 211.2 139.6 213.2 149.7 217.3C158.3 220.9 165.8 226.7 171.5 234.1L146.4 253.9C143.1 249.2 138.5 245.5 133.2 243.2C127.8 241.1 122.1 240.1 116.4 240.2C110.5 240.1 104.7 241.2 99.3001 243.4C94.4001 245.4 89.9001 248.5 86.2001 252.3C82.5001 256.2 79.7001 260.8 77.9001 265.9C75.9001 271.3 74.9001 277.1 75.0001 282.8C74.7001 287.9 76.0001 292.9 78.5001 297.3ZM310.6 265.4C310.7 275.5 308.8 285.6 305.1 295C301.5 303.8 296.1 311.7 289.3 318.3C282.3 325 274 330.2 264.9 333.7C255 337.4 244.5 339.3 233.9 339.1C222.7 339.4 211.5 337.1 201.4 332.3C192.7 328.1 185.4 321.5 180.3 313.3C175.2 304.8 172.6 295 172.8 285.1C172.7 275 174.6 264.9 178.4 255.5C182 246.7 187.4 238.8 194.2 232.2C201.1 225.5 209.4 220.3 218.4 216.8C228.3 213.1 238.9 211.2 249.5 211.4C260.7 211.1 271.9 213.5 282 218.2C290.8 222.4 298.1 229 303.1 237.3C308.3 245.8 310.8 255.6 310.6 265.4Z" fill="#FF742B"/>
<path d="M427.8 222.6H446.9L441.7 249.2C441.4 251.6 440.3 253.9 438.6 255.6C436.9 257 434.8 257.7 432.7 257.6C430.8 257.6 428.8 257.1 427.2 256.2C425.5 255.2 424.1 253.7 423.1 251.9L414.7 259.9C416.4 262.6 418.9 264.7 421.8 266C425.2 267.5 428.8 268.2 432.5 268.1C436.1 268.2 439.6 267.5 442.9 266.2C445.9 264.9 448.4 262.7 450.2 260C452.4 256.5 453.8 252.6 454.4 248.5L461.6 212.5H429.9L427.8 222.6Z" fill="white"/>
<path d="M499.9 226.9C496.4 225.3 492.5 224.5 488.6 224.6C484 224.5 479.5 225.6 475.5 227.8C471.8 229.8 468.6 232.9 466.5 236.5C464.3 240.3 463.1 244.7 463.2 249.1C463.1 252.6 464.1 256 465.9 258.9C467.7 261.8 470.3 264.1 473.3 265.5C476.8 267.1 480.6 267.9 484.5 267.8C489.1 267.9 493.6 266.8 497.6 264.6C501.3 262.5 504.4 259.5 506.5 255.9C508.7 252.1 509.9 247.7 509.8 243.3C509.9 239.8 509 236.4 507.2 233.5C505.4 230.6 502.9 228.3 499.9 226.9ZM497.4 243.9C497.5 246.4 496.9 248.9 495.8 251.2C494.8 253.2 493.3 254.9 491.5 256.1C489.6 257.3 487.4 257.9 485.1 257.8C482.5 258 479.9 257 478 255.3C476.3 253.5 475.3 251 475.5 248.5C475.4 246 476 243.5 477.1 241.2C479.1 237.1 483.3 234.6 487.8 234.6C492.6 234.1 496.8 237.6 497.3 242.4C497.4 242.9 497.5 243.4 497.4 243.9Z" fill="white"/>
<path d="M528.7 277.8C531 275.4 533 272.8 534.6 270L562.5 225.1H550.5L533 253.8L526.8 225.2H514.6L524.3 267.4L523.9 268.1C523 269.6 521.8 270.9 520.5 272C519.3 272.8 517.8 273.3 516.4 273.2C515.1 273.2 513.9 273 512.7 272.5C511.6 272 510.6 271.4 509.7 270.6L504 279.3C505.5 280.6 507.2 281.5 509.1 282C511.2 282.7 513.3 283 515.5 283C518 283 520.4 282.6 522.7 281.8C524.9 280.9 527 279.5 528.7 277.8Z" fill="white"/>
<path d="M584.7 219.801C585.9 218.701 587.5 218.101 589.1 218.201C590.8 218.201 592.5 218.701 593.9 219.601L598.7 210.901C597.4 210.101 595.9 209.501 594.4 209.201C592.6 208.801 590.8 208.601 589 208.601C584.5 208.401 580.1 209.801 576.7 212.701C573.5 215.601 571.4 219.501 570.7 223.801L570.2 226.101H563.6L561.7 235.501H568.3L562 267.201H574.1L580.5 235.501H591L592.9 226.101H582.2L582.5 224.501C582.7 222.701 583.5 221.101 584.7 219.801Z" fill="white"/>
<path d="M633.3 267.199L641.7 225.199H629.5L625.2 246.499C624.8 249.599 623.4 252.499 621.1 254.599C619 256.399 616.3 257.299 613.5 257.299C611.2 257.599 609 256.599 607.6 254.799C606.4 252.599 606.2 250.099 606.8 247.699L611.3 225.199H599L594.4 248.499C593.5 251.999 593.6 255.699 594.7 259.099C595.6 261.799 597.5 264.199 600 265.599C602.7 267.099 605.8 267.899 608.9 267.799C612.2 267.799 615.4 267.099 618.3 265.699C619.9 264.899 621.3 263.899 622.6 262.699L621.7 267.199H633.3Z" fill="white"/>
<path d="M657 267.199L668.6 209.199H656.4L644.8 267.199H657Z" fill="white"/>
<path d="M427.8 289.799H446.9L441.7 316.399C441.4 318.799 440.3 321.099 438.6 322.799C436.9 324.199 434.8 324.899 432.7 324.799C430.8 324.799 428.8 324.299 427.2 323.399C425.5 322.399 424.1 320.899 423.1 319.099L414.7 327.099C416.4 329.799 418.9 331.899 421.8 333.199C425.2 334.699 428.8 335.399 432.5 335.299C436.1 335.399 439.6 334.699 442.9 333.399C445.9 332.099 448.4 329.899 450.2 327.199C452.4 323.699 453.8 319.799 454.4 315.699L461.6 279.699H429.9L427.8 289.799Z" fill="white"/>
<path d="M499.9 294C496.4 292.3 492.5 291.5 488.6 291.6C484 291.5 479.5 292.6 475.5 294.8C471.8 296.9 468.6 299.9 466.5 303.6C464.3 307.4 463.1 311.8 463.2 316.2C463.1 319.7 464.1 323.1 465.9 326C467.7 328.9 470.3 331.2 473.3 332.6C476.8 334.2 480.6 335 484.5 334.9C489.1 335 493.6 333.9 497.6 331.7C501.3 329.6 504.4 326.6 506.5 323C508.7 319.2 509.9 314.8 509.8 310.4C509.9 306.9 509 303.5 507.2 300.6C505.4 297.7 502.9 295.5 499.9 294ZM497.4 311.1C497.5 313.6 496.9 316.1 495.8 318.4C494.8 320.4 493.3 322.1 491.5 323.3C489.6 324.5 487.4 325.1 485.1 325C482.5 325.2 479.9 324.2 478 322.5C476.3 320.7 475.3 318.2 475.5 315.7C475.4 313.2 476 310.7 477.1 308.4C479.1 304.3 483.3 301.8 487.8 301.8C492.6 301.3 496.8 304.8 497.3 309.6C497.5 310.1 497.5 310.6 497.4 311.1Z" fill="white"/>
<path d="M547.9 313.601C547.5 316.701 546.1 319.601 543.8 321.701C541.7 323.501 539 324.401 536.2 324.401C533.9 324.701 531.7 323.701 530.3 321.901C529.1 319.701 528.9 317.201 529.5 314.801L534 292.301H521.7L517.1 315.601C516.2 319.101 516.3 322.801 517.4 326.201C518.3 328.901 520.2 331.301 522.7 332.701C525.4 334.201 528.5 335.001 531.6 334.901C534.9 334.901 538.1 334.201 541 332.801C542.6 332.001 544 331.001 545.3 329.801L544.4 334.301H556L564.4 292.301H552.2L547.9 313.601Z" fill="white"/>
<path d="M591.3 293.701C589.5 294.601 587.8 295.801 586.5 297.401L587.5 292.301H575.9L567.6 334.301H579.8L583.9 314.101C584.3 310.801 586 307.701 588.5 305.401C591 303.501 594.1 302.501 597.3 302.701C597.8 302.701 598.2 302.701 598.7 302.801C599.1 302.901 599.6 302.901 600.1 303.001L602.3 291.701C598.4 291.601 594.7 292.301 591.3 293.701Z" fill="white"/>
<path d="M643 293.9C640.3 292.4 637.2 291.6 634 291.7C630.7 291.7 627.4 292.4 624.4 293.9C622.8 294.7 621.4 295.7 620.1 296.9L621 292.4H609.4L601.1 334.4H613.3L617.5 313.1C618 310 619.5 307.1 621.7 304.9C623.9 303.1 626.6 302.1 629.4 302.2C631.7 301.9 634 302.9 635.5 304.7C636.7 306.9 636.9 309.5 636.2 311.8L631.7 334.3H643.9L648.6 311C649.5 307.5 649.4 303.8 648.3 300.4C647.4 297.7 645.5 295.4 643 293.9Z" fill="white"/>
<path d="M690.2 321.4C688.7 322.7 687 323.6 685.1 324.2C683.1 324.9 681 325.2 678.9 325.2C676 325.4 673 324.6 670.7 322.8C669 321.2 668.1 318.9 668.1 316.6H700.3C700.5 315.6 700.7 314.6 700.8 313.5C701 312.4 701 311.3 701 310.2C701.1 306.8 700.2 303.4 698.5 300.4C696.8 297.6 694.4 295.4 691.5 294C688.2 292.4 684.5 291.6 680.8 291.7C676.3 291.6 671.9 292.7 667.9 294.9C664.3 297 661.2 300 659.2 303.6C657 307.4 656 311.8 656 316.1C655.9 319.6 656.8 323 658.7 326C660.5 328.9 663.1 331.1 666.2 332.6C669.8 334.2 673.6 335 677.5 334.9C680.7 334.9 683.8 334.4 686.8 333.5C689.8 332.6 692.6 331.2 695 329.2L690.2 321.4ZM669.5 308C670.4 305.9 671.8 304 673.7 302.7C675.7 301.4 678.1 300.7 680.5 300.8C682.4 300.7 684.3 301.2 685.9 302.1C687.4 302.9 688.5 304.2 689.2 305.8C689.7 307 689.9 308.2 689.8 309.5H669C669.1 309 669.3 308.5 669.5 308Z" fill="white"/>
<path d="M741.8 292.299L724.3 320.899L718.1 292.299H706L715.7 334.499L715.3 335.199C714.4 336.699 713.2 337.999 711.9 339.099C710.7 339.899 709.2 340.399 707.8 340.299C706.5 340.299 705.3 340.099 704.1 339.599C703 339.099 702 338.499 701.1 337.699L695.4 346.399C696.9 347.699 698.6 348.599 700.5 349.099C702.6 349.799 704.7 350.099 706.9 350.099C709.4 350.099 711.8 349.699 714.1 348.899C716.4 347.999 718.4 346.599 720.2 344.899C722.5 342.499 724.5 339.899 726.1 337.099L754 292.199L741.8 292.299Z" fill="white"/>
<path d="M766.3 302.1C768.2 301.2 770.3 300.8 772.4 300.9C774.5 300.9 776.6 301.1 778.7 301.6C780.9 302.1 783.1 303 785 304.2L789.4 295.3C787.2 294 784.9 293.1 782.4 292.6C779.6 292 776.8 291.7 773.9 291.7C770.2 291.6 766.5 292.2 762.9 293.4C760 294.4 757.4 296.1 755.4 298.4C753.6 300.6 752.6 303.5 752.7 306.4C752.6 308.5 753.2 310.5 754.3 312.2C755.4 313.6 756.8 314.7 758.5 315.4C760.2 316.2 762 316.7 763.9 317.1C765.8 317.5 767.6 317.9 769.3 318.2C770.7 318.4 772.1 318.8 773.5 319.4C774.5 319.7 775.1 320.6 775.1 321.6C775.1 322.9 774.3 324 773.1 324.5C771.1 325.4 769 325.8 766.8 325.6C764.1 325.6 761.4 325.2 758.9 324.5C756.5 323.9 754.3 322.9 752.2 321.6L747.4 330.4C749.7 331.9 752.3 332.9 755 333.5C758.4 334.3 761.9 334.8 765.4 334.7C769.1 334.8 772.8 334.2 776.3 333C779.2 332.1 781.8 330.4 783.9 328.1C785.8 325.8 786.8 323 786.7 320C786.8 318 786.2 316 785.1 314.4C784 313 782.6 311.9 781 311.2C779.3 310.4 777.5 309.8 775.6 309.5C773.7 309.1 771.9 308.8 770.2 308.4C768.8 308.2 767.4 307.7 766.1 307.1C765.1 306.7 764.5 305.8 764.5 304.8C764.4 303.8 765.2 302.6 766.3 302.1Z" fill="white"/>
<path d="M815.6 279.6H801.1L796.4 315.3H806L815.6 279.6Z" fill="white"/>
<path d="M799 320.9C796.9 320.8 794.9 321.6 793.4 323C791.9 324.4 791.1 326.4 791.2 328.4C791.2 330.2 791.9 331.8 793.2 333C794.6 334.3 796.4 335 798.3 334.9C799.7 334.9 801.1 334.6 802.3 333.9C803.5 333.2 804.4 332.3 805.1 331.1C805.8 330 806.2 328.6 806.2 327.3C806.2 325.5 805.5 323.8 804.2 322.7C802.7 321.5 800.9 320.8 799 320.9Z" fill="white"/>
</g>
<defs>
<clipPath id="clip0_110_184">
<rect width="816" height="363" fill="white"/>
</clipPath>
</defs>
</svg>
