<svg xmlns="http://www.w3.org/2000/svg" viewBox="0 0 89.72 33.47">
    <g id="Layer_2">
        <g id="Layer_1-2">
            <path style="fill:#224081;"
                d="M0,19.39V0H4.15V7.21C4.56,6,6.2,5.12,8.32,5.12a6.46,6.46,0,0,1,4.95,2.11,7.15,7.15,0,0,1,2,5.15,7.27,7.27,0,0,1-2,5.18,6.54,6.54,0,0,1-4.95,2.08c-2.12,0-3.76-.86-4.17-2.08v1.83Zm10.1-4.51a3.41,3.41,0,0,0,1-2.5,3.34,3.34,0,0,0-1-2.48,3.44,3.44,0,0,0-2.53-1A3.65,3.65,0,0,0,5,9.9,3.35,3.35,0,0,0,3.9,12.38,3.43,3.43,0,0,0,5,14.88a3.72,3.72,0,0,0,2.62,1A3.51,3.51,0,0,0,10.1,14.88Z" />
            <path style="fill:#224081;"
                d="M16.8,12.35a7,7,0,0,1,2.09-5.28,7.36,7.36,0,0,1,5.34-2,6.82,6.82,0,0,1,5.12,2.05,7,7,0,0,1,2,5,9.7,9.7,0,0,1-.09,1.36H21c.08,1.67,1.5,2.73,3.7,2.73a8.48,8.48,0,0,0,5-1.36v3.61a9.37,9.37,0,0,1-5.2,1.28,7.82,7.82,0,0,1-5.54-2,7,7,0,0,1-2.09-5.29Zm10.35-1.56c0-1.25-1.28-2.3-2.92-2.3A3.87,3.87,0,0,0,22,9.15a2.08,2.08,0,0,0-1,1.64Z" />
            <path style="fill:#224081;" d="M39.06,20.23,31,5.37h4.34l3.73,7.07,3.73-7.07H47.1Z" />
            <path style="fill:#224081;"
                d="M48.21,5.37h4.2v8a2.56,2.56,0,1,0,5.12,0v-8h4.2v8.37a5.36,5.36,0,0,1-1.95,4.48A7.45,7.45,0,0,1,55,19.78a7.59,7.59,0,0,1-4.84-1.56,5.42,5.42,0,0,1-1.92-4.48Z" />
            <path style="fill:#224081;"
                d="M64.37,19.39v-14h4.15V7.29a4.18,4.18,0,0,1,4.06-2.23,8.32,8.32,0,0,1,1.08.09V9a7.34,7.34,0,0,0-1.39-.14c-2.36,0-3.75,1.34-3.75,3.65v6.84Z" />
            <path style="fill:#224081;"
                d="M85.57,7.21V5.37h4.15v14H85.57V17.56c-.42,1.22-2.06,2.08-4.17,2.08a6.62,6.62,0,0,1-5-2.08,7.38,7.38,0,0,1-2-5.18,7.26,7.26,0,0,1,2-5.15,6.54,6.54,0,0,1,5-2.11C83.51,5.12,85.15,6,85.57,7.21Zm-.83,7.67a3.35,3.35,0,0,0,1.08-2.5A3.27,3.27,0,0,0,84.74,9.9a3.53,3.53,0,0,0-2.59-1,3.42,3.42,0,0,0-2.53,1,3.3,3.3,0,0,0-1,2.48,3.37,3.37,0,0,0,1,2.5,3.49,3.49,0,0,0,2.53,1A3.6,3.6,0,0,0,84.74,14.88Z" />
            <path style="fill:#db5843;"
                d="M25.5,23.45a12,12,0,0,1-21.34,0H.26a15.6,15.6,0,0,0,29.14,0Z" />
        </g>
    </g>
</svg>