<?xml version="1.0" encoding="utf-8"?>
<svg version="1.1" id="Layer_1" xmlns="http://www.w3.org/2000/svg" x="0px" y="0px"
    viewBox="0 0 248.3 248.3" style="enable-background:new 0 0 248.3 248.3;" xml:space="preserve">
    <path fill="#2B4871" d="M124.1,248.3L124.1,248.3C55.6,248.3,0,192.7,0,124.1v0C0,55.6,55.6,0,124.1,0h0c68.6,0,124.1,55.6,124.1,124.1
	v0C248.3,192.7,192.7,248.3,124.1,248.3z" />
    <path fill="#FFFFFF" d="M124.1,172.5L124.1,172.5c-26.7,0-48.3-21.6-48.3-48.3v0c0-26.7,21.6-48.3,48.3-48.3h0
	c26.7,0,48.3,21.6,48.3,48.3v0C172.5,150.8,150.8,172.5,124.1,172.5z" />
</svg>
