<svg width="3" height="39" viewBox="0 0 3 39" fill="none" xmlns="http://www.w3.org/2000/svg">
<g clip-path="url(#clip0_86_43)">
<path d="M3 37.5C3 36.6716 2.32843 36 1.5 36C0.671573 36 0 36.6716 0 37.5C0 38.3284 0.671573 39 1.5 39C2.32843 39 3 38.3284 3 37.5Z" fill="#5078B4" fill-opacity="0.56"/>
<path d="M3 31.5C3 30.6716 2.32843 30 1.5 30C0.671573 30 0 30.6716 0 31.5C0 32.3284 0.671573 33 1.5 33C2.32843 33 3 32.3284 3 31.5Z" fill="#406395" fill-opacity="0.77"/>
<path d="M3 25.5C3 24.6716 2.32843 24 1.5 24C0.671573 24 0 24.6716 0 25.5C0 26.3284 0.671573 27 1.5 27C2.32843 27 3 26.3284 3 25.5Z" fill="#395987" fill-opacity="0.92"/>
<path d="M3 19.5C3 18.6716 2.32843 18 1.5 18C0.671573 18 0 18.6716 0 19.5C0 20.3284 0.671573 21 1.5 21C2.32843 21 3 20.3284 3 19.5Z" fill="#2C4871"/>
<path d="M3 13.5C3 12.6716 2.32843 12 1.5 12C0.671573 12 0 12.6716 0 13.5C0 14.3284 0.671573 15 1.5 15C2.32843 15 3 14.3284 3 13.5Z" fill="#395987" fill-opacity="0.92"/>
<path d="M3 7.5C3 6.67157 2.32843 6 1.5 6C0.671573 6 0 6.67157 0 7.5C0 8.32843 0.671573 9 1.5 9C2.32843 9 3 8.32843 3 7.5Z" fill="#406395" fill-opacity="0.77"/>
<path d="M3 1.5C3 0.671573 2.32843 0 1.5 0C0.671573 0 0 0.671573 0 1.5C0 2.32843 0.671573 3 1.5 3C2.32843 3 3 2.32843 3 1.5Z" fill="#5078B4" fill-opacity="0.56"/>
</g>
<defs>
<clipPath id="clip0_86_43">
<rect width="39" height="3" fill="white" transform="matrix(0 -1 1 0 0 39)"/>
</clipPath>
</defs>
</svg>
