<?xml version="1.0" encoding="utf-8"?>
<!-- Generator: Adobe Illustrator 26.3.1, SVG Export Plug-In . SVG Version: 6.00 Build 0)  -->
<svg version="1.1" id="Layer_1" xmlns="http://www.w3.org/2000/svg" xmlns:xlink="http://www.w3.org/1999/xlink" x="0px" y="0px"
	 viewBox="0 0 41.5 33.2" style="enable-background:new 0 0 41.5 33.2;" xml:space="preserve">
<style type="text/css">
	.st0{clip-path:url(#SVGID_00000140001184409529267790000016887673762533625255_);}
</style>
<g>
	<path id="safety_icon_00000030479337682646192500000013145835024874814366_" d="M40.4,17.6l-7.5-2.9c-0.5-0.2-1-0.2-1.4,0L24,17.6
		c-0.7,0.3-1.1,0.9-1.1,1.6c0,7.2,4.5,12.2,8.6,13.9c0.5,0.2,1,0.2,1.4,0c5.4-2.5,8.8-7.9,8.6-13.9C41.5,18.5,41,17.8,40.4,17.6z
		 M32.2,30V17.7l6.2,2.4C38.2,24.3,35.8,28.1,32.2,30L32.2,30z M14.5,16.6c4.6,0,8.3-3.7,8.3-8.3c0-4.6-3.7-8.3-8.3-8.3
		C9.9,0,6.2,3.7,6.2,8.3C6.2,12.9,9.9,16.6,14.5,16.6C14.5,16.6,14.5,16.6,14.5,16.6L14.5,16.6z M20.8,19.2c0-0.2,0-0.3,0.1-0.5
		c-0.2,0-0.3-0.1-0.5-0.1h-1.1c-3,1.4-6.5,1.4-9.5,0H8.7c-4.8,0-8.7,3.9-8.7,8.7v2.7c0,1.7,1.4,3.1,3.1,3.1h22.8
		c0.4,0,0.9-0.1,1.2-0.3C23.1,29.6,20.7,24.5,20.8,19.2L20.8,19.2z"/>
</g>
</svg>
