<?xml version="1.0" encoding="utf-8"?><!-- Generator: Adobe Illustrator 26.3.1, SVG Export Plug-In . SVG Version: 6.00 Build 0)  -->
<svg version="1.1" id="Layer_1" xmlns="http://www.w3.org/2000/svg" x="0px" y="0px"
    viewBox="0 0 55.8 110.4" style="enable-background:new 0 0 55.8 110.4;" xml:space="preserve">
    <g>
	<path fill="#FF742B" d="M1.3,29.6c0.7-1.8,1.2-3.7,2.1-5.4c1.3-2.4,2.8-4.5,4.7-6.5c2.9-3.1,6.2-5.4,10.1-6.8c10.3-3.6,19.7-2,28,5.2
		c4,3.4,6.7,7.8,8.1,12.8c0.1,0.3,0.2,0.5,0.3,0.7c0.5,2.8,0.9,5.6,0.7,8.5c-0.3,5-1.8,9.5-4.6,13.6c-2.9,4.3-6.6,7.6-11.3,9.7
		c-2.8,1.3-5.7,2.1-8.8,2.4c-0.5,0-0.7,0.1-0.7,0.7c0,4.2,0,8.4,0,12.6c0,0.1,0,0.2,0.1,0.3c0,2.2,0,4.5-0.1,6.7
		c0,0.4,0.3,0.5,0.6,0.6c3.2,1.3,5,3.9,4.9,7.3c0,3.4-2.6,6.5-5.9,7.2c-3.6,0.7-7.1-1.1-8.5-4.3c-1.7-3.9-0.1-8.2,3.8-10.1
		c0.4-0.2,0.7-0.3,0.6-0.8c0-2.2,0-4.4-0.1-6.7c0-0.3,0.1-0.6,0.1-0.9c0-3.9,0-7.8,0-11.7c0-0.9-0.3-1.2-1.1-1.2
		c-1.7-0.2-3.4-0.6-5.1-1.1c-5.2-1.8-9.5-4.8-12.9-9c-3.3-4.2-5.3-9-5.8-14.3C0.3,36.1,0.5,33,1.2,30C1.2,29.9,1.2,29.7,1.3,29.6z
		 M19.8,36.4c0,4.3,3.4,8.1,8,8.1c4.4,0.1,8.2-3.7,8.2-8.1c0-4.4-3.6-8-8-8.1C23.6,28.3,19.9,32,19.8,36.4z" />
        <path fill="#FCFCFC"
            d="M19.8,36.4c0-4.5,3.7-8.1,8.2-8.1c4.4,0.1,8,3.7,8,8.1c0,4.4-3.7,8.2-8.2,8.1C23.2,44.5,19.8,40.7,19.8,36.4z" />
    </g>
</svg>
