<?xml version="1.0" encoding="utf-8"?>
<!-- Generator: Adobe Illustrator 26.3.1, SVG Export Plug-In . SVG Version: 6.00 Build 0)  -->
<svg version="1.1" id="Layer_1" xmlns="http://www.w3.org/2000/svg" xmlns:xlink="http://www.w3.org/1999/xlink" x="0px" y="0px"
	 viewBox="0 0 255.7 481.6" style="enable-background:new 0 0 255.7 481.6;" xml:space="preserve">
<style type="text/css">
	.st0{fill:#FF742B;}
	.st1{clip-path:url(#SVGID_00000010995102808132300830000007143850347929439899_);}
	.st2{clip-path:url(#SVGID_00000109736697918200980320000004781678888164861596_);}
	.st3{fill:#05BADD;}
	.st4{clip-path:url(#SVGID_00000056393446383361581850000009622164388284431515_);}
	.st5{clip-path:url(#SVGID_00000078758952399750067770000001546887708463367040_);}
	.st6{fill:#FFB404;}
	.st7{clip-path:url(#SVGID_00000091711221129470392990000003725726553052552579_);}
	.st8{clip-path:url(#SVGID_00000139259778740511687200000002386821724277013647_);}
	.st9{fill:#2B4871;}
	.st10{clip-path:url(#SVGID_00000110441404130697758780000008370901479733840517_);}
	.st11{clip-path:url(#SVGID_00000143599836504771865190000000740284014371689121_);}
	.st12{fill:#8066B1;}
	.st13{clip-path:url(#SVGID_00000170987781356180064230000011869278264752096447_);}
	.st14{fill:#C93D00;}
	.st15{fill:#996047;}
	.st16{fill:#484848;}
	.st17{fill:#3D3D3D;}
	.st18{fill:#707070;}
	.st19{fill:#565656;}
	.st20{fill:#A8A8A8;}
	.st21{fill:#6E6E6E;}
	.st22{fill:#787878;}
	.st23{fill:#797979;}
	.st24{fill:#6B6B6B;}
	.st25{fill:#606060;}
	.st26{fill:#535353;}
	.st27{fill:#D34B1C;}
	.st28{fill:#FFFFFF;}
	.st29{fill:#FEFEFE;}
</style>
<g>
	<g>
		<path class="st9" d="M167.9,209.7c0-26.1,0-52.1,0-78.2c0-1.8-0.4-2.2-2.1-2.4c-10.5-1.5-21.1-2-31.7-2.2
			c-10.4-0.2-20.9,0.1-31.3,0.9c-5.8,0.4-11.5,1-17.2,1.9c-1.8,0.3-2.1,0.6-2.1,2.5c0,25.2,0,50.4,0,75.7c0,0.8,0.1,1.5,0.5,2.1
			c2.1,1.1,4.4,1.7,6.6,2.5c0.3,0.1,0.6,0.2,0.9,0c0.3-0.2,0.6-0.2,0.8-0.2l2.8-4.4h63.9l4,4.6c0.1-0.2,0.3-0.3,0.6-0.2
			c1.5,0.6,2.7-0.2,4-0.8C168,211,167.9,210.3,167.9,209.7z"/>
		<path d="M95,207.9l-2.8,4.4c0.3,0.1,0.5,0.5,0.6,1c0.1,0.4,0.2,0.7,0.3,1.1c2.3,8.1,6.5,15,13,20.4c7,5.8,15.1,8.6,24.3,7.9
			c9-0.7,16.5-4.7,22.6-11.3c4.7-5,7.8-10.9,9.6-17.5c0.1-0.4,0.2-0.8,0.3-1.2c0,0,0-0.1,0.1-0.1l-4-4.6H95z"/>
	</g>
	<path class="st0" d="M233.1,148.5c-0.3,6.1-1.4,12-2.9,17.8c-4.4,17.2-12.7,32.5-23.9,46.2c-2.9,3.6-6,7-9.3,10.3
		c-0.5,0.5-1,0.9-1.2,1.6c-1.7,2.9-4.4,4.9-6.9,7.1c-4.4,3.9-9,7.5-13.9,10.9c-1.3,0.9-2,2-2.2,3.6c-1.9,12.3-3.9,24.7-5.9,37
		c-0.8,5-1.7,10-2.4,15.1c-0.3,2.7-1.7,4.5-3.7,6.2c-5.5,4.6-12,6.8-19,7.9c-10,1.6-20.1,1.5-30-0.6c-6.5-1.4-12.6-3.7-17.8-8
		c-1.6-1.4-2.9-2.8-3.2-5.2c-2.8-17.5-5.5-35-8.4-52.6c-0.2-1.4-0.9-2.5-2.1-3.3c-7.5-5.4-14.7-11.2-21.2-17.8
		c-0.6-0.6-0.7-1.2-1.1-1.8c-0.2-0.7-0.7-1.1-1.2-1.6c-6-6.2-11.4-12.9-16.1-20.1c-8.5-13-14.4-27.1-17.2-42.5
		c-0.6-3.3-1.1-6.5-1.1-9.8c0.4-0.7,1.1-0.7,1.8-0.6c5.4,0.8,10.8,1.8,16.2,2.8c0.5,0.1,1,0.4,1.5,0.5c0.9,0.3,1.1,1.1,1.1,1.9
		c0.9,8.7,3,17.1,6.9,24.9c3.6,7.3,8.4,13.7,14.6,19.1c5.7,5,12.1,8.8,19.1,11.8c0.2,0,0.5,0.1,0.7,0.2c2.5,1,4.8,2.4,7.6,2.3
		c1.1-0.1,1.4,0.9,1.7,1.8c1.3,4.8,3.3,9.3,6.2,13.4c6.1,8.7,14.4,14,25.1,15.1c8.4,0.8,16-1.6,22.7-6.7
		c7.4-5.6,11.8-13.1,14.3-21.9c0.4-1.4,1-2,2.4-1.7c1,0.2,1.9-0.4,2.9-0.7c0.2,0,0.3-0.1,0.5-0.1c8.5-3.2,16.3-7.4,23.2-13.4
		c10.9-9.6,17.4-21.7,20.3-35.8c0.6-3,1.2-6,1.3-9c0-0.8,0.2-1.5,1.1-1.6c3.9-0.2,7.8-1.2,11.7-1.8c1.9-0.3,3.8-0.7,5.7-0.9
		C231.7,148,232.4,147.9,233.1,148.5z"/>
	<path class="st3" d="M58.1,222.9c0.9,0.4,1.6,1.2,2.3,1.9c6.5,6.4,13.6,12.2,21.1,17.4c1,0.7,1.6,1.6,1.7,2.8
		c2.5,16,5.1,32,7.7,48.1c0.3,2,0.7,4,1,6.1c0.1,1,0.6,1.8,1.3,2.5c2.4,2.3,5.1,4.1,8,5.5c5.2,2.5,10.6,3.9,16.3,4.7
		c5.2,0.7,10.5,0.8,15.7,0.6c7-0.3,13.8-1.5,20.2-4.3c2.8-1.2,5.4-2.8,7.7-4.9c1.5-1.3,2.4-2.9,2.7-5c2.1-13.4,4.3-26.9,6.4-40.3
		c0.7-4.3,1.4-8.5,2-12.8c0.2-1.3,0.7-2.2,1.8-2.9c7.3-5.1,14.2-10.7,20.6-16.9c0.4-0.4,0.7-0.8,1.3-0.9c0,0.1,0,0.2,0,0.3
		c0.2,1.5,0.2,3,0,4.5c-0.1,1.6-0.4,3.1-0.9,4.6c-5.9,20-11.9,40-17.8,60c-1.3,4.5-3.8,8.4-6.7,12c-0.4,0.5-0.8,1-1.2,1.5
		c-1,2.5-3,4-5,5.6c-1.4,1.2-2.7,2.4-4.3,3.3c-0.2,0.1-0.3,0.1-0.5,0.2c-7.9,5.1-16.7,7.5-26,8.2c-10.9,0.8-21.6,0-31.9-4.2
		c-2.4-1-4.7-2.2-6.9-3.4c-1.6-0.8-3.1-1.8-4.3-3.1c-0.2-0.1-0.4-0.2-0.6-0.3c-1.1-0.8-2.1-1.7-3.1-2.6c-0.9-0.8-1.6-1.7-1.8-3
		c-3.8-3.9-6.8-8.3-8.4-13.5c-6.2-20.5-12.2-41-18.2-61.5C57.5,229.7,57.5,226.3,58.1,222.9z"/>
	<path class="st14" d="M191.4,391.5c-0.4,1-0.3,2-0.3,3c0,20.2,0,40.5,0,60.7c0,5.5-1.9,10-6,13.7c-3.3,3-7.1,4.6-11.6,4.6
		c-30.5,0-61,0-91.6,0c-8.8,0-16.5-7.1-17.4-15.9c-0.2-1.5-0.2-3-0.2-4.6c0-19.4,0-38.9,0-58.3c0-1,0.1-2-0.3-2.9
		c-1-8.8-0.3-17.6-0.5-26.3c-0.1-4.9,1.2-9.5,4.6-13.2c3.6-4,8-6.4,13.4-6.6c2.9-0.1,5.9-0.1,8.8,0.1c1.3-0.1,2.5-0.1,3.8-0.1
		c23.4,0,46.8,0,70.1,0c2.9,0,5.8,0.1,8.7,0c10.1-0.3,19,8.6,18.9,18.8c-0.1,7.4,0,14.8,0,22.2C191.9,388.3,191.5,389.9,191.4,391.5
		z"/>
	<path class="st9" d="M80.4,106.9c0.5-0.2,0.9-0.5,1.4-0.7c6.8-4.5,14.3-7.2,22.2-8.9c1-0.1,1.1,0.8,1.4,1.4c2,4.1,4.8,7.5,8.6,10
		c8.8,5.9,20.1,5.6,28.6-0.7c3.4-2.5,5.8-5.7,7.6-9.5c0.3-0.6,0.5-1.5,1.5-1.1c7.7,1.5,14.9,4.2,21.5,8.4c0.6,0.4,1.2,0.7,1.7,1.1
		c3.5,1.2,6,3.7,8.4,6.3c1,1.1,2.1,2,2.8,3.3c0.6,1.3,1.7,2.2,2.5,3.4c1.7,2.6,3.2,5.4,4.6,8.2c0.4,0.8,0.7,1.6,0,2.3
		c-0.7,0.7-1.4,0.5-2.2,0.2c-10.9-3.4-22.1-5.1-33.4-6.2c-6.2-0.6-12.5-0.9-18.7-1.1c-5.1-0.2-10.2-0.3-15.3-0.2
		c-17.2,0.4-34.4,1.4-51.3,5.4c-2.7,0.6-5.3,1.4-7.9,2.1c-0.7,0.2-1.4,0.5-2.1,0.1c-0.6-0.6-0.6-1.3-0.3-2c1.7-3.6,3.6-7.1,6-10.4
		c0.4-0.6,1.2-0.9,1.5-1.7c1.6-2.9,4.3-5,6.6-7.3C77.4,108.2,78.9,107.6,80.4,106.9z"/>
	<path class="st9" d="M137.9,34.3c3.3,2.9,5.2,6.7,5.2,11.1c0.1,8.8,0,17.6,0,26.5c-0.5,0.8-1.2,0.5-1.8,0.3
		c-4.2-1.5-8.6-2.2-13.1-2.2c-5.2,0-10.3,0.6-15.1,2.7c-0.4,0.2-0.9,0.4-1.3,0.5c-0.8,0.1-1.2-0.1-1.2-0.9c0-0.2,0-0.4,0-0.6
		c0-8.7,0-17.4,0-26.1c0-0.4-0.1-0.7,0.1-1.1c0.3-3.5,1.8-6.5,4.1-9.1c0.7-0.8,1-1.5,0.9-2.5c0-4.4,0-8.9,0-13.3
		c0-0.7-0.1-1.5,0.3-2.2c1,0.4,0.8,1.3,0.8,2c0.1,3.5,0,7,0,10.6c0,2.1,0.3,2.3,2.2,1.3c4.8-2.4,9.7-2.6,14.6-0.5
		C135.4,31.4,137.1,32.4,137.9,34.3z"/>
	<path class="st15" d="M207.2,111.6c1.4-1.3,3-1.4,4.8-1c5.5,1.4,11,2.7,16.5,3.9c2.1,0.5,3.9,1.2,5.1,3c0.9,1,0.9,2.2,0.6,3.4
		c-0.6,2.6-1.4,5.1-2.2,7.7c-0.7,0.1-1.1,0.5-1.3,1.2c-0.4,1.2-0.7,2.4-1.1,3.6c-0.1,0.3-0.2,0.6-0.1,0.9c0.2,1.7,0.4,3.3,0.6,5
		c0.1,0.6,0.4,0.9,1,1c0,0.6-0.4,0.8-0.9,0.9c-4.8,0.8-9.6,1.8-14.5,2.1c-0.6-0.3-0.9-0.8-1.2-1.4c-0.1-0.4-0.3-0.8-0.4-1.2
		c-1-3.6-3.1-5.9-7-6.4c-2.6-0.4-5.1-1.3-7-3.3c-2.3-2.3-1.8-6.1,1-7.8c0.6-0.4,1.4-0.6,1.4-1.5c1.5-2.2,1.8-4.9,2.5-7.4
		C205.5,113.2,205.8,112,207.2,111.6z"/>
	<path class="st15" d="M24.3,140.3c0.6-0.1,0.9-0.4,1-1.1c0.2-1.6,0.4-3.2,0.6-4.8c0.1-0.5-0.1-0.9-0.2-1.4
		c-0.4-1.1-0.7-2.2-1.1-3.3c-0.2-0.5-0.4-1-0.9-1.2c-1.2-2.8-2.4-5.6-2.6-8.7c-0.1-0.9,0.1-1.8,1.1-2.2c0.6-1.5,1.8-2.3,3.4-2.7
		c6.2-1.4,12.4-2.9,18.5-4.4c1.7-0.4,3,0.2,4.2,1.1c1,0.4,1.4,1.3,1.7,2.3c0.5,1.7,1,3.3,1.4,5c0.3,1.1,0.7,2.1,1.3,3
		c0,0.8,0.7,1.1,1.3,1.4c2.8,1.7,3.3,5.4,1.1,7.8c-1.1,1.1-2.4,1.9-3.8,2.4c-1.5,0.6-3.1,1-4.7,1.3c-2.6,0.5-4.1,2.1-5,4.5
		c-0.3,0.8-0.6,1.7-0.9,2.5c-0.2,0.7-0.5,1.2-1.2,1.6c-2.5,0.1-5-0.5-7.4-0.9c-2.2-0.3-4.5-0.6-6.6-1.1
		C25,141.2,24.3,141.2,24.3,140.3z"/>
	<path class="st16" d="M151.7,97.3c-1,1.3-1.4,2.9-2.3,4.3c-4.1,6.5-9.9,10.5-17.4,11.8c-7.2,1.2-13.8-0.4-19.6-4.8
		c-3.9-2.9-6.7-6.7-8.4-11.3c-1.1-3.3-1.7-6.7-1.5-10.3c0.1-1.7,0.3-3.4,1-5c0.7-0.4,1.1,0,1.5,0.4c2.3,3.1,5.6,4.3,9.2,4.6
		c9.4,0.8,18.9,0.9,28.3-0.2c3.2-0.4,6.1-1.6,8.1-4.3c0.3-0.4,0.7-0.9,1.5-0.6c1.7,4.5,1.3,9.1,0.1,13.6
		C152,96.1,151.6,96.7,151.7,97.3z"/>
	<path class="st17" d="M137.9,34.3c-1.5-1.1-3-2.3-4.8-3c-5.4-2.1-10.6-1.5-15.5,1.5c-0.4,0.3-0.8,0.7-1.6,0.7
		c0-5.5,0-10.9-0.1-16.3c0.6-4.7,4.9-8.7,9.7-9.1c7.4-0.6,12.3,5.4,12.2,11.2C137.8,24.3,137.9,29.3,137.9,34.3z"/>
	<path class="st18" d="M152,81.9c-0.2,0.2-0.4,0.4-0.5,0.6c-1.6,2.6-4.1,4-7,4.7c-2.7,0.7-5.5,0.9-8.3,1c-5.8,0.1-11.6,0.1-17.5,0
		c-2.9,0-5.8-0.4-8.7-1.2c-2.4-0.7-4.2-2-5.7-4c-0.3-0.4-0.5-0.8-1-1c1-3.3,2.9-5.9,5.7-7.9c1-0.7,1.3-1.5,1.3-2.6
		c0-8.2,0-16.5,0-24.7c0-0.8-0.1-1.6,0.3-2.3c0,1,0,2,0,3c0,7.6,0,15.2,0,22.8c0,0.4,0,0.8,0,1.3c0.1,1.2,0.2,1.3,1.3,0.9
		c4.3-2,8.8-2.9,13.5-3c4.6-0.2,9.2,0.1,13.7,1.4c1.3,0.4,2.5,1,3.9,1.2c0.4,0.5,1,0.7,1.6,1c3,1.8,5.4,4.2,6.9,7.4
		C151.8,80.8,152.1,81.3,152,81.9z"/>
	<path d="M24.3,140.3c2.2,0.4,4.3,0.7,6.5,1.1c3,0.5,6,1.1,9,1.3c1.9-0.6,2.5-0.2,2.6,1.6c0.1,1.9,0.5,3.8,0.3,5.8
		c-0.1,0.7,0,1.4-0.7,1.8c-4-0.7-7.9-1.4-11.9-2c-2.5-0.4-5-1-7.6-1.1c-0.5-1-0.3-2-0.3-3.1c0-1.3,0-2.7,0-4c0-1.5,0.1-1.5,1.5-1.4
		C23.9,140.3,24.1,140.3,24.3,140.3z"/>
	<path d="M215.6,142.7c3-0.3,6-0.9,9-1.3c2.2-0.3,4.3-0.7,6.5-1.1c2.1-0.2,2.1-0.2,2.1,1.9c0,2.1,0.2,4.2-0.2,6.2
		c-2.4,0.7-4.9,0.9-7.4,1.4c-3.6,0.6-7.1,1.2-10.7,1.8c-0.6,0.1-1.2,0.3-1.5-0.4c-0.7-0.4-0.7-1.1-0.7-1.8c-0.1-1.7,0.1-3.5,0.3-5.2
		C213.3,142.5,213.8,142.2,215.6,142.7z"/>
	<g>
		<path class="st9" d="M52.4,122c-0.8,0-1-0.6-1.2-1.2c-0.4-1.5-0.9-3-1.3-4.5c-0.4-1.6-0.9-3.2-1.6-4.7c1.9-0.4,3.8-0.8,5.7-1.3
			c0.9-0.2,1-0.3,0.5-1.2c-1-1.9-2.5-3.1-4.7-3.3c-1.3-0.1-2.6,0-3.9,0.3c-8,2.1-16.1,4.1-24.1,6.2c-0.5,0.1-0.9,0.3-1.4,0.3
			c-0.8,0.1-1.4-0.4-1.5-1.1c-0.1-0.7,0.2-1.2,0.8-1.5c0.4-0.2,0.8-0.3,1.2-0.4c7.9-2,15.9-4.1,23.8-6.1c1.4-0.4,2.9-0.6,4.4-0.6
			c3.7,0.1,6.3,1.8,7.9,5c0.5,1,1,1.8,2.3,2c0.6,0.1,1.2,0.6,1.8,0.9c2.2,0.8,3.4,3.8,2.3,6.1c-0.2,0.5-0.5,1-0.7,1.6
			c-1.2,1.7-2.9,2.7-4.9,3.1c-1.3,0.2-2.6,0.6-4,0.8C53.3,122.6,52.8,122.6,52.4,122z"/>
		<path class="st9" d="M207.2,111.6c-1.4,2.9-1.9,6.1-2.9,9.1c-0.2,0.6-0.3,1.4-1.2,1.4c-0.3,0.4-0.7,0.6-1.2,0.5
			c-1.9-0.4-3.9-0.7-5.8-1.3c-1.5-0.5-2.6-1.4-3.5-2.7c-0.4-1.5-0.8-2.9-0.6-4.5c0.3-2,1-2.8,2.9-3.3c0.3-0.2,0.5-0.4,0.8-0.5
			c1.8-0.2,2.5-1.5,3.2-2.9c1.5-2.8,4-4.2,7.2-4.3c1.5-0.1,3,0.1,4.5,0.5c8,2.1,16.1,4.1,24.1,6.2c0.4,0.1,0.8,0.2,1.2,0.4
			c0.6,0.3,0.8,0.8,0.7,1.4c-0.1,0.7-0.6,1.1-1.3,1.1c-0.5,0-1-0.2-1.5-0.3c-7.8-2-15.6-4-23.5-6.1c-1.5-0.4-3.1-0.7-4.7-0.5
			c-2.1,0.3-3.6,1.4-4.5,3.3c-0.4,0.8-0.3,1,0.5,1.2C203.5,110.8,205.3,111.2,207.2,111.6z"/>
		<path class="st9" d="M232.1,128.6c-0.7-0.3-0.7-0.8-0.4-1.4c0.5-1.3,0.8-2.7,1.3-4c0.5-1.6,0.9-3.3,0.6-5.1c0-0.2,0-0.4,0.2-0.6
			c1.9,0.4,3.8,0.8,5.7,1.3c2.7,0.7,4.5,3,4.3,5.6c-0.1,2.7-2.2,4.9-4.9,5.3c-0.9,0.1-1.7-0.1-2.5-0.3
			C234.9,129.2,233.5,128.9,232.1,128.6z"/>
		<path class="st9" d="M22.1,117.6c-0.5,1.7-0.3,3.3,0.2,4.9c0.5,1.5,1,3.1,1.5,4.6c0.2,0.5,0.4,1-0.1,1.4c-1.4,0.3-2.9,0.6-4.3,0.9
			c-1,0.2-1.9,0.4-3,0.2c-2.5-0.5-4.2-2.5-4.4-4.9c-0.2-2.6,1.1-4.9,3.6-5.7C17.7,118.3,19.9,117.9,22.1,117.6z"/>
	</g>
	<path class="st19" d="M194.9,110.7c-2.3,1.8-2.9,4.2-1.6,7.4c-0.3,0.6-0.8,0.6-1.3,0.5c-2-0.4-4.1-0.4-5.9-1.6
		c-0.2-0.1-0.4-0.1-0.6-0.1c-1.6-2.1-3.3-4.2-5.3-5.9c-1.7-1.4-3.4-2.8-5.1-4.2c3,0.4,5.8,1.2,8.8,1.7c3.2,0.6,6.3,1.3,9.5,2
		C193.8,110.6,194.4,110.7,194.9,110.7z"/>
	<path class="st19" d="M62.2,118.2c1.5-2.3,1.2-4.5-0.4-6.6c-0.2-0.3-0.4-0.5-0.6-0.8c2.6-0.8,5.3-1.2,8-1.8
		c3.4-0.7,6.8-1.4,10.2-2.1c0.4-0.1,0.7-0.1,1.1-0.1c-1.1,0.9-2.2,1.9-3.4,2.8c-1.9,1.5-3.5,3.3-5.2,5c-0.7,0.7-1.2,1.5-1.7,2.2
		c-2,0.9-4.1,1.3-6.3,1.7C63.2,118.8,62.6,118.9,62.2,118.2z"/>
	<path class="st20" d="M195.9,229.2c0-1.5,0-3,0-4.5C196.3,226.2,196.3,227.7,195.9,229.2z"/>
	<path class="st16" d="M83.6,209.6c0-25.8,0-51.5,0-77.3c0-0.2,0-0.4,0-0.6c0-0.8-0.4-1-1.1-0.9c-2,0.4-4,0.7-6,1.1
		c-5.1,1.1-10.2,2.4-15.2,4c-0.3,0.1-0.6,0.3-1.1,0.1c0.6-2,1.3-4,2.3-5.9c0.5,0.2,0.9,0,1.4-0.1c8.7-2.7,17.6-4.4,26.6-5.5
		c4.4-0.6,8.7-0.9,13.1-1.3c4.7-0.3,9.3-0.4,14-0.7c5.5-0.3,11-0.3,16.5-0.2c4,0.1,8.1,0.1,12.1,0.5c2.1,0.2,4.3,0.2,6.4,0.4
		c2.8,0.2,5.6,0.5,8.5,0.8c4.9,0.5,9.7,1.2,14.5,2.1c5.2,1,10.3,2.1,15.3,3.7c0.7,0.2,1.5,0.7,2.2,0c1,2,1.7,4,2.4,6.1
		c-0.4,0.5-0.7,0.2-1,0.1c-7.9-2.6-16-4.4-24.2-5.6c-2.9-0.4-2.5-0.7-2.5,2c0,25.7,0,51.4,0,77.2c0,0.7,0,1.4,0,2
		c-0.1,0-0.2,0-0.3,0c0-25.9,0-51.8,0-77.7c0-0.5,0-0.9,0-1.4c0-2.3,0-2.2-2.4-2.6c-3.5-0.5-7.1-0.8-10.6-1.1
		c-2.1-0.2-4.3-0.2-6.4-0.5c-3.8-0.4-7.6,0.1-11.3-0.5c-0.5-0.1-1,0-1.6,0c-4,0-8,0-12,0c-4.1,0-8.2,0.2-12.3,0.4
		c-5.9,0.3-11.7,0.6-17.5,1.4c-2.6,0.3-5.2,0.6-7.8,1c-1.4,0.2-1.6,0.5-1.6,1.8c0,0.5,0,1.1,0,1.6c0,24.5,0,49.1,0,73.6
		c0,0.8,0,1.7,0,2.5C83.8,209.8,83.7,209.7,83.6,209.6z"/>
	<path class="st21" d="M90.2,346.4c0-0.8,0.1-1.6,0.1-2.4c0-9.6,0-19.1,0-28.7c0-0.8-0.1-1.6,0.3-2.3c0.1,0.1,0.2,0.2,0.3,0.3
		c0.4,1.1,0.5,2.2,0.5,3.4c0,3.7,0,7.4,0,11.1c0,2.6,0.2,2.8,2.8,3.4c0.4,0.1,0.8,0.2,1.2,0.4c0.8,1.3,2,1.7,3.5,1.7c19,0,38,0,57,0
		c2.4,0,3-0.6,3-3c0-3.9,0-7.8,0-11.7c0-1.1,0.1-2.2,0.8-3.1c0.1,0,0.2,0,0.3,0c0.9,0.4,0.7,1.3,0.8,2.1c0.1,3.2,0,6.4,0,9.6
		c0,2.2,0.2,2.5,2.4,3.1c0.5,0.1,0.9,0.4,1.2,0.7c0,4.4,0,8.7,0,13.1c0,0.8-0.1,1.6,0.3,2.3c-0.6,0-1.3,0-1.9,0c-23.5,0-47,0-70.5,0
		C91.5,346.4,90.9,346.4,90.2,346.4z"/>
	<g>
		<path class="st9" d="M191.4,391.5c-0.5-0.7-0.3-1.4-0.3-2.1c0-8.3,0-16.6,0-24.9c0-6.8-3.1-12-8.8-15.6c-2.6-1.6-5.5-2.5-8.7-2.5
			c-3,0-6,0-9,0c-1.2-0.4-1.1-1.4-1.1-2.4c0-4.3-0.1-8.7,0-13c-0.1-5.3,0-10.7-0.1-16c0-0.9,0.2-1.8,0.5-2.7
			c1.4-1.1,2.6-2.4,3.8-3.6c0.5-0.5,1-0.9,1.5-1.4c0,0.5,0.2,1,0.8,1.2c10.2,4.5,16.4,12.8,21,22.6c3.2,6.9,5,14.1,5.8,21.7
			c1.2,10.9,0.3,21.6-2.9,32.1C193.2,387.2,192.4,389.4,191.4,391.5z"/>
		<path class="st9" d="M90.2,346.4c-2.6,0-5.2,0-7.9,0c-8.5-0.1-16.8,6.7-17.7,16c-0.1,1.4-0.2,2.7-0.2,4.1c0,7.8,0,15.5,0,23.3
			c0,0.7,0.2,1.4-0.3,2c-4.7-10.8-6.5-22.1-5.9-33.8c0.5-11.5,3.2-22.4,9.1-32.4c3.5-6,8-11.2,14-14.9c1.1-0.7,2.2-1.2,3.3-1.8
			c0.4-0.2,0.8-0.4,0.6-0.9c1.7,1.8,3.4,3.6,5.4,5c0.3,4.1,0.1,8.2,0.1,12.3c0,1.3,0,2.5,0.3,3.7c0.4,1.4-0.1,2.7-0.1,4.1
			c0.1,3.6,0.1,7.2,0,10.9C91,344.8,91.1,345.8,90.2,346.4z"/>
		<path class="st9" d="M159.6,315.5c0,5.3,0,10.6,0,15.9c0,0.4,0,0.8,0,1.3c-0.1,1.1-0.3,1.3-1.4,1.4c-0.4,0-0.8,0-1.3,0
			c-19.7,0-39.4,0-59.2,0c-0.2,0-0.3,0-0.5,0c-2.1,0-2.2-0.1-2.3-2.2c-0.7-0.5-0.7-1.2-0.8-2c-0.1-4-0.1-7.9,0-11.9
			c0-0.7,0-1.5,0.8-1.9c4.9,2.9,10.1,4.9,15.6,6.2c3,0.7,6.1,1.1,9.1,1.4c3.9,0.4,7.8,0.4,11.6,0.2
			C141.4,323.4,151,321.1,159.6,315.5z"/>
	</g>
	<path class="st22" d="M95,316.2c0,5.3,0,10.5,0,15.8c-1,0-2.1,0-3.1,0c-1,0-1.2-0.3-1.3-1.2c0-0.3,0-0.6,0-0.9c0-4.8,0-9.6,0-14.4
		c0-0.7-0.1-1.4,0.3-2C92.2,314.3,93.6,315.2,95,316.2z"/>
	<path class="st23" d="M164.3,331c-1,0-2,0-3,0c-1.1,0-1.4-0.3-1.4-1.4c0-1.7,0-3.5,0-5.2c0-2.9,0-5.9,0-8.8c1.3-1.1,2.8-2,4.1-3.2
		c0.4,0.5,0.3,1.2,0.3,1.8C164.3,319.8,164.3,325.4,164.3,331z"/>
	<path class="st0" d="M71.3,410c0-13.8,0-27.6,0-41.4c0-6.1,3-10.6,8.3-13.5c2.6-1.4,5.3-2,8.3-2c26.7,0,53.5,0,80.2,0
		c7.1,0,12,3.5,15.1,9.8c1,2,1.3,4.2,1.3,6.4c0,13.9,0,27.8,0,41.8c0,13.2,0,26.4,0,39.6c0,4.6-1.6,8.6-4.9,11.7
		c-3,2.9-6.6,4.6-10.9,4.5c-27.3,0-54.6,0-81.9,0c-7.1,0-14.1-5.5-15.4-13.5c-0.1-0.7-0.1-1.4-0.1-2C71.3,437.5,71.3,423.8,71.3,410
		z"/>
	<path class="st24" d="M107,97c-0.5-1.8-1.1-3.5-1.4-5.3c-0.1-0.8-0.2-1.7-0.2-2.5c0-1.1,0.3-1.3,1.2-0.8c2.4,1.3,5,1.9,7.7,2.1
		c2.3,0.2,4.7,0.5,7.1,0.5c4.4,0.1,8.8,0.1,13.2,0c3.1-0.1,6.3-0.2,9.4-0.9c1.7-0.4,3.5-0.9,5.1-1.7c1.2-0.6,1.5-0.4,1.4,1
		c-0.3,2.6-0.7,5.2-1.9,7.6c-0.6,0.7-1.5,0.8-2.3,0.8c-12.3,0-24.5,0-36.8,0C108.5,97.8,107.7,97.6,107,97z"/>
	<path class="st25" d="M107,97c13.9,0,27.7,0,41.6,0c-0.6,1.8-1.5,3.4-2.8,4.7c-0.7,0.7-1.6,0.8-2.5,0.8c-10.2,0-20.4,0-30.7,0
		c-1,0-1.9-0.2-2.8-0.8C108.6,100.4,107.7,98.7,107,97z"/>
	<path class="st26" d="M109.8,101.8c12,0,24,0,35.9,0c-0.6,1.5-2,2.4-3.1,3.5c-0.4,0.4-1.1,0.3-1.7,0.3c-8.7,0-17.3,0-26,0
		c-1.3,0-2.3-0.5-3.2-1.4C111,103.5,110.4,102.6,109.8,101.8z"/>
	<path class="st6" d="M127.7,85.4c-3,0-6,0.1-9,0c-2.5-0.1-4.9-0.3-7.3-0.9c-1.4-0.4-2.7-0.9-3.7-1.9c-0.9-0.9-1-1.2-0.4-2.3
		c1.2-2.1,2.9-3.7,5-4.9c3.1-1.8,6.4-2.6,9.9-3c4.9-0.6,9.7-0.5,14.6,0.6c3.7,0.8,7.2,2.3,9.9,5.1c0.7,0.8,1.3,1.6,1.9,2.5
		c0.3,0.6,0.3,1.1-0.2,1.6c-0.7,0.7-1.5,1.3-2.4,1.8c-1.8,0.8-3.6,1.1-5.5,1.3C136.2,85.6,132,85.3,127.7,85.4z"/>
	<path class="st27" d="M160.9,182.2c0.5,1.1,0.3,2.2,0.2,3.3c0,0.6,0,1.2,0.2,1.8c0.8,2.2,1.3,4.4,1.8,6.7c0.4,1.7,0.3,3.4,0,5.2
		c-1.3,6.4-3.8,12.4-7.7,17.6c-5,6.5-11.4,11.2-19.4,13.2c-8.8,2.3-17.2,1.1-25-3.6C100,219.7,94,209.7,92,197.2
		c-0.2-1,0.1-1.9,0.2-2.8c0.4-2.4,1-4.7,1.9-7c0.3-0.7,0.3-1.3,0.3-2c-0.1-1.5-0.3-3,0.2-4.5c1.1,0.4,0.6,1.3,0.7,2
		c4.6-11.4,17.4-21.2,30.8-21.8c16.3-0.7,29.5,10.6,34.1,21.8C160.3,182.6,160.4,182.3,160.9,182.2z"/>
	<path class="st0" d="M160.9,182.2c0,0.9-0.1,1.7-0.1,2.6c-0.1,0-0.2,0.1-0.3,0.1c-0.5-1-1-1.9-1.5-2.9c-1.7-3.5-4-6.6-6.7-9.3
		c-5.9-6-13-9.8-21.5-10.6c-7.4-0.7-14.3,0.9-20.6,4.8c-5.2,3.2-9.2,7.4-12.4,12.5c-0.8,1.3-1.4,2.7-2.1,4c-0.2,0.4-0.4,0.9-1,1.5
		c0-1.6,0-2.8-0.1-4.1c0.3-6.7,1.1-13.3,3.6-19.6c3.6-9.1,10.2-14.6,19.8-16.3c4.6-0.8,9.2-1.2,13.9-0.8c3.2,0.3,6.5,0.5,9.6,1.4
		c3.7,1,7.1,2.7,9.8,5.4c2.5,2.4,4.3,5.3,5.6,8.5c1.7,4.2,2.6,8.5,3.2,13C160.6,175.7,160.9,178.9,160.9,182.2z"/>
	<path class="st28" d="M127.5,462.8c-12.5,0-24.9-0.1-37.4,0c-7.2,0.1-15.1-5.2-15.6-14.9c-0.1-2.9-0.2-5.8,0.2-8.7
		c1.1-7.9,7.3-13.3,15.3-13.3c18.3,0,36.6,0,54.8,0c6.9,0,13.8,0,20.6,0c7.1,0,13.1,4.9,14.7,11.8c0.3,1.2,0.4,2.5,0.5,3.7
		c0,2.6,0.1,5.2-0.2,7.9c-0.8,7.4-7.2,13.4-14.7,13.4C153,462.8,140.2,462.8,127.5,462.8z"/>
	<path class="st0" d="M127.9,215.9c-5.8,0.1-10.4-2.1-14.5-5.9c-4-3.8-6.2-8.5-7.1-13.9c-1.2-7.4,0.4-14.2,5-20.2
		c3.4-4.5,7.9-7.4,13.6-8.1c6.2-0.8,11.7,0.9,16.3,5.1c4.3,3.8,6.9,8.7,7.8,14.3c1.5,9.2-1,17.3-7.9,23.7
		C137.4,214.2,132.9,216,127.9,215.9z"/>
	<path class="st29" d="M149.8,441.7c0-2.6-0.4-2.4,2.5-2.4c0.4,0,0.7,0,1.1,0c1.2,0.1,2,0.8,2.1,2c0.1,1.2-0.4,2.2-1.5,2.6
		c-1.2,0.4-2.4,0.2-3.6,0.2c-0.4,0-0.5-0.3-0.5-0.6C149.8,442.9,149.8,442.3,149.8,441.7z"/>
	<g>
		<path class="st28" d="M82.3,391.3c1.6,0.8,3.4,1.3,5.2,1.2c3,0,5.5-0.8,7.3-2.4c1.8-1.6,3-3.9,3.7-7l2.3-11.8H95l-2.3,11.4
			c-0.2,1-0.5,1.9-0.9,2.8c-0.3,0.7-0.9,1.2-1.5,1.6c-0.7,0.3-1.4,0.5-2.1,0.5c-0.6,0-1.2-0.1-1.7-0.3c-0.5-0.2-0.9-0.5-1.2-0.9
			c-0.3-0.4-0.5-1-0.5-1.5c0-0.7,0-1.5,0.2-2.2l2.2-11.4h-5.8l-2.3,11.5c-0.4,1.7-0.3,3.4,0.3,5.1C79.9,389.4,81,390.5,82.3,391.3z"
			/>
		<polygon class="st28" points="104.7,392.1 107,380.7 113.8,392.1 118.7,392.1 122.8,371.4 117.1,371.4 114.8,382.7 108,371.4 
			103.2,371.4 99,392.1 		"/>
		<polygon class="st28" points="128.3,387 131,384.6 135.7,392.1 142.3,392.1 135.3,380.9 146,371.4 139.1,371.4 129.8,379.8 
			131.4,371.4 125.7,371.4 121.5,392.1 127.3,392.1 		"/>
		<path class="st28" d="M149.9,392.1l2.4-4h8.8l0.8,4h5.9l-5-20.7H157l-13.3,20.7H149.9z M158.8,377l1.4,6.7h-5.4L158.8,377z"/>
		<g>
			<path class="st28" d="M153,408.6c0.6,0.3,1.2,0.4,1.9,0.4c0.7,0,1.3-0.1,2-0.4c0.6-0.3,1.1-0.6,1.5-1.1c0.4-0.5,0.7-1.1,0.9-1.7
				c0.2-0.6,0.3-1.3,0.3-2c0-0.6-0.1-1.2-0.4-1.7c-0.3-0.5-0.7-0.9-1.2-1.2l0,0c-0.6-0.3-1.2-0.4-1.9-0.4c-0.7,0-1.3,0.1-1.9,0.4
				c-0.6,0.3-1.1,0.6-1.5,1.1c-0.4,0.5-0.7,1.1-0.9,1.7c-0.2,0.6-0.3,1.3-0.3,2c0,0.6,0.1,1.2,0.4,1.7
				C152.1,407.9,152.5,408.3,153,408.6z"/>
			<path class="st28" d="M166.6,394.8h-37l-3.4,20.5h37l10.1-10.3L166.6,394.8z M135.7,407.4L135.7,407.4c0.3,0.5,0.8,0.9,1.3,1.2
				c0.6,0.3,1.4,0.4,2.1,0.4c0.6,0,1.3-0.1,1.9-0.3c0,0,0.1,0,0.1,0l0.4-2h-3.3l0.8-2.9h6.9l-1.5,7.1c-0.8,0.6-1.7,1-2.7,1.3
				c-1,0.3-2.1,0.5-3.2,0.5c-1.4,0-2.7-0.3-4-0.8c-2.2-1-3.6-3.3-3.5-5.7c0-1.2,0.2-2.4,0.7-3.6c0.4-1.1,1.1-2,1.9-2.8
				c0.9-0.8,1.9-1.5,3-1.9c1.2-0.5,2.5-0.7,3.9-0.7c1.3,0,2.6,0.2,3.8,0.7c1,0.4,2,1.1,2.6,2l-3,2.4c-0.4-0.6-1-1-1.6-1.3
				c-0.7-0.3-1.3-0.4-2-0.4c-0.7,0-1.4,0.1-2.1,0.4c-0.6,0.2-1.1,0.6-1.6,1.1c-0.4,0.5-0.8,1-1,1.6c-0.2,0.7-0.4,1.4-0.4,2.1
				C135.2,406.2,135.4,406.9,135.7,407.4z M163.8,403.5c0,1.2-0.2,2.4-0.7,3.6h0c-0.4,1.1-1.1,2-1.9,2.8c-0.8,0.8-1.9,1.4-3,1.9
				c-1.2,0.4-2.5,0.7-3.8,0.7c-1.4,0-2.7-0.2-3.9-0.8c-1.1-0.5-1.9-1.3-2.6-2.3c-0.6-1-0.9-2.2-0.9-3.4c0-1.2,0.2-2.4,0.7-3.6
				c0.4-1.1,1.1-2,1.9-2.8c0.8-0.8,1.8-1.4,2.9-1.9c1.2-0.5,2.5-0.7,3.8-0.7c1.4,0,2.7,0.3,3.9,0.8c1.1,0.5,2,1.3,2.6,2.3
				C163.5,401.2,163.9,402.3,163.8,403.5z"/>
		</g>
	</g>
	<g>
		<path class="st9" d="M93.4,438.9c-1-0.5-2.1-0.8-3.4-0.8h-5.3v12.1H90c1.3,0,2.4-0.3,3.4-0.8c1-0.5,1.8-1.2,2.3-2.1
			c0.6-0.9,0.8-2,0.8-3.2c0-1.2-0.3-2.3-0.8-3.2C95.2,440.1,94.4,439.4,93.4,438.9z M93.7,446.4c-0.4,0.6-0.9,1.1-1.6,1.5
			c-0.7,0.3-1.5,0.5-2.4,0.5h-2.9V440h2.9c0.9,0,1.7,0.2,2.4,0.5c0.7,0.3,1.2,0.8,1.6,1.4c0.4,0.6,0.6,1.3,0.6,2.2
			C94.3,445,94.1,445.7,93.7,446.4z"/>
		<polygon class="st9" points="101.2,445 107.1,445 107.1,443.2 101.2,443.2 101.2,440 107.8,440 107.8,438.1 99,438.1 99,450.3 
			108.1,450.3 108.1,448.3 101.2,448.3 		"/>
		<polygon class="st9" points="112.8,438.1 110.6,438.1 110.6,450.3 119.2,450.3 119.2,448.3 112.8,448.3 		"/>
		<rect x="121" y="438.1" class="st9" width="2.3" height="12.1"/>
		<polygon class="st9" points="131.2,447.5 127.2,438.1 124.7,438.1 130,450.3 132.2,450.3 137.5,438.1 135.3,438.1 		"/>
		<polygon class="st9" points="141.1,445 146.9,445 146.9,443.2 141.1,443.2 141.1,440 147.7,440 147.7,438.1 138.8,438.1 
			138.8,450.3 147.9,450.3 147.9,448.3 141.1,448.3 		"/>
		<path class="st9" d="M158.2,446.2c0.8-0.3,1.4-0.8,1.8-1.5c0.4-0.6,0.6-1.4,0.6-2.3c0-0.9-0.2-1.7-0.6-2.3c-0.4-0.6-1-1.1-1.8-1.5
			c-0.8-0.3-1.7-0.5-2.8-0.5h-5v12.1h2.3v-3.5h2.7c0.2,0,0.3,0,0.5,0l2.5,3.6h2.4l-2.8-4C158.1,446.2,158.1,446.2,158.2,446.2z
			 M157.6,440.7c0.5,0.4,0.8,1,0.8,1.8c0,0.8-0.3,1.4-0.8,1.8c-0.5,0.4-1.3,0.6-2.2,0.6h-2.6V440h2.6
			C156.3,440,157.1,440.2,157.6,440.7z"/>
		<polygon class="st9" points="172.9,438.1 170.7,438.1 167.1,444 163.6,438.1 161.2,438.1 165.9,446 165.9,450.3 168.2,450.3 
			168.2,446 		"/>
	</g>
</g>
</svg>
