<svg width="25" height="18" viewBox="0 0 25 18" fill="none" xmlns="http://www.w3.org/2000/svg">
<g clip-path="url(#clip0_152_26)">
<path d="M21.7742 0H3.19355C2.34657 0 1.53428 0.336461 0.93537 0.935367C0.336463 1.53427 0 2.34657 0 3.19355V14.8065C0 15.2258 0.0826034 15.6411 0.243094 16.0286C0.403586 16.416 0.63882 16.7681 0.93537 17.0646C1.23192 17.3612 1.58397 17.5964 1.97143 17.7569C2.35889 17.9174 2.77417 18 3.19355 18H21.7742C22.6212 18 23.4335 17.6635 24.0324 17.0646C24.6313 16.4657 24.9677 15.6534 24.9677 14.8065V3.19355C24.9677 2.34657 24.6313 1.53427 24.0324 0.935367C23.4335 0.336461 22.6212 0 21.7742 0ZM23.2258 14.8645C23.2183 15.0552 23.1733 15.2425 23.0934 15.4158C23.0134 15.5891 22.9001 15.7449 22.7599 15.8743C22.6197 16.0037 22.4553 16.1043 22.2762 16.1701C22.0971 16.2359 21.9068 16.2658 21.7161 16.2581H3.25161C3.06096 16.2658 2.87062 16.2359 2.69152 16.1701C2.51241 16.1043 2.34805 16.0037 2.20783 15.8743C2.06762 15.7449 1.95429 15.5891 1.87435 15.4158C1.79441 15.2425 1.74941 15.0552 1.74194 14.8645V9H23.2258V14.8645ZM23.2258 3.48387H1.74194V3.13548C1.74941 2.9448 1.79441 2.75747 1.87435 2.5842C1.95429 2.41093 2.06762 2.25512 2.20783 2.12569C2.34805 1.99626 2.51241 1.89574 2.69152 1.82989C2.87062 1.76405 3.06096 1.73415 3.25161 1.74194H21.7161C21.9068 1.73415 22.0971 1.76405 22.2762 1.82989C22.4553 1.89574 22.6197 1.99626 22.7599 2.12569C22.9001 2.25512 23.0134 2.41093 23.0934 2.5842C23.1733 2.75747 23.2183 2.9448 23.2258 3.13548V3.48387Z" fill="white"/>
<path d="M10.9161 13.3552H21.1936C21.4245 13.3552 21.6461 13.2634 21.8094 13.1001C21.9727 12.9368 22.0645 12.7152 22.0645 12.4842C22.0645 12.2533 21.9727 12.0317 21.8094 11.8684C21.6461 11.7051 21.4245 11.6133 21.1936 11.6133H10.9161C10.6851 11.6133 10.4636 11.7051 10.3003 11.8684C10.1369 12.0317 10.0452 12.2533 10.0452 12.4842C10.0452 12.7152 10.1369 12.9368 10.3003 13.1001C10.4636 13.2634 10.6851 13.3552 10.9161 13.3552Z" fill="white"/>
</g>
<defs>
<clipPath id="clip0_152_26">
<rect width="24.9677" height="18" fill="white"/>
</clipPath>
</defs>
</svg>
