<svg width="33" height="18" viewBox="0 0 33 18" fill="none" xmlns="http://www.w3.org/2000/svg">
<g clip-path="url(#clip0_161_65)">
<path d="M29.025 9.99452C27.046 8.70819 24.7042 7.94959 22.3625 7.68572C19.9877 7.42186 17.5799 7.71871 15.3041 8.37837C13.0283 9.03802 10.8514 10.1594 9.0044 11.6437C8.08088 12.4023 7.22333 13.2268 6.46473 14.1504C5.70612 15.0739 5.07945 16.0963 4.55172 17.1848C4.41979 17.4816 4.51874 17.8115 4.81558 17.9434C5.11243 18.0753 5.44226 17.9764 5.60717 17.6795C6.10191 16.69 6.72859 15.7665 7.42123 14.909C8.11387 14.0514 8.93844 13.2598 9.79599 12.5672C11.5441 11.1819 13.556 10.1265 15.6669 9.43382C17.8108 8.74118 20.0537 8.44433 22.2965 8.60925C24.5393 8.77416 26.7492 9.36785 28.6952 10.4893C28.8601 10.5882 29.025 10.5222 29.1239 10.3903C29.2229 10.2914 29.1899 10.0935 29.025 9.99452Z" fill="white"/>
<path d="M4.2218 2.86914C1.88002 2.86914 0 4.74916 0 7.09094C0 9.43273 4.2218 14.9409 4.2218 14.9409C4.2218 14.9409 8.47659 9.43273 8.47659 7.09094C8.47659 4.78214 6.56359 2.86914 4.2218 2.86914ZM4.2218 9.59764C2.86951 9.59764 1.74809 8.47622 1.74809 7.12393C1.74809 5.77163 2.86951 4.65021 4.2218 4.65021C5.5741 4.65021 6.69552 5.77163 6.69552 7.12393C6.69552 8.47622 5.60708 9.59764 4.2218 9.59764Z" fill="white"/>
<path d="M32.0923 3.23232C32.0923 1.45124 30.6411 0 28.86 0C27.0789 0 25.6277 1.45124 25.6277 3.23232C25.6277 5.01339 28.86 9.23519 28.86 9.23519C28.86 9.23519 32.0923 5.04637 32.0923 3.23232ZM26.98 3.23232C26.98 2.17687 27.8375 1.3523 28.86 1.3523C29.8825 1.3523 30.74 2.20985 30.74 3.23232C30.74 4.28777 29.8825 5.11234 28.86 5.11234C27.8375 5.11234 26.98 4.28777 26.98 3.23232Z" fill="white"/>
</g>
<defs>
<clipPath id="clip0_161_65">
<rect width="33" height="18" fill="white"/>
</clipPath>
</defs>
</svg>
