<svg width="14" height="14" viewBox="0 0 14 14" fill="none" xmlns="http://www.w3.org/2000/svg">
<path d="M10.5 0.7C10.5 0.514348 10.4263 0.336301 10.295 0.205025C10.1637 0.0737498 9.98565 0 9.8 0C9.61435 0 9.4363 0.0737498 9.30503 0.205025C9.17375 0.336301 9.1 0.514348 9.1 0.7H4.9C4.9 0.514348 4.82625 0.336301 4.69497 0.205025C4.5637 0.0737498 4.38565 0 4.2 0C4.01435 0 3.8363 0.0737498 3.70503 0.205025C3.57375 0.336301 3.5 0.514348 3.5 0.7C2.57208 0.701111 1.68249 1.07022 1.02635 1.72635C0.370217 2.38249 0.0011115 3.27208 0 4.2V10.5C0.0011115 11.4279 0.370217 12.3175 1.02635 12.9736C1.68249 13.6298 2.57208 13.9989 3.5 14H10.5C11.4279 13.9989 12.3175 13.6298 12.9736 12.9736C13.6298 12.3175 13.9989 11.4279 14 10.5V4.2C13.9989 3.27208 13.6298 2.38249 12.9736 1.72635C12.3175 1.07022 11.4279 0.701111 10.5 0.7ZM3.5 2.1V2.8C3.5 2.98565 3.57375 3.1637 3.70503 3.29497C3.8363 3.42625 4.01435 3.5 4.2 3.5C4.38565 3.5 4.5637 3.42625 4.69497 3.29497C4.82625 3.1637 4.9 2.98565 4.9 2.8V2.1H9.1V2.8C9.1 2.98565 9.17375 3.1637 9.30503 3.29497C9.4363 3.42625 9.61435 3.5 9.8 3.5C9.98565 3.5 10.1637 3.42625 10.295 3.29497C10.4263 3.1637 10.5 2.98565 10.5 2.8V2.1C11.057 2.1 11.5911 2.32125 11.9849 2.71508C12.3788 3.1089 12.6 3.64305 12.6 4.2H1.4C1.4 3.64305 1.62125 3.1089 2.01508 2.71508C2.4089 2.32125 2.94305 2.1 3.5 2.1V2.1ZM10.5 12.6H3.5C2.94305 12.6 2.4089 12.3788 2.01508 11.9849C1.62125 11.5911 1.4 11.057 1.4 10.5V5.6H12.6V10.5C12.6 11.057 12.3788 11.5911 11.9849 11.9849C11.5911 12.3788 11.057 12.6 10.5 12.6ZM10.5 7.7C10.5 7.83845 10.4589 7.97378 10.382 8.0889C10.3051 8.20401 10.1958 8.29373 10.0679 8.34672C9.93997 8.3997 9.79922 8.41356 9.66344 8.38655C9.52765 8.35954 9.40292 8.29287 9.30503 8.19497C9.20713 8.09708 9.14046 7.97235 9.11345 7.83656C9.08644 7.70078 9.1003 7.56003 9.15328 7.43212C9.20627 7.30421 9.29599 7.19489 9.4111 7.11797C9.52621 7.04105 9.66155 7 9.8 7C9.98565 7 10.1637 7.07375 10.295 7.20503C10.4263 7.3363 10.5 7.51435 10.5 7.7ZM7.7 7.7C7.7 7.83845 7.65895 7.97378 7.58203 8.0889C7.50511 8.20401 7.39579 8.29373 7.26788 8.34672C7.13997 8.3997 6.99922 8.41356 6.86344 8.38655C6.72765 8.35954 6.60292 8.29287 6.50503 8.19497C6.40713 8.09708 6.34046 7.97235 6.31345 7.83656C6.28644 7.70078 6.3003 7.56003 6.35328 7.43212C6.40627 7.30421 6.49599 7.19489 6.6111 7.11797C6.72621 7.04105 6.86155 7 7 7C7.18565 7 7.3637 7.07375 7.49497 7.20503C7.62625 7.3363 7.7 7.51435 7.7 7.7ZM4.9 7.7C4.9 7.83845 4.85895 7.97378 4.78203 8.0889C4.70511 8.20401 4.59579 8.29373 4.46788 8.34672C4.33997 8.3997 4.19922 8.41356 4.06344 8.38655C3.92765 8.35954 3.80292 8.29287 3.70503 8.19497C3.60713 8.09708 3.54046 7.97235 3.51345 7.83656C3.48644 7.70078 3.5003 7.56003 3.55328 7.43212C3.60627 7.30421 3.69599 7.19489 3.8111 7.11797C3.92622 7.04105 4.06155 7 4.2 7C4.38565 7 4.5637 7.07375 4.69497 7.20503C4.82625 7.3363 4.9 7.51435 4.9 7.7ZM10.5 10.5C10.5 10.6384 10.4589 10.7738 10.382 10.8889C10.3051 11.004 10.1958 11.0937 10.0679 11.1467C9.93997 11.1997 9.79922 11.2136 9.66344 11.1865C9.52765 11.1595 9.40292 11.0929 9.30503 10.995C9.20713 10.8971 9.14046 10.7724 9.11345 10.6366C9.08644 10.5008 9.1003 10.36 9.15328 10.2321C9.20627 10.1042 9.29599 9.99489 9.4111 9.91797C9.52621 9.84105 9.66155 9.8 9.8 9.8C9.98565 9.8 10.1637 9.87375 10.295 10.005C10.4263 10.1363 10.5 10.3143 10.5 10.5ZM7.7 10.5C7.7 10.6384 7.65895 10.7738 7.58203 10.8889C7.50511 11.004 7.39579 11.0937 7.26788 11.1467C7.13997 11.1997 6.99922 11.2136 6.86344 11.1865C6.72765 11.1595 6.60292 11.0929 6.50503 10.995C6.40713 10.8971 6.34046 10.7724 6.31345 10.6366C6.28644 10.5008 6.3003 10.36 6.35328 10.2321C6.40627 10.1042 6.49599 9.99489 6.6111 9.91797C6.72621 9.84105 6.86155 9.8 7 9.8C7.18565 9.8 7.3637 9.87375 7.49497 10.005C7.62625 10.1363 7.7 10.3143 7.7 10.5ZM4.9 10.5C4.9 10.6384 4.85895 10.7738 4.78203 10.8889C4.70511 11.004 4.59579 11.0937 4.46788 11.1467C4.33997 11.1997 4.19922 11.2136 4.06344 11.1865C3.92765 11.1595 3.80292 11.0929 3.70503 10.995C3.60713 10.8971 3.54046 10.7724 3.51345 10.6366C3.48644 10.5008 3.5003 10.36 3.55328 10.2321C3.60627 10.1042 3.69599 9.99489 3.8111 9.91797C3.92622 9.84105 4.06155 9.8 4.2 9.8C4.38565 9.8 4.5637 9.87375 4.69497 10.005C4.82625 10.1363 4.9 10.3143 4.9 10.5Z" fill="#FF742B"/>
</svg>
