<svg width="100" height="125" viewBox="0 0 100 125" fill="none" xmlns="http://www.w3.org/2000/svg">
<path d="M74.6003 84.6996C80.6003 84.6996 85.4003 79.8996 85.4003 73.8996C85.4003 67.8996 80.6003 63.0996 74.6003 63.0996C68.6003 63.0996 63.8003 67.8996 63.8003 73.8996C63.8003 79.7996 68.6003 84.6996 74.6003 84.6996Z" fill="#FF742B"/>
<path d="M45.8004 60.5988C52.9249 60.5988 58.7004 54.8233 58.7004 47.6988C58.7004 40.5744 52.9249 34.7988 45.8004 34.7988C38.6759 34.7988 32.9004 40.5744 32.9004 47.6988C32.9004 54.8233 38.6759 60.5988 45.8004 60.5988Z" fill="#FF742B"/>
<path d="M60.8002 86.9992C62.0002 86.1992 63.2002 85.4992 64.6002 84.8992C64.4002 84.6992 64.3002 84.5992 64.1002 84.4992C61.3002 81.6992 59.7002 77.8992 59.7002 73.9992C59.7002 69.9992 61.3002 66.2992 64.1002 63.4992C66.9002 60.6992 70.7002 59.0992 74.6002 59.0992C77.6002 59.0992 80.4002 59.9992 82.7002 61.4992C84.2002 56.8992 84.9002 52.2992 84.9002 47.7992C84.9002 26.2992 67.4002 8.69922 45.8002 8.69922C24.2002 8.69922 6.7002 26.1992 6.7002 47.6992C6.7002 58.1992 10.6002 68.8992 18.6002 80.1992C25.3002 89.5992 33.6002 97.7992 40.4002 104.499C41.5002 105.499 42.5002 106.499 43.4002 107.499C44.1002 108.199 44.9002 108.499 45.8002 108.499C46.7002 108.499 47.5002 108.199 48.2002 107.499C49.2002 106.499 50.2002 105.499 51.2002 104.499C51.4002 104.299 51.6002 104.099 51.7002 103.999V103.399C51.8002 96.5992 55.3002 90.6992 60.8002 86.9992ZM45.8002 67.3992C34.9002 67.3992 26.1002 58.5992 26.1002 47.6992C26.1002 36.7992 34.9002 27.9992 45.8002 27.9992C56.7002 27.9992 65.5002 36.7992 65.5002 47.6992C65.5002 58.5992 56.7002 67.3992 45.8002 67.3992Z" fill="#FF742B"/>
<path d="M93.3004 108.399V103.299C93.3004 94.1988 84.9004 86.7988 74.6004 86.7988C64.3004 86.7988 55.9004 94.1988 55.9004 103.299V108.399H93.3004Z" fill="#FF742B"/>
</svg>
