<svg viewBox="0 0 72 72" xmlns="http://www.w3.org/2000/svg"><path d="m12.0133 16.0194c0 7.5 5 13.75 5 13.75s5-6.25 5-13.75" fill="#61b2e4"/><circle cx="17.0133" cy="16.0194" fill="#92d3f5" r="5"/><path d="m50.0133 44.0194c0 7.5 5 13.75 5 13.75s5-6.25 5-13.75" fill="#d22f27"/><circle cx="55.0133" cy="44.0194" fill="#ea5a47" r="5"/><g fill="none" stroke="#000" stroke-miterlimit="10" stroke-width="2"><path d="m12.0133 16.0194c0 7.5 5 13.75 5 13.75s5-6.25 5-13.75" stroke-linecap="round" stroke-linejoin="round"/><circle cx="17.0133" cy="16.0194" r="5"/><path d="m50.0133 44.0194c0 7.5 5 13.75 5 13.75s5-6.25 5-13.75" stroke-linecap="round" stroke-linejoin="round"/><circle cx="55.0133" cy="44.0194" r="5"/><path d="m17 33s16 0 17 14 16 14 21 14" stroke-linecap="round" stroke-linejoin="round"/><path d="m31.9713 21.7413 12.0574 10.5174" stroke-linecap="round" stroke-linejoin="round"/><path d="m43.5475 25.2041.4812 7.0546" stroke-linecap="round" stroke-linejoin="round"/><path d="m36.9741 32.74 7.0546-.4813" stroke-linecap="round" stroke-linejoin="round"/></g></svg>