<svg width="18" height="18" viewBox="0 0 18 18" fill="none" xmlns="http://www.w3.org/2000/svg">
<path d="M6.00837 12.739C5.95398 12.509 5.91122 12.2723 5.88059 12.0306C4.67631 12.3638 3.97059 12.8557 3.97059 13.2354C3.97059 13.9731 6.20323 14.8237 9 14.8237C9.52401 14.8237 10.0375 14.795 10.5286 14.7393C10.8191 14.7064 11.0813 14.9152 11.1143 15.2057C11.1472 15.4963 10.9384 15.7585 10.6479 15.7914C10.1169 15.8516 9.56362 15.8825 9 15.8825C5.65666 15.8825 2.91176 14.8368 2.91176 13.2354C2.91176 12.1829 4.05737 11.3896 5.82543 10.9498C5.83212 10.6541 5.85647 10.3626 5.89782 10.0782C2.98484 10.6358 1.05882 11.9297 1.05882 13.2354C1.05882 13.9297 1.6036 14.6444 2.64997 15.2574C2.90225 15.4052 2.98694 15.7295 2.83915 15.9818C2.69135 16.2341 2.36702 16.3188 2.11474 16.171C0.776037 15.3867 0 14.3686 0 13.2354C0 11.179 2.54966 9.5374 6.16154 8.95672C6.43793 8.12826 6.87086 7.43547 7.41177 6.97331V5.29425C7.41177 4.70948 7.88582 4.23542 8.47059 4.23542H8.60129C9.08564 2.8888 10.4244 2.11778 12.4412 2.11778C14.0486 2.11778 14.8315 1.49147 15.104 0.401148C15.175 0.117491 15.4624 -0.0549826 15.7461 0.0159313C16.0297 0.0868452 16.2022 0.374281 16.1313 0.657937C15.7421 2.21468 14.5397 3.1766 12.4412 3.1766C11.0568 3.1766 10.179 3.56771 9.7579 4.26014C10.2328 4.36461 10.5882 4.78792 10.5882 5.29425V6.97331C11.1291 7.43547 11.5621 8.12826 11.8385 8.95672C15.4503 9.5374 18 11.179 18 13.2354C18 15.8301 13.9354 17.7354 9 17.7354C7.55385 17.7354 6.15642 17.5701 4.9014 17.2574C4.61769 17.1867 4.44501 16.8994 4.51571 16.6156C4.58641 16.3319 4.87372 16.1593 5.15743 16.23C6.32714 16.5215 7.63866 16.6766 9 16.6766C13.4209 16.6766 16.9412 15.0265 16.9412 13.2354C16.9412 11.9297 15.0152 10.6358 12.1022 10.0782C12.1435 10.3626 12.1679 10.6541 12.1746 10.9498C13.9426 11.3896 15.0882 12.1829 15.0882 13.2354C15.0882 14.0067 14.4707 14.6341 13.4516 15.0903C13.1847 15.2097 12.8716 15.0903 12.7521 14.8234C12.6326 14.5565 12.7521 14.2433 13.019 14.1239C13.6985 13.8197 14.0294 13.4835 14.0294 13.2354C14.0294 12.8557 13.3237 12.3638 12.1194 12.0306C12.0888 12.2723 12.046 12.509 11.9916 12.739C11.9974 12.737 12.0032 12.7351 12.0091 12.7332C12.2864 12.6407 12.5863 12.7906 12.6787 13.068C12.7712 13.3454 12.6213 13.6452 12.3439 13.7377C11.9968 13.8534 11.6494 13.9511 11.3017 14.0307L11.3008 14.0309C10.5347 14.2064 9.76756 14.2942 9 14.2942C8.23244 14.2942 7.46528 14.2064 6.69923 14.0309L6.69828 14.0307C6.35062 13.9511 6.00321 13.8534 5.65611 13.7377C5.37873 13.6452 5.22882 13.3454 5.32128 13.068C5.41375 12.7906 5.71356 12.6407 5.99095 12.7332C5.99676 12.7351 6.00257 12.737 6.00837 12.739ZM6.88249 11.1595C6.88694 11.8398 7.00021 12.4899 7.20534 13.0566C7.80417 13.1759 8.40224 13.2354 9 13.2354C9.59776 13.2354 10.1958 13.1759 10.7947 13.0566C10.9998 12.4899 11.1131 11.8398 11.1175 11.1595C10.4124 11.3081 9.70641 11.3825 9 11.3825C8.29359 11.3825 7.58758 11.3081 6.88249 11.1595ZM6.96683 10.0942C7.64545 10.2473 8.32295 10.3237 9 10.3237C9.67705 10.3237 10.3546 10.2473 11.0332 10.0942C10.7679 8.52627 9.91485 7.4119 9 7.4119C8.08515 7.4119 7.23207 8.52627 6.96683 10.0942ZM9.52941 5.29425H8.47059V6.41712C8.64355 6.37479 8.8205 6.35307 9 6.35307C9.1795 6.35307 9.35645 6.37479 9.52941 6.41712V5.29425Z" fill="white"/>
</svg>
