<svg width="780" height="363" viewBox="0 0 780 363" fill="none" xmlns="http://www.w3.org/2000/svg">
<path d="M28.771 164.2C41.871 171.2 56.671 174.6 71.571 174.1C96.571 174.1 116.671 167.6 131.671 154.5C146.671 141.4 156.871 122.3 162.071 97.0996L181.071 0.0996094H133.771L114.971 93.8996C113.671 102 111.071 109.9 107.271 117.2C104.471 122.6 100.171 127.1 94.871 130.1C89.471 132.9 83.471 134.3 77.471 134.1C72.571 134.2 67.771 133.4 63.171 131.7C59.371 130.2 56.071 127.6 53.671 124.3C51.171 120.6 49.671 116.3 49.371 111.9C48.971 105.9 49.471 99.8996 50.871 93.9996L69.371 0.0996094H21.071L2.07096 94.6996C-1.32904 108.6 -0.529033 123.1 4.37097 136.5C9.07097 148.2 17.671 158 28.771 164.2Z" fill="white"/>
<path d="M213.771 170.6L232.471 77.2L288.871 170.6H328.571L362.771 0H315.471L296.971 93.5L240.371 0H200.671L166.471 170.6H213.771Z" fill="white"/>
<path d="M408.271 128.6L430.171 109L469.371 170.6H523.571L466.071 78.1L553.771 0H496.971L420.071 69.7L434.071 0H386.271L352.171 170.6H399.871L408.271 128.6Z" fill="white"/>
<path d="M586.571 170.6L606.271 137.2H678.671L685.571 170.6H733.871L692.471 0H644.971L535.371 170.6H586.571ZM659.971 46.5L671.371 101.9H627.171L659.971 46.5Z" fill="white"/>
<path d="M592.071 332C602.271 336.8 613.371 339.1 624.571 338.8C635.171 338.9 645.671 337.1 655.571 333.4C664.671 330 672.971 324.8 679.971 318C686.771 311.4 692.171 303.5 695.771 294.7C699.571 285.3 701.371 275.3 701.271 265.1C701.471 255.2 698.871 245.5 693.871 237C688.871 228.7 681.471 222.1 672.771 217.9C662.571 213.1 651.471 210.8 640.271 211.1C629.671 211 619.171 212.8 609.171 216.5C600.171 219.9 591.871 225.1 584.971 231.9C578.171 238.5 572.771 246.5 569.171 255.2C565.371 264.6 563.471 274.6 563.571 284.8C563.371 294.7 565.971 304.5 571.071 313C576.071 321.1 583.371 327.7 592.071 332ZM601.271 266.2C602.971 261.2 605.571 256.5 608.971 252.4C612.271 248.5 616.471 245.3 621.171 243.1C626.171 240.8 631.671 239.7 637.271 239.8C642.671 239.6 648.071 240.8 652.871 243.2C657.071 245.4 660.471 248.7 662.771 252.9C665.071 257.3 666.271 262.2 666.171 267.2C666.171 272.8 665.371 278.3 663.671 283.6C662.071 288.6 659.471 293.3 656.071 297.4C652.771 301.3 648.571 304.5 643.871 306.7C638.771 309 633.271 310.1 627.671 310C622.271 310.2 616.871 309 611.971 306.6C607.771 304.4 604.371 301.1 602.171 296.9C599.871 292.5 598.671 287.6 598.771 282.6C598.671 277.1 599.471 271.5 601.271 266.2Z" fill="white"/>
<path d="M459.571 331.9C469.771 336.7 480.971 339 492.271 338.7C501.171 338.7 510.071 337.4 518.571 334.8C526.471 332.4 533.971 328.7 540.671 323.9L552.771 265.7H496.071L489.071 289.9H516.471L513.071 306.8C512.771 306.9 512.571 307 512.271 307.1C507.271 308.9 501.971 309.8 496.671 309.8C490.771 310 484.971 308.8 479.671 306.4C475.171 304.3 471.471 301 468.971 296.7C466.471 292.3 465.171 287.3 465.271 282.2C465.171 276.4 466.171 270.7 468.171 265.3C469.971 260.3 472.871 255.6 476.471 251.7C480.171 247.8 484.571 244.8 489.571 242.8C494.971 240.6 500.871 239.6 506.671 239.6C512.471 239.5 518.171 240.5 523.471 242.6C528.771 244.9 533.271 248.6 536.671 253.3L561.971 233.7C556.271 226.3 548.771 220.5 540.171 216.9C530.071 212.8 519.271 210.8 508.371 211.1C497.471 211 486.771 212.8 476.571 216.5C467.371 219.9 458.971 225.1 451.871 231.9C444.971 238.5 439.571 246.5 435.971 255.3C432.171 264.7 430.271 274.7 430.371 284.8C429.771 304.9 441.271 323.5 459.571 331.9Z" fill="white"/>
<path d="M611.871 306.599C616.771 308.999 622.171 310.199 627.571 309.999C633.171 310.099 638.671 308.999 643.771 306.699C648.471 304.499 652.571 301.299 655.971 297.399C659.371 293.399 661.971 288.699 663.571 283.599C665.271 278.299 666.171 272.799 666.071 267.199C666.171 262.199 664.971 257.299 662.671 252.899C660.371 248.799 656.971 245.399 652.771 243.199C647.971 240.799 642.571 239.599 637.171 239.799C631.671 239.699 626.171 240.799 621.071 243.099C616.371 245.299 612.271 248.499 608.871 252.399C605.471 256.499 602.771 261.099 601.171 266.199C599.371 271.499 598.471 276.999 598.571 282.599C598.471 287.599 599.671 292.499 601.971 296.899C604.271 301.099 607.771 304.399 611.871 306.599Z" fill="#FF742B"/>
<path d="M724.371 193.199H418.971L390.971 362.699H696.371L779.771 277.999L724.371 193.199ZM469.171 296.999C471.671 301.199 475.371 304.599 479.871 306.599C485.171 308.999 491.071 310.199 496.871 309.999C502.171 309.999 507.471 309.099 512.471 307.299C512.771 307.199 512.971 307.099 513.271 306.999L516.671 290.099H489.271L496.271 265.899H552.971L540.871 324.099C534.171 328.899 526.671 332.599 518.771 334.999C510.271 337.599 501.371 338.899 492.471 338.899C481.171 339.199 469.971 336.799 459.771 332.099C441.471 323.599 429.971 305.099 430.571 284.899C430.471 274.799 432.371 264.799 436.171 255.399C439.771 246.599 445.171 238.599 452.071 231.999C459.171 225.199 467.571 219.999 476.771 216.599C486.971 212.899 497.771 210.999 508.571 211.199C519.471 210.899 530.271 212.899 540.371 216.999C548.971 220.599 556.471 226.399 562.171 233.799L537.071 253.599C533.771 248.899 529.171 245.199 523.871 242.899C518.471 240.799 512.771 239.799 507.071 239.899C501.171 239.799 495.371 240.899 489.971 243.099C485.071 245.099 480.571 248.199 476.871 251.999C473.171 255.899 470.371 260.499 468.571 265.599C466.571 270.999 465.571 276.799 465.671 282.499C465.371 287.599 466.671 292.599 469.171 296.999ZM701.271 265.099C701.371 275.199 699.471 285.299 695.771 294.699C692.171 303.499 686.771 311.399 679.971 317.999C672.971 324.699 664.671 329.899 655.571 333.399C645.671 337.099 635.171 338.999 624.571 338.799C613.371 339.099 602.171 336.799 592.071 331.999C583.371 327.799 576.071 321.199 570.971 312.999C565.871 304.499 563.271 294.699 563.471 284.799C563.371 274.699 565.271 264.599 569.071 255.199C572.671 246.399 578.071 238.499 584.871 231.899C591.771 225.199 600.071 219.999 609.071 216.499C618.971 212.799 629.571 210.899 640.171 211.099C651.371 210.799 662.571 213.199 672.671 217.899C681.471 222.099 688.771 228.699 693.771 236.999C698.871 245.499 701.471 255.299 701.271 265.099Z" fill="#FF742B"/>
</svg>
