<svg width="23" height="18" viewBox="0 0 23 18" fill="none" xmlns="http://www.w3.org/2000/svg">
<g clip-path="url(#clip0_161_60)">
<path d="M20.0507 12.3721C18.6836 11.4835 17.0659 10.9595 15.4481 10.7772C13.8076 10.5949 12.1443 10.8 10.5722 11.2557C9.00004 11.7114 7.49624 12.486 6.22029 13.5114C5.58232 14.0354 4.98991 14.605 4.46586 15.243C3.94181 15.881 3.5089 16.5873 3.14434 17.3392C3.05321 17.5443 3.12156 17.7721 3.32662 17.8632C3.53169 17.9544 3.75953 17.886 3.87346 17.681C4.21523 16.9974 4.64814 16.3595 5.12662 15.767C5.6051 15.1746 6.17472 14.6278 6.76713 14.1493C7.97472 13.1924 9.3646 12.4632 10.8228 11.9848C12.3038 11.5063 13.8532 11.3012 15.4026 11.4151C16.9519 11.5291 18.4785 11.9392 19.8228 12.7139C19.9367 12.7822 20.0507 12.7367 20.119 12.6455C20.1874 12.5772 20.1646 12.4405 20.0507 12.3721Z" fill="white"/>
<path d="M2.91646 7.45117C1.29873 7.45117 0 8.74991 0 10.3676C0 11.9853 2.91646 15.7904 2.91646 15.7904C2.91646 15.7904 5.8557 11.9853 5.8557 10.3676C5.8557 8.77269 4.53418 7.45117 2.91646 7.45117ZM2.91646 12.0993C1.98228 12.0993 1.20759 11.3246 1.20759 10.3904C1.20759 9.45624 1.98228 8.68155 2.91646 8.68155C3.85063 8.68155 4.62532 9.45624 4.62532 10.3904C4.62532 11.3246 3.87342 12.0993 2.91646 12.0993Z" fill="white"/>
<path d="M22.1697 7.70166C22.1697 6.47128 21.1671 5.46875 19.9368 5.46875C18.7064 5.46875 17.7039 6.47128 17.7039 7.70166C17.7039 8.93204 19.9368 11.8485 19.9368 11.8485C19.9368 11.8485 22.1697 8.95483 22.1697 7.70166ZM18.638 7.70166C18.638 6.97255 19.2304 6.40293 19.9368 6.40293C20.6431 6.40293 21.2355 6.99533 21.2355 7.70166C21.2355 8.43078 20.6431 9.0004 19.9368 9.0004C19.2304 9.0004 18.638 8.43078 18.638 7.70166Z" fill="white"/>
<path d="M13.2796 1.29552C12.8304 1.29552 12.4035 1.29552 11.9749 1.29552C11.8778 1.29552 11.782 1.27373 11.6946 1.23175C11.6071 1.18977 11.5301 1.12868 11.4694 1.05298C11.4086 0.977279 11.3657 0.888911 11.3437 0.794392C11.3217 0.699876 11.3212 0.601626 11.3423 0.506894C11.3717 0.368127 11.4468 0.243237 11.5556 0.152178C11.6644 0.0611198 11.8005 0.00914954 11.9423 0.00457176C12.6281 0.00457176 13.3293 -0.0057147 14.0236 0.00457176C14.7471 0.018287 15.4603 0.72291 15.4826 1.45839C15.5031 2.15616 15.4928 2.85564 15.4826 3.55511C15.4741 3.7201 15.4025 3.87554 15.2827 3.9893C15.1629 4.10307 15.004 4.1665 14.8388 4.1665C14.6736 4.1665 14.5147 4.10307 14.3949 3.9893C14.2751 3.87554 14.2036 3.7201 14.195 3.55511C14.195 3.13681 14.195 2.71848 14.195 2.28646C14.1371 2.30863 14.087 2.34738 14.051 2.3979C13.2007 3.24823 12.3498 4.09801 11.4983 4.94722C11.2246 5.23235 10.8695 5.42591 10.4816 5.50142C10.0937 5.5769 9.69188 5.53065 9.33127 5.36897C9.11707 5.2745 8.92319 5.13943 8.76037 4.97121C7.57857 3.77455 6.39733 2.57961 5.21669 1.38639C5.15301 1.32621 5.10213 1.2538 5.06709 1.17351C5.03205 1.09322 5.01357 1.00668 5.01272 0.919071C5.0119 0.831466 5.02876 0.744594 5.06228 0.663651C5.0958 0.582708 5.14531 0.509359 5.20783 0.447988C5.27035 0.386619 5.34461 0.338491 5.42615 0.306483C5.5077 0.274475 5.59488 0.259243 5.68246 0.261702C5.77002 0.26416 5.85622 0.284256 5.93585 0.32079C6.01546 0.35732 6.08691 0.409539 6.1459 0.47432C7.30141 1.63669 8.45348 2.80078 9.60213 3.96656C9.67885 4.05834 9.77821 4.12847 9.89038 4.16998C10.0026 4.21148 10.1237 4.22291 10.2416 4.20316C10.3778 4.17586 10.5016 4.10555 10.5948 4.00258C11.4817 3.12022 12.3658 2.23616 13.247 1.35038C13.247 1.35038 13.259 1.33152 13.2796 1.29552Z" fill="white"/>
</g>
<defs>
<clipPath id="clip0_161_60">
<rect width="22.3291" height="18" fill="white"/>
</clipPath>
</defs>
</svg>
