<svg width="128" height="289" viewBox="0 0 128 289" fill="none" xmlns="http://www.w3.org/2000/svg">
<g clip-path="url(#clip0_849_400)">
<path d="M120 155.52C120 155.52 118.5 193.27 118.5 199.26C118.5 205.25 120.1 228.26 115.91 254.99L113.71 271.17C113.71 271.17 112.51 280.17 105.92 283.55C105.92 283.55 95.5296 289.94 64.1695 288.45C54.9986 288.989 45.7971 288.654 36.6895 287.45C26.3595 285.93 22.4295 283.51 22.4295 283.51C22.1507 283.369 21.8803 283.212 21.6195 283.04C21.4595 282.95 21.3095 282.85 21.1595 282.75C15.6795 278.94 14.6395 271.13 14.6395 271.13L13.0595 259.9L12.3895 255C8.19946 228.23 9.79946 205.27 9.79946 199.27C9.79946 193.27 8.29946 155.53 8.29946 155.53C8.29946 155.53 6.99946 68.91 8.29946 40.07C9.19946 19.94 11.9095 18.78 16.6895 15.31C22.6895 10.93 33.6895 7.43999 44.2195 5.30999C50.7638 3.89579 57.4264 3.09899 64.1195 2.92999C76.3795 2.92999 101.27 7.82999 111.56 15.32C116.34 18.79 119.05 19.95 119.95 40.08C121.24 68.91 120 155.52 120 155.52Z" fill="url(#paint0_radial_849_400)"/>
<path d="M103 193.27C103.4 205.86 112.19 223.63 112.19 223.63L113.83 157.42V155.62L115.32 95.62L105 134.15C103.92 139.41 103.32 147.31 103 155.62L102.94 157.42C102.36 174.77 103 193.27 103 193.27Z" fill="#EAEBEC"/>
<path d="M25.32 193.27C24.93 205.86 16.14 223.63 16.14 223.63L14.49 157.42L14.44 155.62L13 95.6L23.38 134.15C24.45 139.41 25.05 147.31 25.38 155.62L25.44 157.42C25.93 174.77 25.32 193.27 25.32 193.27Z" fill="#EAEBEC"/>
<path d="M25.7692 193.27C25.3792 205.86 16.5892 223.63 16.5892 223.63L14.939 157.42V155.62L13.4492 95.62L23.8292 134.17C24.8992 139.43 25.4992 147.33 25.8292 155.64L25.8891 157.44C26.3791 174.77 25.7692 193.27 25.7692 193.27Z" fill="#1A1A1A"/>
<g style="mix-blend-mode:screen" opacity="0.6">
<path d="M23.8605 204.5C22.1853 210.354 20.0727 216.073 17.5405 221.61L17.0605 202.78L23.8605 204.5Z" fill="#151418"/>
</g>
<g style="mix-blend-mode:screen" opacity="0.6">
<path d="M23.8605 204.5C22.1853 210.354 20.0727 216.073 17.5405 221.61L17.0605 202.78L23.8605 204.5Z" fill="#151418"/>
</g>
<g style="mix-blend-mode:screen" opacity="0.6">
<path d="M25.77 193.27C25.6069 196.537 25.1042 199.777 24.27 202.94L17 200.85L14.5 99.69L23.78 134.15C27.17 150.73 25.77 193.27 25.77 193.27Z" fill="#151418"/>
</g>
<g style="mix-blend-mode:screen" opacity="0.6">
<path d="M25.77 193.27C25.6069 196.537 25.1042 199.777 24.27 202.94L17 200.85L14.5 99.69L23.78 134.15C27.17 150.73 25.77 193.27 25.77 193.27Z" fill="#151418"/>
</g>
<g style="mix-blend-mode:screen" opacity="0.6">
<path d="M23.8605 204.5C22.1853 210.354 20.0727 216.073 17.5405 221.61L17.0605 202.78L23.8605 204.5Z" fill="#151418"/>
</g>
<g style="mix-blend-mode:screen" opacity="0.6">
<path d="M25.77 193.27C25.6069 196.537 25.1042 199.777 24.27 202.94L17 200.85L14.5 99.69L23.78 134.15C27.17 150.73 25.77 193.27 25.77 193.27Z" fill="#151418"/>
</g>
<g style="mix-blend-mode:screen" opacity="0.5">
<g filter="url(#filter0_f_849_400)">
<path d="M21 80.8331V26.3331C21 26.3331 61.498 -8.16644 108.5 26.3331V80.8331C108.5 80.8331 64.498 50.3336 21 80.8331Z" fill="url(#paint1_radial_849_400)"/>
</g>
</g>
<path d="M9.29953 200.08C9.29953 199.18 10.4295 199.48 10.4295 199.48V197.68C7.49953 197.68 7.86954 199.48 7.86954 199.48V206.48C7.86954 206.48 7.49953 208.28 10.4295 208.28V206.48C10.4295 206.48 9.29953 206.78 9.29953 205.88V200.04V200.08Z" fill="url(#paint2_radial_849_400)"/>
<path d="M8.91973 140.89C8.91973 139.99 10.0397 140.29 10.0397 140.29V138.5C7.11974 138.5 7.48973 140.29 7.48973 140.29V147.34C7.48973 147.34 7.11974 149.13 10.0397 149.13V147.34C10.0397 147.34 8.91973 147.63 8.91973 146.74V140.89Z" fill="url(#paint3_radial_849_400)"/>
<path d="M16.5902 106.73C15.7114 106.271 14.7314 106.041 13.7402 106.06C13.4944 106.083 13.2504 106.123 13.0102 106.18C9.65015 106.92 4.49015 110.52 3.01015 111.08C1.53015 111.64 0.910156 111.08 0.910156 111.08V107.55C3.52696 104.631 6.67666 102.238 10.1902 100.5C11.4906 99.811 12.8257 99.191 14.1902 98.64C16.1402 101.56 16.5902 106.73 16.5902 106.73Z" fill="url(#paint4_radial_849_400)"/>
<path d="M16.59 106.73C15.7112 106.271 14.7311 106.041 13.74 106.06C13.4941 106.083 13.2502 106.123 13.01 106.18C12.3247 104.174 11.3836 102.265 10.21 100.5C11.5103 99.811 12.8454 99.191 14.21 98.64C16.14 101.56 16.59 106.73 16.59 106.73Z" fill="#1A1A1A"/>
<path d="M100.28 215.05C100.28 215.05 86.09 218.79 64.1201 219.05C42.1201 218.75 27.9701 215.05 27.9701 215.05L22.5801 253C40.4001 260.64 64.1201 259.74 64.1201 259.74C64.1201 259.74 87.84 260.64 105.67 253L100.28 215.05Z" fill="#EAEBEC"/>
<path d="M102.371 122.46C86.9405 118.46 64.1204 118.57 64.1204 118.57C64.1204 118.57 41.3004 118.42 25.8704 122.46C25.8704 122.46 17.7804 97 18.0804 84.11C18.0804 84.11 20.2904 81.53 25.8604 78.68C32.7504 75.16 44.7704 71.23 64.1204 71.23C86.3205 71.23 98.8705 76.4 105.121 80.23C106.988 81.289 108.696 82.609 110.191 84.15C110.461 97 102.371 122.46 102.371 122.46Z" fill="#EAEBEC"/>
<g filter="url(#filter1_f_849_400)">
<path d="M64.5 110L27 127C38 176.5 27 217 27 217C64.5 236.5 103 217 103 217C94.5 180.5 103 127 103 127L64.5 110Z" fill="url(#paint5_radial_849_400)" fill-opacity="0.75"/>
</g>
<path d="M100.28 214.14C100.28 214.14 86.09 217.89 64.1201 218.19C42.1201 217.89 27.9701 214.14 27.9701 214.14L22.5801 252C40.4001 259.64 64.1201 258.74 64.1201 258.74C64.1201 258.74 87.84 259.64 105.67 252L100.28 214.14Z" fill="#1A1A1A"/>
<path d="M13.6228 29.2958L13.1729 29.2966L13.2977 100.817L13.7477 100.816L13.6228 29.2958Z" fill="#1A1A1A"/>
<g style="mix-blend-mode:screen" opacity="0.6">
<path d="M64.1691 257.13C80.169 256.96 102.869 251.69 102.869 251.69L98.329 220.34C98.35 219.758 98.187 219.185 97.864 218.7C97.541 218.216 97.074 217.845 96.529 217.64C83.529 219.93 67.6891 220.28 64.1191 220.33C60.5491 220.38 44.6591 219.93 31.7191 217.64C31.1741 217.845 30.7072 218.216 30.3843 218.7C30.0613 219.185 29.8986 219.758 29.9191 220.34L25.3691 251.69C25.3691 251.69 48.1191 256.96 64.0691 257.13H64.1691Z" fill="#151418"/>
</g>
<g style="mix-blend-mode:screen" opacity="0.6">
<path d="M102.869 251.69C102.869 251.69 80.129 256.96 64.1791 257.13H64.0691C48.1191 256.96 25.3691 251.69 25.3691 251.69L26.5691 243.4L29.9191 220.33C29.9008 219.75 30.0645 219.178 30.3873 218.696C30.7101 218.214 31.1758 217.844 31.7191 217.64C44.6591 219.93 60.5591 220.28 64.1191 220.33C67.6791 220.38 83.579 219.93 96.529 217.64C97.072 217.844 97.538 218.214 97.861 218.696C98.184 219.178 98.347 219.75 98.329 220.33L101.659 243.33L102.869 251.69Z" fill="#151418"/>
</g>
<path d="M64.1191 2.91998V81.09L18.1191 85.01L44.2191 5.29998C50.7634 3.88578 57.4259 3.08898 64.1191 2.91998Z" fill="url(#paint6_linear_849_400)"/>
<path d="M64.1191 2.91998V81.09L110.119 85.01L83.999 5.29998C77.461 3.88698 70.8056 3.09018 64.1191 2.91998Z" fill="url(#paint7_linear_849_400)"/>
<path style="mix-blend-mode:screen" opacity="0.6" d="M105.089 81.09C67.3094 70.86 37.6894 76.41 25.8594 79.58C32.7494 76.06 44.7694 72.13 64.1194 72.13C86.3193 72.13 98.8693 77.3 105.089 81.09Z" fill="url(#paint8_linear_849_400)"/>
<path d="M21.5696 283.08C21.4096 282.99 21.2596 282.89 21.1096 282.79C20.8196 271.1 22.6296 251.94 22.6496 251.72H23.0996C23.0796 252 21.2396 271.46 21.5696 283.08Z" fill="#1A1A1A"/>
<path d="M104.5 252C88.5 261.5 39 260.5 23.5 252L21.5 277.5C29.001 286 97.001 287 106.5 277.5L104.5 252Z" fill="url(#paint9_radial_849_400)" fill-opacity="0.53"/>
<path d="M15.5 261.5C14.5 260 13 259.5 13 259.5C13 262.5 13.4456 262.793 14 270C14.5544 277.207 19.8944 283.697 23.5 285.5C26.5 287 37 287.5 37 287.5C37 284.5 23.5 279.5 21 276.5C18.5 273.5 16.5 263 15.5 261.5Z" fill="url(#paint10_linear_849_400)"/>
<path d="M25.8195 157.42H14.9395V155.62H25.7595L25.8195 157.42Z" fill="#1A1A1A"/>
<path d="M102.47 193.27C102.87 205.86 111.66 223.63 111.66 223.63L113.3 157.42V155.62L114.8 95.62L104.42 134.17C103.34 139.43 102.74 147.33 102.42 155.64L102.36 157.44C101.86 174.77 102.47 193.27 102.47 193.27Z" fill="#1A1A1A"/>
<g style="mix-blend-mode:screen" opacity="0.6">
<path d="M104.38 204.5C106.055 210.354 108.168 216.073 110.7 221.61L111.18 202.78L104.38 204.5Z" fill="#151418"/>
</g>
<g style="mix-blend-mode:screen" opacity="0.6">
<path d="M104.38 204.5C106.055 210.354 108.168 216.073 110.7 221.61L111.18 202.78L104.38 204.5Z" fill="#151418"/>
</g>
<g style="mix-blend-mode:screen" opacity="0.6">
<path d="M102.469 193.27C102.637 196.536 103.14 199.776 103.969 202.94L111.219 200.85L113.739 99.69L104.469 134.15C101.069 150.73 102.469 193.27 102.469 193.27Z" fill="#151418"/>
</g>
<g style="mix-blend-mode:screen" opacity="0.6">
<path d="M102.469 193.27C102.637 196.536 103.14 199.776 103.969 202.94L111.219 200.85L113.739 99.69L104.469 134.15C101.069 150.73 102.469 193.27 102.469 193.27Z" fill="#151418"/>
</g>
<g style="mix-blend-mode:screen" opacity="0.6">
<path d="M104.38 204.5C106.055 210.354 108.168 216.073 110.7 221.61L111.18 202.78L104.38 204.5Z" fill="#151418"/>
</g>
<g style="mix-blend-mode:screen" opacity="0.6">
<path d="M102.469 193.27C102.637 196.536 103.14 199.776 103.969 202.94L111.219 200.85L113.739 99.69L104.469 134.15C101.069 150.73 102.469 193.27 102.469 193.27Z" fill="#151418"/>
</g>
<path d="M118.94 200.08C118.94 199.18 117.82 199.48 117.82 199.48V197.68C120.74 197.68 120.37 199.48 120.37 199.48V206.48C120.37 206.48 120.74 208.28 117.82 208.28V206.48C117.82 206.48 118.94 206.78 118.94 205.88V200.04V200.08Z" fill="url(#paint11_radial_849_400)"/>
<path d="M119.319 140.89C119.319 139.99 118.199 140.29 118.199 140.29V138.5C121.119 138.5 120.749 140.29 120.749 140.29V147.34C120.749 147.34 121.119 149.13 118.199 149.13V147.34C118.199 147.34 119.319 147.63 119.319 146.74V140.89Z" fill="url(#paint12_radial_849_400)"/>
<path d="M111.66 106.73C112.535 106.271 113.512 106.04 114.5 106.06C114.746 106.081 114.99 106.121 115.23 106.18C118.6 106.92 123.75 110.52 125.23 111.08C126.71 111.64 127.33 111.08 127.33 111.08V107.55C124.698 104.626 121.531 102.233 118 100.5C116.7 99.811 115.364 99.191 114 98.64C112.11 101.56 111.66 106.73 111.66 106.73Z" fill="url(#paint13_radial_849_400)"/>
<path d="M111.66 106.73C112.535 106.271 113.512 106.04 114.5 106.06C114.746 106.081 114.99 106.121 115.23 106.18C115.915 104.174 116.856 102.265 118.03 100.5C116.73 99.811 115.394 99.191 114.03 98.64C112.11 101.56 111.66 106.73 111.66 106.73Z" fill="#1A1A1A"/>
<path d="M114.642 29.2856L114.48 100.805L114.93 100.806L115.092 29.2866L114.642 29.2856Z" fill="#1A1A1A"/>
<path d="M106.67 283.08C106.83 282.99 106.98 282.89 107.13 282.79C107.42 271.1 105.61 251.94 105.59 251.72H105.14C105.16 252 107 271.46 106.67 283.08Z" fill="#1A1A1A"/>
<path d="M112.5 261.5C113.5 260 115 259.5 115 259.5C115 262.5 114.554 262.793 114 270C113.446 277.207 108.106 283.697 104.5 285.5C101.5 287 91 287.5 91 287.5C91 284.5 104.5 279.5 107 276.5C109.5 273.5 111.5 263 112.5 261.5Z" fill="url(#paint14_linear_849_400)"/>
<path d="M102.42 157.42H113.3V155.62H102.48L102.42 157.42Z" fill="#1A1A1A"/>
<path d="M102.37 123.36C86.9395 119.36 64.1194 119.47 64.1194 119.47C64.1194 119.47 41.2994 119.32 25.8694 123.36C25.8694 123.36 17.7794 97.9 18.0794 85.01C18.0794 85.01 20.2894 82.43 25.8594 79.58C32.7494 76.06 44.7694 72.13 64.1194 72.13C86.3195 72.13 98.8695 77.3 105.12 81.13C106.987 82.189 108.695 83.509 110.19 85.05C110.46 97.9 102.37 123.36 102.37 123.36Z" fill="#1A1A1A"/>
<g style="mix-blend-mode:screen" opacity="0.6">
<path d="M64.1199 82.32C43.3499 81.87 21.1199 85.01 21.2299 90.26C21.3399 95.51 26.0599 115.26 26.0599 115.26C27.8699 119.26 30.0599 119.54 31.7899 119.26C36.7099 118.39 45.7899 116.93 64.1199 116.93C82.27 116.93 91.53 118.39 96.46 119.26C98.18 119.56 100.37 119.33 102.19 115.26C102.19 115.26 106.87 95.49 107.02 90.26C107.17 85.03 84.9 81.87 64.1199 82.32Z" fill="#151418"/>
</g>
<g style="mix-blend-mode:screen" opacity="0.6">
<path d="M64.1199 82.32C43.3499 81.87 21.1199 85.01 21.2299 90.26C21.3399 95.51 26.0599 115.26 26.0599 115.26C27.8699 119.26 30.0599 119.54 31.7899 119.26C36.7099 118.39 45.7899 116.93 64.1199 116.93C82.27 116.93 91.53 118.39 96.46 119.26C98.18 119.56 100.37 119.33 102.19 115.26C102.19 115.26 106.87 95.49 107.02 90.26C107.17 85.03 84.9 81.87 64.1199 82.32Z" fill="#151418"/>
</g>
<g style="mix-blend-mode:screen" opacity="0.6">
<path d="M107 90.26C106.85 95.5 102.17 115.26 102.17 115.26C100.35 119.26 98.1698 119.53 96.4398 119.26C91.5098 118.4 82.2498 116.94 64.0997 116.94C59.2797 116.94 55.0996 117.04 51.4596 117.2C47.4493 105.556 42.054 94.436 35.3896 84.08C44.8906 82.664 54.4973 82.082 64.0997 82.34C84.8998 81.87 107.17 85 107 90.26Z" fill="#151418"/>
</g>
<path style="mix-blend-mode:screen" opacity="0.6" d="M107 90.26C106.85 95.5 102.17 115.26 102.17 115.26C100.35 119.26 98.1698 119.53 96.4398 119.26C91.5098 118.4 82.2498 116.94 64.0997 116.94C59.2797 116.94 55.0996 117.04 51.4596 117.2C47.4493 105.556 42.054 94.436 35.3896 84.08C44.8906 82.664 54.4973 82.082 64.0997 82.34C84.8998 81.87 107.17 85 107 90.26Z" fill="url(#paint15_linear_849_400)"/>
<path d="M101.66 243.29C66.7103 252 41.0003 247.83 26.5703 243.4L29.9203 220.33C29.9019 219.75 30.0656 219.178 30.3884 218.696C30.7112 218.214 31.177 217.844 31.7203 217.64C44.6603 219.93 60.5603 220.28 64.1203 220.33C67.6803 220.38 83.5802 219.93 96.5302 217.64C97.0732 217.844 97.5392 218.214 97.8622 218.696C98.1852 219.178 98.3482 219.75 98.3302 220.33L101.66 243.29Z" fill="url(#paint16_linear_849_400)"/>
<path d="M30.6605 14.07L30.4805 13.66C30.7405 13.55 56.7805 2.56001 97.1405 13.09L97.0205 13.52C76.0205 8.04001 59.0805 8.52001 48.5705 9.82001C37.2005 11.27 30.7205 14 30.6605 14.07Z" fill="#1A1A1A"/>
<path d="M32.0007 12.5C33.5007 14 21.0004 20.5 13.5006 32.5C11.0006 29 12.0005 22.5 14.0009 20.5C15.7687 18.7326 27.5009 11.5 32.0007 12.5Z" fill="#565F69"/>
<g filter="url(#filter2_f_849_400)">
<path d="M15.521 21.5844C14.721 22.3844 13.8541 27.0844 14.0208 28.5844C15.021 28.0844 18.6674 21.9379 19.021 21.5844C19.521 21.0844 22.5212 18.5844 23.521 18.0844C24.365 17.6623 29.5212 14.5843 28.521 14.0844C27.3492 13.4986 21.521 16.0844 20.021 18.0844C18.7482 19.7814 16.521 20.5844 15.521 21.5844Z" fill="white"/>
</g>
<path d="M96.1412 12.5C94.6412 14 107.141 20.5 114.641 32.5C117.141 29 116.141 22.5 114.141 20.5C112.373 18.7326 100.641 11.5 96.1412 12.5Z" fill="#565F69"/>
<g filter="url(#filter3_f_849_400)">
<path d="M112.62 21.5844C113.42 22.3844 114.287 27.0844 114.12 28.5844C113.12 28.0844 109.473 21.9379 109.12 21.5844C108.62 21.0844 105.619 18.5844 104.62 18.0844C103.776 17.6623 98.6192 14.5843 99.6194 14.0844C100.791 13.4986 106.62 16.0844 108.12 18.0844C109.392 19.7814 111.62 20.5844 112.62 21.5844Z" fill="white"/>
</g>
</g>
<defs>
<filter id="filter0_f_849_400" x="10" y="-3.05176e-05" width="109.5" height="91.8331" filterUnits="userSpaceOnUse" color-interpolation-filters="sRGB">
<feFlood flood-opacity="0" result="BackgroundImageFix"/>
<feBlend mode="normal" in="SourceGraphic" in2="BackgroundImageFix" result="shape"/>
<feGaussianBlur stdDeviation="5.5" result="effect1_foregroundBlur_849_400"/>
</filter>
<filter id="filter1_f_849_400" x="22" y="105" width="86" height="125.667" filterUnits="userSpaceOnUse" color-interpolation-filters="sRGB">
<feFlood flood-opacity="0" result="BackgroundImageFix"/>
<feBlend mode="normal" in="SourceGraphic" in2="BackgroundImageFix" result="shape"/>
<feGaussianBlur stdDeviation="2.5" result="effect1_foregroundBlur_849_400"/>
</filter>
<filter id="filter2_f_849_400" x="12" y="12" width="18.6494" height="18.5844" filterUnits="userSpaceOnUse" color-interpolation-filters="sRGB">
<feFlood flood-opacity="0" result="BackgroundImageFix"/>
<feBlend mode="normal" in="SourceGraphic" in2="BackgroundImageFix" result="shape"/>
<feGaussianBlur stdDeviation="1" result="effect1_foregroundBlur_849_400"/>
</filter>
<filter id="filter3_f_849_400" x="97.4912" y="12" width="18.6494" height="18.5844" filterUnits="userSpaceOnUse" color-interpolation-filters="sRGB">
<feFlood flood-opacity="0" result="BackgroundImageFix"/>
<feBlend mode="normal" in="SourceGraphic" in2="BackgroundImageFix" result="shape"/>
<feGaussianBlur stdDeviation="1" result="effect1_foregroundBlur_849_400"/>
</filter>
<radialGradient id="paint0_radial_849_400" cx="0" cy="0" r="1" gradientUnits="userSpaceOnUse" gradientTransform="translate(70.5196 112.58) scale(254.09 254.09)">
<stop offset="0.1" stop-color="#C8C8CA"/>
<stop offset="0.83" stop-color="#949496"/>
</radialGradient>
<radialGradient id="paint1_radial_849_400" cx="0" cy="0" r="1" gradientUnits="userSpaceOnUse" gradientTransform="translate(64.75 45.9165) rotate(89.7616) scale(60.084 75.2844)">
<stop stop-color="#FFFEFE"/>
<stop offset="1" stop-color="white" stop-opacity="0"/>
</radialGradient>
<radialGradient id="paint2_radial_849_400" cx="0" cy="0" r="1" gradientUnits="userSpaceOnUse" gradientTransform="translate(9.13953 203) scale(3.87 3.87)">
<stop offset="0.1" stop-color="#C8C8CA"/>
<stop offset="0.83" stop-color="#949496"/>
</radialGradient>
<radialGradient id="paint3_radial_849_400" cx="0" cy="0" r="1" gradientUnits="userSpaceOnUse" gradientTransform="translate(8.75973 143.82) scale(3.87 3.87)">
<stop offset="0.1" stop-color="#C8C8CA"/>
<stop offset="0.83" stop-color="#949496"/>
</radialGradient>
<radialGradient id="paint4_radial_849_400" cx="0" cy="0" r="1" gradientUnits="userSpaceOnUse" gradientTransform="translate(5.51436 106.274) rotate(-29.08) scale(13.59 3.1257)">
<stop offset="0.1" stop-color="#C8C8CA"/>
<stop offset="0.83" stop-color="#949496"/>
</radialGradient>
<radialGradient id="paint5_radial_849_400" cx="0" cy="0" r="1" gradientUnits="userSpaceOnUse" gradientTransform="translate(65 167.833) rotate(93.3592) scale(76.7986 50.4613)">
<stop stop-color="#F6F6F6" stop-opacity="0.79"/>
<stop offset="1" stop-color="#F2F7FF" stop-opacity="0"/>
</radialGradient>
<linearGradient id="paint6_linear_849_400" x1="23.6791" y1="43.97" x2="69.7091" y2="43.97" gradientUnits="userSpaceOnUse">
<stop stop-color="#A3A5A7"/>
<stop offset="1" stop-color="white" stop-opacity="0"/>
</linearGradient>
<linearGradient id="paint7_linear_849_400" x1="104.569" y1="43.97" x2="58.5291" y2="43.97" gradientUnits="userSpaceOnUse">
<stop stop-color="#A3A5A7"/>
<stop offset="1" stop-color="white" stop-opacity="0"/>
</linearGradient>
<linearGradient id="paint8_linear_849_400" x1="25.8594" y1="76.61" x2="105.089" y2="76.61" gradientUnits="userSpaceOnUse">
<stop stop-color="white" stop-opacity="0"/>
<stop offset="0.61" stop-color="#737275" stop-opacity="0.6"/>
<stop offset="0.93" stop-color="#151418"/>
</linearGradient>
<radialGradient id="paint9_radial_849_400" cx="0" cy="0" r="1" gradientUnits="userSpaceOnUse" gradientTransform="translate(64.5 269.378) rotate(90.9491) scale(30.1265 73.6798)">
<stop stop-color="#FFFEFE" stop-opacity="0.94"/>
<stop offset="1" stop-color="white" stop-opacity="0"/>
</radialGradient>
<linearGradient id="paint10_linear_849_400" x1="17.5" y1="280" x2="26.5" y2="272" gradientUnits="userSpaceOnUse">
<stop stop-color="#6A0000"/>
<stop offset="1" stop-color="#FF0000"/>
</linearGradient>
<radialGradient id="paint11_radial_849_400" cx="0" cy="0" r="1" gradientUnits="userSpaceOnUse" gradientTransform="translate(119.1 203) rotate(180) scale(3.86994 3.87)">
<stop offset="0.1" stop-color="#C8C8CA"/>
<stop offset="0.83" stop-color="#949496"/>
</radialGradient>
<radialGradient id="paint12_radial_849_400" cx="0" cy="0" r="1" gradientUnits="userSpaceOnUse" gradientTransform="translate(119.479 143.81) rotate(180) scale(3.87 3.87)">
<stop offset="0.1" stop-color="#C8C8CA"/>
<stop offset="0.83" stop-color="#949496"/>
</radialGradient>
<radialGradient id="paint13_radial_849_400" cx="0" cy="0" r="1" gradientUnits="userSpaceOnUse" gradientTransform="translate(130.637 98.143) rotate(-150.611) scale(13.5696 3.10182)">
<stop offset="0.1" stop-color="#C8C8CA"/>
<stop offset="0.83" stop-color="#949496"/>
</radialGradient>
<linearGradient id="paint14_linear_849_400" x1="110.5" y1="280" x2="101.5" y2="272" gradientUnits="userSpaceOnUse">
<stop stop-color="#6A0000"/>
<stop offset="1" stop-color="#FF0000"/>
</linearGradient>
<linearGradient id="paint15_linear_849_400" x1="71.2196" y1="90.01" x2="71.2196" y2="161.83" gradientUnits="userSpaceOnUse">
<stop stop-color="white" stop-opacity="0"/>
<stop offset="0.61" stop-color="#737275" stop-opacity="0.6"/>
<stop offset="0.93" stop-color="#151418"/>
</linearGradient>
<linearGradient id="paint16_linear_849_400" x1="64.1103" y1="224.05" x2="64.1103" y2="283.63" gradientUnits="userSpaceOnUse">
<stop stop-color="white" stop-opacity="0"/>
<stop offset="0.61" stop-color="#737275" stop-opacity="0.6"/>
<stop offset="0.93" stop-color="#151418"/>
</linearGradient>
<clipPath id="clip0_849_400">
<rect width="128" height="289" fill="white"/>
</clipPath>
</defs>
</svg>
