<svg width="18" height="27" viewBox="0 0 18 27" fill="none" xmlns="http://www.w3.org/2000/svg">
<g clip-path="url(#clip0_160_5)">
<path d="M4.86075 21.3632C4.73911 21.1724 4.57122 21.0154 4.37268 20.9068C4.17414 20.7983 3.95139 20.7416 3.72512 20.7422H2.78283C1.32492 20.8593 1.79788 23.0954 3.07152 23.0548L4.27859 23.0549C4.44133 23.0529 4.6006 23.0076 4.74006 22.9237C4.87956 22.8399 4.99419 22.7204 5.0723 22.5776C5.15036 22.4348 5.18906 22.2738 5.18442 22.1111C5.17973 21.9484 5.13189 21.7899 5.04577 21.6519L4.86075 21.3632ZM3.07149 22.1075C2.95026 22.1163 2.79382 21.9031 2.82955 21.6895H3.72512C3.79248 21.6894 3.85879 21.7062 3.91791 21.7385C3.97702 21.7708 4.02702 21.8175 4.06327 21.8743L4.21267 22.1075H3.07149Z" fill="white"/>
<path d="M13.2533 20.7422H12.311C12.0847 20.7416 11.862 20.7983 11.6634 20.9068C11.4649 21.0154 11.297 21.1724 11.1754 21.3632L10.9903 21.6518C10.9042 21.7899 10.8563 21.9484 10.8517 22.1111C10.847 22.2738 10.8857 22.4348 10.9638 22.5776C11.0419 22.7204 11.1566 22.8399 11.2961 22.9237C11.4355 23.0075 11.5948 23.0528 11.7575 23.0548H12.9646C14.2377 23.0954 14.7117 20.8594 13.2533 20.7422ZM12.9646 22.1075L11.8116 22.126C11.9255 21.9479 12.0587 21.671 12.311 21.6896H13.2066C13.242 21.9032 13.086 22.1163 12.9646 22.1075Z" fill="white"/>
<path d="M10.0694 21.3906H6.05097C5.92691 21.393 5.80877 21.444 5.72195 21.5326C5.63507 21.6212 5.58643 21.7403 5.58643 21.8643C5.58643 21.9884 5.63507 22.1075 5.72195 22.196C5.80882 22.2846 5.92696 22.3356 6.05097 22.338H10.0694C10.1934 22.3356 10.3116 22.2846 10.3984 22.196C10.4853 22.1075 10.534 21.9884 10.534 21.8643C10.534 21.7403 10.4853 21.6212 10.3984 21.5326C10.3116 21.444 10.1934 21.393 10.0694 21.3906Z" fill="white"/>
<path d="M17.2621 5.09533L16.8506 4.41741C16.7841 4.3126 16.6793 4.23805 16.5584 4.20975C16.4376 4.18146 16.3106 4.20168 16.2044 4.26607C16.0984 4.33047 16.0218 4.43391 15.9912 4.55415C15.9605 4.6744 15.9783 4.80184 16.0406 4.90918L16.4516 5.58612C17.4807 7.24553 16.6013 9.30875 14.8383 10.0889C12.0857 11.1286 10.4717 13.3265 11.0576 16.1301C10.1725 15.7337 7.27971 15.9524 6.30767 15.901C6.01034 15.903 5.71414 15.9374 5.42429 16.0037L6.30719 13.181C6.8246 11.5305 8.49476 10.3119 10.4626 10.1485L11.3995 10.072C14.2918 9.83255 16.3156 7.45182 15.6911 4.61191C15.6752 4.48891 15.6117 4.37705 15.5142 4.30035C15.4168 4.22364 15.2931 4.18821 15.1698 4.20166C15.0465 4.21511 14.9334 4.27637 14.8548 4.37228C14.7762 4.4682 14.7383 4.59112 14.7493 4.71465C15.2682 7.08774 13.7409 8.88826 11.3218 9.1279C8.6497 9.14443 6.16916 10.4661 5.40307 12.898L4.29661 16.435C3.71623 16.7664 3.2269 17.2362 2.87229 17.8027L1.73896 19.6112C1.30077 19.6772 0.900693 19.8979 0.611173 20.2333C0.32165 20.5688 0.161826 20.9969 0.160645 21.4399C0.161942 22.0114 0.339416 22.5686 0.668877 23.0355C0.998339 23.5025 1.46376 23.8564 2.00172 24.0492V25.6752C2.01347 25.9119 2.11838 26.1344 2.29358 26.2941C2.46877 26.4537 2.70001 26.5376 2.93683 26.5275H4.10626C4.34308 26.5376 4.57432 26.4537 4.74953 26.2941C4.9247 26.1344 5.02962 25.9119 5.04137 25.6752V24.2159H10.9945V25.6752C11.0063 25.9119 11.1112 26.1344 11.2864 26.2941C11.4616 26.4537 11.6928 26.5376 11.9296 26.5275H13.0991C13.3359 26.5376 13.5671 26.4537 13.7423 26.2941C13.9175 26.1344 14.0224 25.9119 14.0342 25.6752V24.0492C16.026 23.4515 16.7696 20.0881 14.2969 19.613C13.7355 18.778 12.954 17.1974 12.0889 16.6586L11.9211 15.468C11.6775 13.7935 12.6754 12.1314 14.4033 11.3323L15.2362 10.9486C17.5029 9.94984 18.5893 7.21829 17.2621 5.09533ZM4.09398 25.5801L2.94908 25.575V24.2159H4.09398V25.5801ZM11.9419 25.575V24.2159H13.0868V25.5801L11.9419 25.575ZM14.9279 21.4399C14.9267 21.9254 14.7329 22.3906 14.3891 22.7334C14.0454 23.0762 13.5797 23.2687 13.0942 23.2686H11.5106C10.2119 23.2679 4.11364 23.2688 2.94167 23.2686C2.45587 23.2686 1.98991 23.0758 1.64612 22.7325C1.30232 22.3893 1.10878 21.9237 1.108 21.4379C1.10872 21.1968 1.20504 20.9658 1.37584 20.7957C1.54664 20.6255 1.77797 20.5301 2.01905 20.5303L14.0171 20.5322C14.2581 20.532 14.4894 20.6276 14.6601 20.7978C14.8309 20.9679 14.9272 21.1989 14.9279 21.4399ZM5.08054 19.5834C5.19114 19.4293 5.3368 19.3039 5.50558 19.2173C5.6743 19.1307 5.86122 19.0856 6.05088 19.0857C6.2405 19.0857 6.42741 19.1309 6.59609 19.2175C6.76482 19.3041 6.91048 19.4297 7.02104 19.5838L5.08054 19.5834ZM13.1611 19.5846L8.07399 19.5839C7.92748 19.1642 7.65407 18.8004 7.29165 18.543C6.92923 18.2856 6.49577 18.1474 6.05121 18.1473C5.60671 18.1472 5.17319 18.2854 4.81068 18.5427C4.44821 18.8 4.17472 19.1637 4.02811 19.5833L2.8746 19.5831L3.6749 18.306C3.95529 17.8607 4.34372 17.4936 4.80405 17.2388C5.26442 16.984 5.78173 16.8496 6.3079 16.8484L9.7243 16.8472C10.2513 16.8455 10.77 16.9785 11.2311 17.2336C11.6922 17.4887 12.0805 17.8575 12.3589 18.3048L13.1611 19.5846Z" fill="white"/>
<path d="M15.3119 2.76555C15.3948 2.82939 15.4964 2.86403 15.601 2.86406C15.7056 2.86411 15.8073 2.82955 15.8902 2.76578C16.1632 2.56031 16.3907 2.30038 16.558 2.00246C16.7254 1.70453 16.8291 1.37511 16.8625 1.03503C16.8625 0.435316 16.332 0 15.6011 0C14.8704 0 14.3398 0.435316 14.3398 1.03503C14.3733 1.37506 14.4769 1.70444 14.6443 2.00232C14.8116 2.30021 15.039 2.56011 15.3119 2.76555ZM15.6011 0.947368C15.7122 0.938861 15.8228 0.968296 15.9149 1.03086C15.8915 1.29195 15.781 1.53758 15.6011 1.72821C15.4225 1.53903 15.3113 1.29617 15.2849 1.03734C15.3754 0.968921 15.4882 0.936829 15.6011 0.947368Z" fill="white"/>
<path d="M15.1633 3.52503C15.1656 3.63965 15.2126 3.74882 15.2944 3.8291C15.3763 3.90937 15.4863 3.95434 15.601 3.95434C15.7156 3.95433 15.8257 3.90936 15.9075 3.82908C15.9893 3.7488 16.0364 3.63962 16.0386 3.525C16.0364 3.41039 15.9893 3.30122 15.9075 3.22094C15.8256 3.14067 15.7156 3.0957 15.601 3.0957C15.4863 3.09571 15.3763 3.14068 15.2944 3.22096C15.2126 3.30124 15.1656 3.41042 15.1633 3.52503Z" fill="white"/>
</g>
<defs>
<clipPath id="clip0_160_5">
<rect width="18" height="27" fill="white"/>
</clipPath>
</defs>
</svg>
