<svg width="29" height="18" viewBox="0 0 29 18" fill="none" xmlns="http://www.w3.org/2000/svg">
<path d="M1.86916 13.9989C1.88993 13.9504 1.91416 13.902 1.93839 13.8535C1.883 13.8674 1.83108 13.8847 1.77916 13.8985C1.68223 13.9262 1.58185 13.9504 1.49185 13.9781C1.23223 14.0508 1.00031 14.1131 0.782233 14.1651C0.716464 14.1789 0.647233 14.1997 0.584926 14.2135C0.574541 14.2689 0.567618 14.3277 0.560695 14.3831C0.543387 14.5147 0.529541 14.6462 0.529541 14.7812C0.529541 15.6812 0.913772 16.4877 1.523 17.0589C2.08031 17.5851 2.83146 17.907 3.6553 17.907C4.94645 17.907 6.05761 17.1212 6.5353 16.0031C6.52838 15.9927 6.52492 15.9824 6.51799 15.9754C6.45915 15.882 6.40376 15.7816 6.34145 15.6777C6.32761 15.6535 6.31376 15.6327 6.29992 15.6085C6.15799 15.3558 5.9953 15.072 5.80145 14.7985C5.73568 14.7016 5.66299 14.6081 5.5903 14.5181C5.60068 14.6081 5.61453 14.6947 5.61453 14.7881C5.61453 15.8716 4.7353 16.7474 3.6553 16.7474C3.25031 16.7474 2.873 16.6227 2.56146 16.4116C2.03877 16.0585 1.69608 15.4631 1.69608 14.7881C1.69608 14.6704 1.70993 14.5562 1.73416 14.442C1.76531 14.2897 1.81031 14.1408 1.87262 14.0024L1.86916 13.9989Z" fill="white"/>
<path d="M3.65551 16.0068C4.33051 16.0068 4.87743 15.4599 4.87743 14.7849C4.87743 14.1099 4.34089 13.5768 3.67974 13.5664C3.66935 13.5664 3.66243 13.5664 3.65205 13.5664H3.60358C2.95282 13.5976 2.43359 14.1272 2.43359 14.7849C2.43359 15.0445 2.51667 15.2868 2.65513 15.4841C2.87667 15.7991 3.24359 16.0068 3.65551 16.0068Z" fill="white"/>
<path d="M10.5197 2.56183C10.5197 2.56183 10.5509 2.53067 10.5647 2.51683C10.5786 2.50298 10.5924 2.48913 10.6063 2.47529C10.6063 2.47183 10.6132 2.46837 10.6167 2.4649C10.6478 2.43029 10.6755 2.39567 10.7032 2.35413C10.7067 2.34721 10.7101 2.34029 10.717 2.33337C10.724 2.32298 10.7309 2.3126 10.7378 2.30221C10.7517 2.27798 10.769 2.25375 10.7828 2.22606C10.7967 2.19836 10.8105 2.16721 10.8209 2.13606C10.8209 2.1326 10.8244 2.12567 10.8278 2.12221C10.8278 2.11875 10.8278 2.11529 10.8313 2.11183C10.8451 2.07721 10.852 2.04952 10.8659 2.0149C10.8763 1.98029 10.8832 1.94913 10.8867 1.91452C10.8936 1.8799 10.897 1.85221 10.9005 1.82106C10.904 1.77606 10.9074 1.73106 10.9074 1.68952C10.9074 1.31913 10.7344 0.979903 10.4609 0.761826C10.2982 0.630288 10.0974 0.540288 9.87589 0.509134L8.55358 0.325673L6.89204 0.09375H6.8782C6.8782 0.09375 6.86435 0.09375 6.85743 0.09375C6.77781 0.09375 6.71897 0.131827 6.69127 0.156058C6.68089 0.166443 6.66704 0.18375 6.65666 0.201058C6.62897 0.235673 6.60474 0.280673 6.60474 0.349903V2.90106C6.60474 2.97029 6.62897 3.01529 6.65666 3.0499C6.66704 3.06375 6.67743 3.08106 6.68781 3.09144C6.6982 3.09836 6.71551 3.10875 6.72935 3.11913C6.76397 3.14336 6.81243 3.16413 6.88166 3.15721L9.32897 2.92529L9.67166 2.89413L10.9732 4.68028C11.0459 4.78066 11.1567 4.83259 11.2709 4.83259C11.347 4.83259 11.4232 4.80835 11.489 4.75989C11.6551 4.63874 11.6897 4.41028 11.5686 4.24412L10.409 2.65529C10.409 2.65529 10.4401 2.63106 10.4574 2.61721C10.4782 2.5999 10.499 2.5826 10.5163 2.56875L10.5197 2.56183Z" fill="white"/>
<path d="M14.9989 6.34739C14.9989 6.34739 14.9851 6.35778 14.9747 6.3647C14.9297 6.39239 14.8881 6.42701 14.857 6.47201C14.6701 6.74893 14.5385 7.03278 14.4485 7.32701C14.4001 7.47932 14.362 7.63508 14.3412 7.79085C14.3343 7.8497 14.3412 7.90162 14.362 7.94316C14.3793 7.9847 14.4001 8.01585 14.4174 8.03316C14.4312 8.04701 14.4485 8.05393 14.4624 8.06778C14.5247 8.11624 14.5939 8.15085 14.6701 8.15085L14.9055 8.13008L15.1062 8.11278L23.9643 6.8147C24.0785 6.76278 24.1339 6.70047 24.1616 6.64855C24.172 6.63124 24.1754 6.61393 24.1824 6.60008C24.2239 6.46855 24.1616 6.35778 24.1235 6.30585C24.037 6.19855 23.902 6.12931 23.7808 6.1397L15.1824 6.30239C15.1166 6.30239 15.0543 6.3197 15.0024 6.35085L14.9989 6.34739Z" fill="white"/>
<path d="M23.3723 14.784C23.3723 15.459 23.9192 16.0059 24.5942 16.0059C25.1377 16.0059 25.5912 15.6494 25.7504 15.1578C25.7885 15.0401 25.8162 14.9155 25.8162 14.7805C25.8162 14.6455 25.7919 14.5313 25.7539 14.4171C25.6396 14.0501 25.3558 13.7594 24.9923 13.6313C24.8677 13.5863 24.7327 13.5586 24.5942 13.5586C24.48 13.5586 24.3762 13.5794 24.2723 13.6071C23.7565 13.749 23.3723 14.2197 23.3723 14.7805V14.784Z" fill="white"/>
<path d="M26.467 12.3101C26.4428 12.3239 26.4151 12.3378 26.3874 12.3516C26.242 12.4313 26.0931 12.5109 25.9374 12.587C25.6985 12.7047 25.4528 12.8155 25.2104 12.9228C25.207 12.9228 25.2035 12.9263 25.2001 12.9297C25.9858 13.1859 26.5604 13.9163 26.5604 14.7851C26.5604 15.3251 26.3424 15.8166 25.9858 16.1697C25.6293 16.5263 25.1412 16.7443 24.6012 16.7443C23.5178 16.7443 22.642 15.8651 22.642 14.7851C22.642 14.4528 22.732 14.1413 22.8808 13.8678C22.9051 13.8263 22.9258 13.7813 22.9501 13.7397C22.4135 13.8989 21.9254 14.0236 21.5274 14.1136C21.4789 14.3282 21.4478 14.5497 21.4478 14.7782C21.4478 14.7782 21.4478 14.7816 21.4478 14.7851C21.4478 14.9166 21.4581 15.0482 21.4754 15.1763C21.6693 16.7166 22.9812 17.9109 24.5735 17.9109C26.2974 17.9109 27.7028 16.5089 27.7028 14.7816C27.7028 13.8055 27.2458 12.8986 26.4774 12.3066L26.467 12.3101Z" fill="white"/>
<path d="M20.534 0.0898438V1.97292L20.8836 1.76869C20.9251 1.74446 20.9701 1.73061 21.0151 1.72369C21.0324 1.72369 21.0497 1.71676 21.0671 1.71676C21.0844 1.71676 21.1017 1.72023 21.119 1.72369C21.164 1.73061 21.209 1.74446 21.254 1.76869L21.6071 1.97292V0.0898438H20.5305H20.534Z" fill="white"/>
<path d="M19.5437 0.0898438C19.2391 0.0898438 18.9622 0.214459 18.7614 0.41523C18.5607 0.615999 18.436 0.892919 18.436 1.19753V4.25063C18.436 4.85986 18.9345 5.35832 19.5437 5.35832H22.6003C22.8045 5.35832 22.9949 5.29947 23.161 5.19909C23.258 5.1437 23.3445 5.07101 23.4172 4.99139C23.5972 4.79409 23.708 4.53447 23.708 4.25063V1.19753C23.708 0.969072 23.6387 0.754461 23.5176 0.577922C23.3168 0.28369 22.981 0.0898438 22.6003 0.0898438H22.3476V2.6133C22.3476 2.73792 22.2853 2.85215 22.1814 2.91792C22.1745 2.92138 22.171 2.92831 22.1641 2.93177C22.126 2.95254 22.088 2.96638 22.0464 2.97331C22.0222 2.97677 22.0014 2.98369 21.9772 2.98369C21.9599 2.98369 21.9426 2.98023 21.9287 2.97676C21.8803 2.96984 21.8353 2.956 21.7972 2.93177L21.3403 2.67215L21.0737 2.51638L20.5683 2.81061L20.3537 2.93177C20.236 2.99754 20.0941 2.99754 19.9833 2.93177C19.8691 2.86946 19.7999 2.7483 19.7999 2.6133V0.0898438H19.5472H19.5437Z" fill="white"/>
<path d="M27.4464 10.7867C27.578 10.6829 27.6057 10.4856 27.4984 10.3471C26.9411 9.6029 25.508 7.85829 24.0645 7.54329L15.5941 8.78252L16.0926 11.126C16.2241 11.7421 15.8538 12.3479 15.2445 12.5071L12.7003 13.1614C10.9938 13.6044 9.18683 12.8221 8.40106 11.2991C7.68452 9.90752 7.33837 7.46713 9.52606 3.63867L7.66029 3.81175C6.16491 5.47329 4.63491 8.04521 4.11914 9.74136C4.41337 9.77598 4.71453 9.83483 5.00876 9.92483C7.16529 10.5964 8.45299 12.7529 8.11376 14.9198H18.5364C18.7545 14.9198 18.9622 14.8402 19.1145 14.6879L19.8864 13.9367C20.1011 13.7256 20.3745 13.5837 20.6757 13.5283L20.7795 13.5075C20.8314 13.4971 20.8903 13.4867 20.9526 13.4694C21.9322 13.2652 23.8326 12.7944 25.6014 11.9152C26.3007 11.576 26.9168 11.1917 27.4395 10.7833L27.4464 10.7867ZM22.7595 11.5206L19.7238 11.9637C19.7064 11.9671 19.6857 11.9671 19.6684 11.9671C19.4884 11.9671 19.3326 11.8391 19.3014 11.6521C19.2703 11.4479 19.4122 11.261 19.6164 11.2298L22.6522 10.7867C22.8564 10.7556 23.0399 10.8975 23.0711 11.1017C23.1022 11.3025 22.9638 11.4894 22.7595 11.5206ZM22.7595 9.73444L18.4049 10.3748C18.3876 10.3783 18.3703 10.3783 18.353 10.3783C18.173 10.3783 18.0138 10.2467 17.9861 10.0598C17.9549 9.85906 18.0968 9.67213 18.2976 9.64098L22.6522 9.00059C22.8564 8.96944 23.0399 9.11136 23.0711 9.31559C23.1022 9.51636 22.9638 9.70329 22.7595 9.73444Z" fill="white"/>
<path d="M7.02354 15.382C7.07546 15.4686 7.12392 15.5551 7.17239 15.6278C7.20008 15.5586 7.23123 15.4686 7.26931 15.3509C7.88892 13.3674 6.77777 11.2524 4.79431 10.6328C3.03586 10.0824 1.17355 10.8959 0.342785 12.4743C0.235478 12.6751 0.145478 12.8863 0.0762471 13.1078C-0.0275992 13.4401 0.0104776 13.5405 0.0104776 13.5405C0.142016 13.5924 0.834323 13.3951 1.29125 13.267C2.01471 13.0628 2.86278 12.8205 3.68316 12.8205C3.68316 12.8205 3.68662 12.8205 3.69008 12.8205C4.01546 12.8205 4.34431 12.862 4.65239 12.9555C4.66969 12.9624 4.687 12.9728 4.70431 12.9763C5.06431 13.0974 5.37239 13.2878 5.64239 13.5163C6.24816 14.0286 6.64969 14.7209 6.94392 15.2366C6.97162 15.2816 6.99931 15.3301 7.027 15.3786L7.02354 15.382Z" fill="white"/>
</svg>
