<svg width="19" height="16" viewBox="0 0 19 16" fill="none" xmlns="http://www.w3.org/2000/svg">
<path d="M4.21053 0C3.88199 0 3.54173 0.116389 3.30264 0.355263C3.06355 0.594137 2.94737 0.934065 2.94737 1.26316V2.52632H2.10527C1.77459 2.52635 1.47372 2.82721 1.47369 3.1579V6.31579C1.17442 6.31576 0.85963 6.31579 0.565797 6.31579C0.25762 6.34809 -0.00164928 6.63751 7.90051e-06 6.94737V11.1579C4.09742e-05 11.4886 0.300902 11.7894 0.631586 11.7895H5.89474C7.40003 11.7895 8.63158 10.5579 8.63158 9.05263C8.63158 7.54735 7.40003 6.31579 5.89474 6.31579H2.73685V3.78947H16.4211C16.6425 3.78947 16.8543 3.74892 17.0526 3.67763V7.15789C17.0479 7.49157 17.3505 7.79847 17.6842 7.79847C18.0179 7.79847 18.3205 7.49157 18.3158 7.15789V1.89474C18.3158 1.87461 18.3164 1.85551 18.3158 1.83553C18.3158 1.83114 18.3158 1.82675 18.3158 1.82237C18.2766 0.817025 17.4352 0 16.4211 0H4.21053ZM4.21053 1.26316H16.4211C16.7819 1.26316 17.0526 1.53392 17.0526 1.89474C17.0526 2.25556 16.7819 2.52632 16.4211 2.52632H4.21053V1.26316ZM1.26317 7.57895H5.89474C6.72208 7.57895 7.36842 8.22528 7.36842 9.05263C7.36842 9.87998 6.72209 10.5263 5.89474 10.5263H1.26317V7.57895ZM6.10527 8.21053C5.64768 8.21053 5.26316 8.59503 5.26316 9.05263C5.26316 9.51023 5.64768 9.89474 6.10527 9.89474C6.56286 9.89474 6.94737 9.51023 6.94737 9.05263C6.94737 8.59503 6.56286 8.21053 6.10527 8.21053ZM17.6776 8.21053C17.3469 8.21399 17.0492 8.51799 17.0526 8.84868V9.05263C17.0479 9.3863 17.3505 9.69321 17.6842 9.69321C18.0179 9.69321 18.3205 9.3863 18.3158 9.05263V8.84868C18.3193 8.51361 18.0127 8.20705 17.6776 8.21053ZM15.1579 9.26316C13.305 9.26316 11.7895 10.7787 11.7895 12.6316C11.7895 14.4844 13.305 16 15.1579 16C17.0107 16 18.5263 14.4844 18.5263 12.6316C18.5263 10.7787 17.0107 9.26316 15.1579 9.26316ZM15.1579 10.5263C16.3281 10.5263 17.2632 11.4614 17.2632 12.6316C17.2632 13.8018 16.3281 14.7368 15.1579 14.7368C13.9877 14.7368 13.0526 13.8018 13.0526 12.6316C13.0526 11.4614 13.9877 10.5263 15.1579 10.5263ZM2.09869 12.1974C1.76577 12.2008 1.46677 12.5092 1.47369 12.8421V14.9474C1.47372 15.2781 1.77459 15.5789 2.10527 15.5789H11.3684C11.7021 15.5837 12.009 15.2811 12.009 14.9474C12.009 14.6137 11.7021 14.3111 11.3684 14.3158H2.73685V12.8421C2.74386 12.5049 2.43599 12.1938 2.09869 12.1974Z" fill="white"/>
</svg>
