<svg width="27" height="22" viewBox="0 0 27 22" fill="none" xmlns="http://www.w3.org/2000/svg">
<g clip-path="url(#clip0_160_2)">
<path fill-rule="evenodd" clip-rule="evenodd" d="M15.4648 11.3661C16.2702 12.1716 17.5761 12.1716 18.3815 11.3661L25.8352 3.91169C26.6407 3.10622 26.6407 1.80024 25.8352 0.994766C25.0299 0.189245 23.724 0.189245 22.9186 0.994766L17.248 6.66582C17.069 6.84484 16.7788 6.84484 16.5998 6.66582L15.4653 5.53126C14.6599 4.72579 13.354 4.72579 12.5486 5.53126C11.7432 6.33678 11.7432 7.64271 12.5486 8.44823L15.4188 11.3187C15.4339 11.3347 15.4492 11.3505 15.4648 11.3661ZM14.494 6.4999L15.9536 7.95965V7.96033V7.96102L16.6031 8.61057C16.7821 8.78955 17.0723 8.78955 17.2513 8.61057L17.8971 7.96473V7.96327V7.9618L23.8919 1.96648C24.1604 1.69799 24.5957 1.69799 24.8642 1.96648C25.1326 2.23497 25.1326 2.67029 24.8642 2.93879L19.0678 8.7357C19.0561 8.74926 19.0439 8.76255 19.031 8.77539L17.4106 10.3959C17.1421 10.6644 16.7068 10.6644 16.4383 10.3959C16.4205 10.3781 16.404 10.3596 16.3885 10.3405L14.8182 8.77012C14.8093 8.76127 14.8007 8.7522 14.7924 8.74298L13.5218 7.47221C13.2533 7.20372 13.2533 6.76839 13.5218 6.4999C13.7902 6.23141 14.2255 6.23141 14.494 6.4999Z" fill="white"/>
<path fill-rule="evenodd" clip-rule="evenodd" d="M6.54401 6.30478C6.55025 6.30469 6.55662 6.30473 6.5629 6.30469L10.0509 6.30478C10.4305 6.30478 10.7382 6.6125 10.7382 6.9921C10.7382 7.37169 10.4305 7.67941 10.0509 7.67941L6.5629 7.6795C3.80641 7.71205 1.58179 9.95678 1.58179 12.7209C1.58179 15.4839 3.80434 17.7278 6.55914 17.7622C6.5612 17.7622 6.5629 17.7639 6.5629 17.766C6.5629 17.7681 6.56459 17.7698 6.56665 17.7698H13.5311C13.9569 17.7698 14.3144 17.4688 14.5027 17.0869C15.0259 16.0256 16.1187 15.2955 17.382 15.2955C19.1539 15.2955 20.5903 16.7319 20.5903 18.5038C20.5903 20.2757 19.1539 21.7122 17.382 21.7122C16.0927 21.7122 14.9811 20.9517 14.4712 19.8549C14.2873 19.4595 13.9241 19.1444 13.488 19.1444H6.56633C6.56441 19.1444 6.5628 19.1428 6.5628 19.1409C6.5628 19.1389 6.5612 19.1373 6.55927 19.1373C3.045 19.1029 0.206787 16.2434 0.206787 12.7209C0.206787 9.35512 2.79825 6.59458 6.09475 6.32577C6.10021 6.32531 6.10447 6.32073 6.10447 6.31528C6.10447 6.30945 6.10915 6.30478 6.11497 6.30478H6.54401ZM19.2153 18.5038C19.2153 19.5164 18.3945 20.3372 17.382 20.3372C16.3694 20.3372 15.5487 19.5164 15.5487 18.5038C15.5487 17.4913 16.3694 16.6705 17.382 16.6705C18.3945 16.6705 19.2153 17.4913 19.2153 18.5038Z" fill="white"/>
</g>
<defs>
<clipPath id="clip0_160_2">
<rect width="26.5833" height="22" fill="white"/>
</clipPath>
</defs>
</svg>
