<?xml version="1.0" encoding="utf-8"?>
<!-- Generator: Adobe Illustrator 26.3.1, SVG Export Plug-In . SVG Version: 6.00 Build 0)  -->
<svg version="1.1" id="Layer_1" xmlns="http://www.w3.org/2000/svg" xmlns:xlink="http://www.w3.org/1999/xlink" x="0px" y="0px"
	 viewBox="0 0 841.9 595.3" style="enable-background:new 0 0 841.9 595.3;" xml:space="preserve">
<style type="text/css">
	.st0{fill:#FFFFFF;}
	.st1{fill:none;}
	.st2{fill:#2B4871;}
	.st3{fill:#FF742B;}
	.st4{fill:#FE5C00;}
</style>
<g>
	<polygon class="st1" points="691,162.8 658.2,218.2 702.4,218.2 	"/>
	<path class="st0" d="M59.8,280.5c13.1,7,27.9,10.4,42.8,9.9c25,0,45.1-6.5,60.1-19.6c15-13.1,25.2-32.2,30.4-57.4l19-97h-47.3
		L146,210.2c-1.3,8.1-3.9,16-7.7,23.3c-2.8,5.4-7.1,9.9-12.4,12.9c-5.4,2.8-11.4,4.2-17.4,4c-4.9,0.1-9.7-0.7-14.3-2.4
		c-3.8-1.5-7.1-4.1-9.5-7.4c-2.5-3.7-4-8-4.3-12.4c-0.4-6,0.1-12,1.5-17.9l18.5-93.9H52.1l-19,94.6c-3.4,13.9-2.6,28.4,2.3,41.8
		C40.1,264.5,48.7,274.3,59.8,280.5z"/>
	<polygon class="st0" points="244.8,286.9 263.5,193.5 319.9,286.9 359.6,286.9 393.8,116.3 346.5,116.3 328,209.8 271.4,116.3 
		231.7,116.3 197.5,286.9 	"/>
	<polygon class="st0" points="439.3,244.9 461.2,225.3 500.4,286.9 554.6,286.9 497.1,194.4 584.8,116.3 528,116.3 451.1,186 
		465.1,116.3 417.3,116.3 383.2,286.9 430.9,286.9 	"/>
	<path class="st0" d="M617.6,286.9l19.7-33.4h72.4l6.9,33.4h48.3l-41.4-170.6h-47.5L566.4,286.9H617.6z M691,162.8l11.4,55.4h-44.2
		L691,162.8z"/>
	<g>
		<path class="st0" d="M623.1,448.3c10.2,4.8,21.3,7.1,32.5,6.8c10.6,0.1,21.1-1.7,31-5.4c9.1-3.4,17.4-8.6,24.4-15.4
			c6.8-6.6,12.2-14.5,15.8-23.3h0c3.8-9.4,5.6-19.4,5.5-29.6c0.2-9.9-2.4-19.6-7.4-28.1c-5-8.3-12.4-14.9-21.1-19.1
			c-10.2-4.8-21.3-7.1-32.5-6.8c-10.6-0.1-21.1,1.7-31.1,5.4c-9,3.4-17.3,8.6-24.2,15.4c-6.8,6.6-12.2,14.6-15.8,23.3
			c-3.8,9.4-5.7,19.4-5.6,29.6c-0.2,9.9,2.4,19.7,7.5,28.2C607.1,437.4,614.4,444,623.1,448.3z M632.3,382.5c1.7-5,4.3-9.7,7.7-13.8
			c3.3-3.9,7.5-7.1,12.2-9.3c5-2.3,10.5-3.4,16.1-3.3c5.4-0.2,10.8,1,15.6,3.4l0,0c4.2,2.2,7.6,5.5,9.9,9.7
			c2.3,4.4,3.5,9.3,3.4,14.3c0,5.6-0.8,11.1-2.5,16.4c-1.6,5-4.2,9.7-7.6,13.8c-3.3,3.9-7.5,7.1-12.2,9.3
			c-5.1,2.3-10.6,3.4-16.2,3.3c-5.4,0.2-10.8-1-15.7-3.4c-4.2-2.2-7.6-5.5-9.8-9.7c-2.3-4.4-3.5-9.3-3.4-14.3
			C629.7,393.4,630.5,387.8,632.3,382.5z"/>
		<path class="st0" d="M490.6,448.2c10.2,4.8,21.4,7.1,32.7,6.8c8.9,0,17.8-1.3,26.3-3.9c7.9-2.4,15.4-6.1,22.1-10.9l12.1-58.2
			h-56.7l-7,24.2h27.4l-3.4,16.9c-0.3,0.1-0.5,0.2-0.8,0.3c-5,1.8-10.3,2.7-15.6,2.7c-5.9,0.2-11.7-1-17-3.4
			c-4.5-2.1-8.2-5.4-10.7-9.7l0,0c-2.5-4.4-3.8-9.4-3.7-14.5c-0.1-5.8,0.9-11.5,2.9-16.9c1.8-5,4.7-9.7,8.3-13.6
			c3.7-3.9,8.1-6.9,13.1-8.9c5.4-2.2,11.3-3.2,17.1-3.2c5.8-0.1,11.5,0.9,16.8,3c5.3,2.3,9.8,6,13.2,10.7L593,350
			c-5.7-7.4-13.2-13.2-21.8-16.8c-10.1-4.1-20.9-6.1-31.8-5.8c-10.9-0.1-21.6,1.7-31.8,5.4c-9.2,3.4-17.6,8.6-24.7,15.4
			c-6.9,6.6-12.3,14.6-15.9,23.4c-3.8,9.4-5.7,19.4-5.6,29.5C460.8,421.2,472.3,439.8,490.6,448.2z"/>
		<path class="st3" d="M642.9,422.9c4.9,2.4,10.3,3.6,15.7,3.4c5.6,0.1,11.1-1,16.2-3.3c4.7-2.2,8.8-5.4,12.2-9.3
			c3.4-4,6-8.7,7.6-13.8c1.7-5.3,2.6-10.8,2.5-16.4c0.1-5-1.1-9.9-3.4-14.3c-2.3-4.1-5.7-7.5-9.9-9.7l0,0
			c-4.8-2.4-10.2-3.6-15.6-3.4c-5.5-0.1-11,1-16.1,3.3c-4.7,2.2-8.8,5.4-12.2,9.3c-3.4,4.1-6.1,8.7-7.7,13.8
			c-1.8,5.3-2.7,10.8-2.6,16.4c-0.1,5,1.1,9.9,3.4,14.3C635.3,417.4,638.8,420.7,642.9,422.9z"/>
		<path class="st3" d="M755.4,309.5H450L422,479h305.4l83.4-84.7L755.4,309.5z M500.2,413.3L500.2,413.3c2.5,4.2,6.2,7.6,10.7,9.6
			c5.3,2.4,11.2,3.6,17,3.4c5.3,0,10.6-0.9,15.6-2.7c0.3-0.1,0.5-0.2,0.8-0.3l3.4-16.9h-27.4l7-24.2h56.7l-12.1,58.2
			c-6.7,4.8-14.2,8.5-22.1,10.9c-8.5,2.6-17.4,3.9-26.3,3.9c-11.3,0.3-22.5-2.1-32.7-6.8c-18.3-8.5-29.8-27-29.2-47.2
			c-0.1-10.1,1.8-20.1,5.6-29.5c3.6-8.8,9-16.8,15.9-23.4c7.1-6.8,15.5-12,24.7-15.4c10.2-3.7,21-5.6,31.8-5.4
			c10.9-0.3,21.7,1.7,31.8,5.8c8.6,3.6,16.1,9.4,21.8,16.8l-25.1,19.8c-3.3-4.7-7.9-8.4-13.2-10.7c-5.4-2.1-11.1-3.1-16.8-3
			c-5.9-0.1-11.7,1-17.1,3.2c-4.9,2-9.4,5.1-13.1,8.9c-3.7,3.9-6.5,8.5-8.3,13.6c-2,5.4-3,11.2-2.9,16.9
			C496.4,403.9,497.7,408.9,500.2,413.3z M732.3,381.4c0.1,10.1-1.8,20.2-5.5,29.6h0c-3.6,8.8-9,16.7-15.8,23.3
			c-7,6.7-15.3,11.9-24.4,15.4c-9.9,3.7-20.4,5.6-31,5.4c-11.2,0.3-22.4-2-32.5-6.8c-8.7-4.2-16-10.8-21.1-19
			c-5.1-8.5-7.7-18.3-7.5-28.2c-0.1-10.1,1.8-20.2,5.6-29.6c3.6-8.8,9-16.7,15.8-23.3c6.9-6.7,15.2-11.9,24.2-15.4
			c9.9-3.7,20.5-5.6,31.1-5.4c11.2-0.3,22.4,2.1,32.5,6.8c8.8,4.2,16.1,10.8,21.1,19.1C729.9,361.8,732.5,371.6,732.3,381.4z"/>
	</g>
</g>
</svg>
